<svg width="72" height="72" viewBox="0 0 72 72" fill="none" xmlns="http://www.w3.org/2000/svg">
<path d="M6 60C9.31371 60 12 62.6863 12 66C12 69.3137 9.31371 72 6 72C2.68629 72 -2.89694e-07 69.3137 0 66C2.89694e-07 62.6863 2.68629 60 6 60Z" fill="url(#paint0_linear_905_10253)"/>
<path d="M6 40C9.31371 40 12 42.6863 12 46C12 49.3137 9.31371 52 6 52C2.68629 52 1.45876e-06 49.3137 1.74846e-06 46C2.03815e-06 42.6863 2.68629 40 6 40Z" fill="url(#paint1_linear_905_10253)"/>
<path d="M52 66C52 62.6863 49.3137 60 46 60C42.6863 60 40 62.6863 40 66C40 69.3137 42.6863 72 46 72C49.3137 72 52 69.3137 52 66Z" fill="url(#paint2_linear_905_10253)"/>
<path d="M46 40C49.3137 40 52 42.6863 52 46C52 49.3137 49.3137 52 46 52C42.6863 52 40 49.3137 40 46C40 42.6863 42.6863 40 46 40Z" fill="url(#paint3_linear_905_10253)"/>
<path d="M52 26C52 22.6863 49.3137 20 46 20C42.6863 20 40 22.6863 40 26C40 29.3137 42.6863 32 46 32C49.3137 32 52 29.3137 52 26Z" fill="url(#paint4_linear_905_10253)"/>
<path d="M46 0C49.3137 2.89694e-07 52 2.6863 52 6C52 9.31371 49.3137 12 46 12C42.6863 12 40 9.31371 40 6.00001C40 2.68629 42.6863 -2.89694e-07 46 0Z" fill="url(#paint5_linear_905_10253)"/>
<path d="M32 66C32 62.6863 29.3137 60 26 60C22.6863 60 20 62.6863 20 66C20 69.3137 22.6863 72 26 72C29.3137 72 32 69.3137 32 66Z" fill="url(#paint6_linear_905_10253)"/>
<path d="M26 40C29.3137 40 32 42.6863 32 46C32 49.3137 29.3137 52 26 52C22.6863 52 20 49.3137 20 46C20 42.6863 22.6863 40 26 40Z" fill="url(#paint7_linear_905_10253)"/>
<path d="M72 66C72 62.6863 69.3137 60 66 60C62.6863 60 60 62.6863 60 66C60 69.3137 62.6863 72 66 72C69.3137 72 72 69.3137 72 66Z" fill="url(#paint8_linear_905_10253)"/>
<path d="M66 40C69.3137 40 72 42.6863 72 46C72 49.3137 69.3137 52 66 52C62.6863 52 60 49.3137 60 46C60 42.6863 62.6863 40 66 40Z" fill="url(#paint9_linear_905_10253)"/>
<path d="M72 26C72 22.6863 69.3137 20 66 20C62.6863 20 60 22.6863 60 26C60 29.3137 62.6863 32 66 32C69.3137 32 72 29.3137 72 26Z" fill="url(#paint10_linear_905_10253)"/>
<path d="M66 1.74846e-06C69.3137 2.03815e-06 72 2.6863 72 6C72 9.31371 69.3137 12 66 12C62.6863 12 60 9.31371 60 6C60 2.6863 62.6863 1.45876e-06 66 1.74846e-06Z" fill="url(#paint11_linear_905_10253)"/>
<defs>
<linearGradient id="paint0_linear_905_10253" x1="0.794118" y1="36" x2="72" y2="36" gradientUnits="userSpaceOnUse">
<stop stop-color="#A4B7FA"/>
<stop offset="1" stop-color="#ADDDFF"/>
</linearGradient>
<linearGradient id="paint1_linear_905_10253" x1="0.794118" y1="36" x2="72" y2="36" gradientUnits="userSpaceOnUse">
<stop stop-color="#A4B7FA"/>
<stop offset="1" stop-color="#ADDDFF"/>
</linearGradient>
<linearGradient id="paint2_linear_905_10253" x1="0.794118" y1="36" x2="72" y2="36" gradientUnits="userSpaceOnUse">
<stop stop-color="#A4B7FA"/>
<stop offset="1" stop-color="#ADDDFF"/>
</linearGradient>
<linearGradient id="paint3_linear_905_10253" x1="0.794118" y1="36" x2="72" y2="36" gradientUnits="userSpaceOnUse">
<stop stop-color="#A4B7FA"/>
<stop offset="1" stop-color="#ADDDFF"/>
</linearGradient>
<linearGradient id="paint4_linear_905_10253" x1="0.794118" y1="36" x2="72" y2="36" gradientUnits="userSpaceOnUse">
<stop stop-color="#A4B7FA"/>
<stop offset="1" stop-color="#ADDDFF"/>
</linearGradient>
<linearGradient id="paint5_linear_905_10253" x1="0.794118" y1="36" x2="72" y2="36" gradientUnits="userSpaceOnUse">
<stop stop-color="#A4B7FA"/>
<stop offset="1" stop-color="#ADDDFF"/>
</linearGradient>
<linearGradient id="paint6_linear_905_10253" x1="0.794118" y1="36" x2="72" y2="36" gradientUnits="userSpaceOnUse">
<stop stop-color="#A4B7FA"/>
<stop offset="1" stop-color="#ADDDFF"/>
</linearGradient>
<linearGradient id="paint7_linear_905_10253" x1="0.794118" y1="36" x2="72" y2="36" gradientUnits="userSpaceOnUse">
<stop stop-color="#A4B7FA"/>
<stop offset="1" stop-color="#ADDDFF"/>
</linearGradient>
<linearGradient id="paint8_linear_905_10253" x1="0.794118" y1="36" x2="72" y2="36" gradientUnits="userSpaceOnUse">
<stop stop-color="#A4B7FA"/>
<stop offset="1" stop-color="#ADDDFF"/>
</linearGradient>
<linearGradient id="paint9_linear_905_10253" x1="0.794118" y1="36" x2="72" y2="36" gradientUnits="userSpaceOnUse">
<stop stop-color="#A4B7FA"/>
<stop offset="1" stop-color="#ADDDFF"/>
</linearGradient>
<linearGradient id="paint10_linear_905_10253" x1="0.794118" y1="36" x2="72" y2="36" gradientUnits="userSpaceOnUse">
<stop stop-color="#A4B7FA"/>
<stop offset="1" stop-color="#ADDDFF"/>
</linearGradient>
<linearGradient id="paint11_linear_905_10253" x1="0.794118" y1="36" x2="72" y2="36" gradientUnits="userSpaceOnUse">
<stop stop-color="#A4B7FA"/>
<stop offset="1" stop-color="#ADDDFF"/>
</linearGradient>
</defs>
</svg>
