<svg width="676" height="740" viewBox="0 0 676 740" fill="none" xmlns="http://www.w3.org/2000/svg">
<g opacity="0.15">
<path opacity="0.15" d="M27.1744 640.108L130.767 698.058C135.284 700.706 143.385 700.394 148.681 697.279L183.108 676.716C188.405 673.6 189.028 668.927 184.355 666.279L81.2294 607.083C76.7119 604.435 68.6114 604.746 63.3149 607.862L28.4206 629.515C23.1242 632.786 22.5011 637.46 27.1744 640.108Z" fill="#BDCEFA"/>
<path opacity="0.15" d="M70.1685 589.48L173.761 647.43C178.279 650.078 186.379 649.766 191.675 646.651L226.102 626.088C231.399 622.972 232.022 618.299 227.349 615.651L124.224 556.455C119.706 553.807 111.605 554.118 106.309 557.234L71.4147 578.887C66.274 582.159 65.6509 586.832 70.1685 589.48Z" fill="#BDCEFA"/>
<path opacity="0.15" d="M45.3997 503.802L357.891 678.118C371.755 686.063 396.057 685.128 412.102 675.937L594.207 570.787C610.252 561.596 611.965 547.42 598.101 539.475L285.61 365.159C271.746 357.215 247.444 358.149 231.399 367.34L49.2941 472.491C33.4047 481.837 31.5354 495.857 45.3997 503.802Z" fill="#BDCEFA"/>
</g>
<path d="M648.261 269.667C649.975 269.667 652 268.265 652 265.929V187.884C652 186.638 651.221 185.391 650.131 184.768L556.196 130.557C555.573 130.246 554.95 130.09 554.327 130.09C552.613 130.09 550.588 131.492 550.588 133.829V211.874C550.588 213.12 551.367 214.366 552.458 214.989L646.392 269.2C647.015 269.512 647.638 269.667 648.261 269.667Z" fill="url(#paint0_linear_874_2368)"/>
<path d="M578.161 383.074C581.9 383.074 586.106 380.114 586.106 375.129V208.135C586.106 205.331 584.548 202.683 582.212 201.281L381.258 85.3817C380.011 84.6028 378.765 84.2913 377.363 84.2913C373.624 84.2913 369.418 87.251 369.418 92.2359V259.386C369.418 262.19 370.976 264.838 373.313 266.24L574.267 381.983C575.513 382.762 576.759 383.074 578.161 383.074Z" fill="url(#paint1_linear_874_2368)"/>
<path d="M419.89 159.844C421.448 159.844 423.161 158.597 423.161 156.572V87.4068C423.161 86.3164 422.538 85.2259 421.603 84.6028L338.418 36.4673C337.95 36.1558 337.327 36 336.86 36C335.302 36 333.589 37.2462 333.589 39.2713V108.437C333.589 109.527 334.212 110.618 335.146 111.241L418.332 159.221C418.799 159.688 419.422 159.844 419.89 159.844Z" fill="url(#paint2_linear_874_2368)"/>
<path d="M613.99 434.948C615.548 434.948 617.262 433.702 617.262 431.677V362.511C617.262 361.421 616.639 360.33 615.704 359.707L532.518 311.727C532.051 311.416 531.428 311.26 530.961 311.26C529.403 311.26 527.689 312.506 527.689 314.531V383.697C527.689 384.787 528.312 385.878 529.247 386.501L612.433 434.481C612.9 434.792 613.523 434.948 613.99 434.948Z" fill="url(#paint3_linear_874_2368)"/>
<path d="M384.343 176C382.213 172.462 382.16 168.586 384.224 167.344C386.288 166.102 389.688 167.963 391.817 171.501C393.947 175.04 394 178.915 391.936 180.157C389.872 181.4 386.473 179.538 384.343 176Z" fill="#BDCEFA"/>
<path d="M364.122 159.844C364.122 163.115 366.459 167.321 369.418 168.879C372.378 170.592 374.715 169.19 374.715 165.919C374.715 162.648 372.378 158.442 369.418 156.884C366.459 155.17 364.122 156.572 364.122 159.844Z" fill="#BDCEFA"/>
<path d="M345.272 149.095C345.272 152.366 347.609 156.572 350.569 158.13C353.529 159.688 355.865 158.442 355.865 155.17C355.865 151.899 353.529 147.693 350.569 146.135C347.765 144.422 345.272 145.668 345.272 149.095Z" fill="#BDCEFA"/>
<path d="M491.082 164.517L468.026 170.904C467.247 171.06 466.157 170.437 465.534 169.502L442.479 136.633L491.082 164.517Z" fill="#BDCEFA"/>
<path d="M474.724 171.371L490.769 197.854C491.081 197.542 491.237 197.075 491.237 196.452V166.854L474.724 171.371Z" fill="#BDCEFA"/>
<path d="M460.237 164.361L444.036 172.462C444.503 172.929 444.97 173.396 445.594 173.708L487.654 198.009C488.121 198.321 488.588 198.477 489.056 198.477L473.011 171.839L466.624 173.552L460.237 164.361Z" fill="#BDCEFA"/>
<path d="M442.322 138.658V168.256C442.322 168.879 442.478 169.502 442.79 170.125L458.679 162.025L442.322 138.658Z" fill="#BDCEFA"/>
<path d="M281.091 178.537C281.247 178.537 281.403 178.381 281.403 178.226V63.7285L437.337 153.924C437.493 154.08 437.804 153.924 437.804 153.768C437.96 153.613 437.804 153.301 437.648 153.301L280.624 62.4823V178.381C280.624 178.381 280.78 178.537 281.091 178.537Z" fill="#BDCEFA"/>
<path d="M270.654 179.005C271.122 179.005 271.434 178.694 271.434 178.226V178.07C271.434 177.603 271.122 177.291 270.654 177.291C270.187 177.291 269.875 177.603 269.875 178.07C269.875 178.694 270.187 179.005 270.654 179.005Z" fill="#BDCEFA"/>
<path d="M270.655 173.085C271.122 173.085 271.434 172.773 271.434 172.306V172.15C271.434 171.683 271.122 171.371 270.655 171.371C270.187 171.371 269.876 171.683 269.876 172.15C269.876 172.618 270.187 173.085 270.655 173.085ZM270.655 167.01C271.122 167.01 271.434 166.698 271.434 166.231V166.075C271.434 165.608 271.122 165.296 270.655 165.296C270.187 165.296 269.876 165.608 269.876 166.075C269.876 166.542 270.187 167.01 270.655 167.01ZM270.655 160.934C271.122 160.934 271.434 160.623 271.434 160.155C271.434 159.688 271.122 159.376 270.655 159.376C270.187 159.376 269.876 159.688 269.876 160.155C269.876 160.467 270.187 160.934 270.655 160.934ZM270.655 154.859C271.122 154.859 271.434 154.547 271.434 154.08V153.924C271.434 153.457 271.122 153.145 270.655 153.145C270.187 153.145 269.876 153.457 269.876 153.924C269.876 154.547 270.187 154.859 270.655 154.859ZM270.655 148.939C271.122 148.939 271.434 148.628 271.434 148.16V148.005C271.434 147.537 271.122 147.226 270.655 147.226C270.187 147.226 269.876 147.537 269.876 148.005C269.876 148.472 270.187 148.939 270.655 148.939ZM270.655 142.864C271.122 142.864 271.434 142.552 271.434 142.085V141.929C271.434 141.462 271.122 141.15 270.655 141.15C270.187 141.15 269.876 141.462 269.876 141.929C269.876 142.397 270.187 142.864 270.655 142.864ZM270.655 136.789C271.122 136.789 271.434 136.477 271.434 136.01V135.854C271.434 135.387 271.122 135.075 270.655 135.075C270.187 135.075 269.876 135.387 269.876 135.854C269.876 136.321 270.187 136.789 270.655 136.789Z" fill="#BDCEFA"/>
<path d="M270.654 130.87C270.966 130.87 271.122 130.714 271.278 130.558C271.278 130.558 271.278 130.558 271.278 130.402C271.434 130.091 271.434 129.623 270.966 129.311C270.654 129.155 270.343 129.155 270.187 129.311C269.875 129.467 269.719 129.623 269.719 129.935C269.875 130.402 270.187 130.87 270.654 130.87Z" fill="#BDCEFA"/>
<path d="M493.572 255.18C493.884 255.18 494.039 255.024 494.195 254.713C494.351 254.401 494.195 253.934 493.884 253.622H493.728C493.416 253.467 492.949 253.622 492.637 253.934C492.482 254.246 492.637 254.713 492.949 255.024H493.105C493.261 255.18 493.416 255.18 493.572 255.18ZM487.964 252.065C488.276 252.065 488.431 251.909 488.587 251.597C488.743 251.286 488.587 250.818 488.276 250.507H488.12C487.808 250.351 487.341 250.507 487.029 250.818C486.874 251.13 487.029 251.597 487.341 251.909H487.497C487.653 252.065 487.808 252.065 487.964 252.065ZM482.356 248.949C482.668 248.949 482.823 248.793 482.979 248.482C483.135 248.17 482.979 247.703 482.668 247.391C482.356 247.236 481.733 247.236 481.577 247.703C481.421 248.014 481.421 248.482 481.733 248.793H481.889C482.045 248.949 482.2 248.949 482.356 248.949ZM476.748 245.834C477.06 245.834 477.215 245.678 477.371 245.366C477.527 245.055 477.371 244.587 477.06 244.276H476.904C476.592 244.12 476.125 244.276 475.813 244.587C475.658 244.899 475.813 245.366 476.125 245.678H476.281C476.592 245.834 476.592 245.834 476.748 245.834ZM471.14 242.718C471.452 242.718 471.607 242.562 471.763 242.251C471.919 241.939 471.763 241.472 471.452 241.16H471.296C470.984 241.004 470.517 241.16 470.205 241.472C470.05 241.783 470.205 242.251 470.517 242.562H470.673C470.984 242.718 471.14 242.718 471.14 242.718ZM465.688 239.602C465.999 239.602 466.155 239.447 466.311 239.135C466.467 238.824 466.311 238.356 465.999 238.045C465.688 237.889 465.065 237.889 464.909 238.356C464.753 238.668 464.753 239.135 465.065 239.447H465.22C465.376 239.602 465.532 239.602 465.688 239.602ZM460.08 236.487C460.391 236.487 460.547 236.331 460.703 236.02C460.859 235.708 460.703 235.241 460.391 234.929C460.08 234.773 459.457 234.773 459.301 235.241C459.145 235.552 459.145 236.02 459.457 236.331H459.612C459.768 236.487 459.924 236.487 460.08 236.487ZM454.472 233.371C454.783 233.371 454.939 233.216 455.095 232.904C455.251 232.592 455.095 232.125 454.783 231.814H454.628C454.316 231.658 453.849 231.814 453.537 232.125C453.381 232.437 453.537 232.904 453.849 233.216H454.004C454.316 233.371 454.316 233.371 454.472 233.371ZM448.864 230.256C449.175 230.256 449.331 230.1 449.487 229.788C449.643 229.477 449.487 229.01 449.175 228.698H449.02C448.708 228.542 448.241 228.698 447.929 229.01C447.773 229.321 447.929 229.788 448.241 230.1H448.396C448.708 230.256 448.864 230.256 448.864 230.256ZM443.412 227.14C443.723 227.14 443.879 226.984 444.035 226.673C444.19 226.361 444.035 225.894 443.723 225.582C443.412 225.427 442.788 225.427 442.633 225.894C442.477 226.205 442.477 226.673 442.944 226.984H443.1C443.1 227.14 443.256 227.14 443.412 227.14ZM437.804 224.025C438.115 224.025 438.271 223.869 438.427 223.557C438.582 223.246 438.427 222.778 438.115 222.467C437.804 222.311 437.18 222.311 437.025 222.778C436.869 223.09 436.869 223.557 437.336 223.869H437.492C437.492 224.025 437.648 224.025 437.804 224.025ZM432.195 220.909C432.507 220.909 432.663 220.753 432.819 220.442C432.974 220.13 432.819 219.663 432.507 219.351C432.195 219.195 431.572 219.195 431.417 219.663C431.261 219.974 431.261 220.442 431.728 220.753H431.884C432.04 220.909 432.04 220.909 432.195 220.909ZM426.587 217.793C426.899 217.793 427.055 217.638 427.211 217.326C427.366 217.015 427.211 216.547 426.899 216.236C426.587 216.08 425.964 216.08 425.809 216.547C425.653 216.859 425.653 217.326 426.12 217.638H426.276C426.432 217.793 426.587 217.793 426.587 217.793ZM421.135 214.834C421.447 214.834 421.603 214.678 421.758 214.366C421.914 214.055 421.758 213.587 421.447 213.276C421.135 213.12 420.512 213.12 420.356 213.587C420.201 213.899 420.201 214.366 420.668 214.678H420.824C420.824 214.678 420.979 214.834 421.135 214.834ZM415.527 211.718C415.839 211.718 415.995 211.562 416.15 211.251C416.306 210.939 416.15 210.472 415.839 210.16C415.527 210.005 414.904 210.005 414.748 210.472C414.593 210.783 414.593 211.251 415.06 211.562H415.216C415.216 211.562 415.371 211.718 415.527 211.718ZM409.919 208.603C410.231 208.603 410.387 208.447 410.542 208.135C410.698 207.824 410.542 207.356 410.231 207.045H410.075C409.763 206.889 409.296 207.045 408.985 207.356C408.829 207.668 408.985 208.135 409.296 208.447H409.452C409.763 208.447 409.763 208.603 409.919 208.603ZM404.311 205.487C404.623 205.487 404.779 205.331 404.934 205.02C405.09 204.708 404.934 204.241 404.623 203.929C404.311 203.773 403.688 203.773 403.532 204.241C403.377 204.552 403.377 205.02 403.688 205.331H403.844C404.155 205.331 404.311 205.487 404.311 205.487ZM398.859 202.371C399.171 202.371 399.326 202.216 399.482 201.904C399.638 201.593 399.482 201.125 399.171 200.814H399.015C398.703 200.658 398.236 200.814 397.924 201.125C397.769 201.437 397.924 201.904 398.236 202.216H398.392C398.547 202.216 398.703 202.371 398.859 202.371ZM393.251 199.256C393.562 199.256 393.718 199.1 393.874 198.789C394.03 198.477 393.874 198.01 393.562 197.698H393.407C393.095 197.542 392.628 197.698 392.316 198.01C392.16 198.321 392.316 198.789 392.628 199.1H392.784C392.939 199.256 393.095 199.256 393.251 199.256ZM387.643 196.14C387.954 196.14 388.11 195.985 388.266 195.673C388.422 195.361 388.266 194.894 387.954 194.583C387.643 194.427 387.02 194.427 386.864 194.894C386.708 195.206 386.708 195.673 387.02 195.985H387.176C387.331 196.14 387.487 196.14 387.643 196.14ZM382.035 193.025C382.346 193.025 382.502 192.869 382.658 192.557C382.814 192.246 382.658 191.779 382.346 191.467C382.035 191.311 381.412 191.311 381.256 191.779C381.1 192.09 381.1 192.557 381.412 192.869H381.568C381.879 193.025 382.035 193.025 382.035 193.025ZM376.583 189.909C376.894 189.909 377.05 189.753 377.206 189.442C377.362 189.13 377.206 188.663 376.894 188.351H376.738C376.427 188.196 375.96 188.351 375.648 188.663C375.492 188.975 375.648 189.442 375.96 189.753H376.115C376.271 189.909 376.427 189.909 376.583 189.909ZM370.975 186.794C371.286 186.794 371.442 186.638 371.598 186.326C371.754 186.015 371.598 185.547 371.286 185.236H371.13C370.819 185.08 370.352 185.236 370.04 185.547C369.884 185.859 370.04 186.326 370.352 186.638H370.507C370.663 186.794 370.819 186.794 370.975 186.794ZM365.367 183.678C365.678 183.678 365.834 183.522 365.99 183.211C366.146 182.899 365.99 182.432 365.678 182.12C365.367 181.964 364.744 181.964 364.588 182.432C364.432 182.743 364.432 183.211 364.744 183.522H364.899C365.055 183.678 365.211 183.678 365.367 183.678ZM359.759 180.562C360.07 180.562 360.226 180.407 360.382 180.095C360.538 179.784 360.382 179.316 360.07 179.005C359.759 178.849 359.135 178.849 358.98 179.316C358.824 179.628 358.824 180.095 359.135 180.407H359.291C359.603 180.562 359.759 180.562 359.759 180.562ZM354.306 177.447C354.618 177.447 354.774 177.291 354.93 176.98C355.085 176.668 354.929 176.201 354.618 175.889H354.462C354.151 175.733 353.683 175.889 353.372 176.201C353.216 176.512 353.372 176.98 353.683 177.291H353.839C353.995 177.447 354.151 177.447 354.306 177.447ZM348.698 174.331C349.01 174.331 349.166 174.176 349.321 173.864C349.477 173.552 349.321 173.085 349.01 172.774H348.854C348.543 172.618 348.075 172.774 347.764 173.085C347.608 173.397 347.764 173.864 348.075 174.176H348.231C348.387 174.331 348.543 174.331 348.698 174.331ZM343.09 171.216C343.402 171.216 343.558 171.06 343.713 170.748C343.869 170.437 343.713 169.97 343.402 169.658C343.09 169.502 342.467 169.502 342.311 169.97C342.156 170.281 342.156 170.748 342.467 171.06H342.623C342.779 171.216 342.935 171.216 343.09 171.216ZM337.482 168.1C337.794 168.1 337.95 167.944 338.105 167.633C338.261 167.321 338.105 166.854 337.794 166.542C337.482 166.387 336.859 166.387 336.703 166.854C336.548 167.166 336.548 167.633 336.859 167.944H337.015C337.327 168.1 337.482 168.1 337.482 168.1ZM332.03 164.985C332.342 164.985 332.497 164.829 332.653 164.517C332.809 164.206 332.653 163.738 332.342 163.427C332.03 163.271 331.407 163.271 331.251 163.738C331.095 164.05 331.095 164.517 331.563 164.829H331.719C331.719 164.985 331.874 164.985 332.03 164.985ZM326.422 161.869C326.734 161.869 326.889 161.713 327.045 161.402C327.201 161.09 327.045 160.623 326.734 160.311H326.578C326.266 160.156 325.799 160.311 325.487 160.623C325.332 160.934 325.487 161.402 325.799 161.713H325.955C326.111 161.869 326.266 161.869 326.422 161.869ZM320.814 158.754C321.126 158.754 321.281 158.598 321.437 158.286C321.593 157.975 321.437 157.507 321.126 157.196C320.814 157.04 320.191 157.04 320.035 157.507C319.879 157.819 319.879 158.286 320.347 158.598H320.503C320.503 158.754 320.658 158.754 320.814 158.754ZM315.206 155.638C315.518 155.638 315.673 155.482 315.829 155.171C315.985 154.859 315.829 154.392 315.518 154.08C315.206 153.924 314.583 153.924 314.427 154.392C314.271 154.703 314.271 155.171 314.739 155.482H314.894C315.05 155.638 315.206 155.638 315.206 155.638ZM309.754 152.522C310.065 152.522 310.221 152.367 310.377 152.055C310.533 151.744 310.377 151.276 310.065 150.965C309.754 150.809 309.131 150.809 308.975 151.276C308.819 151.588 308.819 152.055 309.286 152.367H309.442C309.442 152.522 309.598 152.522 309.754 152.522ZM304.146 149.407C304.457 149.407 304.613 149.251 304.769 148.94C304.925 148.628 304.769 148.161 304.457 147.849C304.146 147.693 303.523 147.693 303.367 148.161C303.211 148.472 303.211 148.94 303.678 149.251H303.834C303.834 149.407 303.99 149.407 304.146 149.407ZM298.538 146.291C298.849 146.291 299.005 146.136 299.161 145.824C299.317 145.512 299.161 145.045 298.849 144.733H298.694C298.382 144.578 297.915 144.734 297.603 145.045C297.447 145.357 297.603 145.824 297.915 146.135H298.07C298.226 146.291 298.382 146.291 298.538 146.291ZM292.93 143.176C293.241 143.176 293.397 143.02 293.553 142.708C293.709 142.397 293.553 141.929 293.241 141.618C292.93 141.462 292.307 141.462 292.151 141.929C291.995 142.241 291.995 142.708 292.307 143.02H292.462C292.774 143.176 292.774 143.176 292.93 143.176ZM287.477 140.06C287.789 140.06 287.945 139.904 288.101 139.593C288.256 139.281 288.101 138.814 287.789 138.502C287.478 138.347 286.854 138.347 286.699 138.814C286.543 139.125 286.543 139.593 286.854 139.904H287.01C287.166 140.06 287.322 140.06 287.477 140.06ZM281.87 137.1C282.181 137.1 282.337 136.945 282.493 136.633C282.648 136.321 282.493 135.854 282.181 135.543H282.025C281.714 135.387 281.246 135.543 280.935 135.854C280.779 136.166 280.935 136.633 281.246 136.945H281.402C281.558 136.945 281.714 137.1 281.87 137.1ZM276.261 133.985C276.573 133.985 276.729 133.829 276.885 133.517C277.04 133.206 276.885 132.739 276.573 132.427C276.261 132.271 275.638 132.271 275.483 132.739C275.327 133.05 275.327 133.517 275.638 133.829H275.794C275.95 133.829 276.106 133.985 276.261 133.985Z" fill="#BDCEFA"/>
<path d="M499.025 258.296C499.492 258.296 499.804 257.985 499.804 257.517C499.804 257.205 499.648 256.894 499.337 256.738C499.025 256.582 498.402 256.582 498.246 257.049C498.09 257.361 498.09 257.829 498.401 257.985C498.557 258.14 498.713 258.296 499.025 258.296Z" fill="#BDCEFA"/>
<path d="M499.025 304.718C499.493 304.718 499.804 304.406 499.804 303.939V303.783C499.804 303.315 499.493 303.004 499.025 303.004C498.558 303.004 498.246 303.315 498.246 303.783V303.939C498.246 304.25 498.558 304.718 499.025 304.718ZM499.025 298.019C499.493 298.019 499.804 297.707 499.804 297.24V297.084C499.804 296.617 499.493 296.305 499.025 296.305C498.558 296.305 498.246 296.617 498.246 297.084V297.24C498.246 297.707 498.558 298.019 499.025 298.019ZM499.025 291.476C499.493 291.476 499.804 291.165 499.804 290.697V290.542C499.804 290.074 499.493 289.763 499.025 289.763C498.558 289.763 498.246 290.074 498.246 290.542V290.697C498.246 291.009 498.558 291.476 499.025 291.476ZM499.025 284.778C499.493 284.778 499.804 284.466 499.804 283.999V283.843C499.804 283.376 499.493 283.064 499.025 283.064C498.558 283.064 498.246 283.376 498.246 283.843V283.999C498.246 284.466 498.558 284.778 499.025 284.778ZM499.025 278.235C499.493 278.235 499.804 277.924 499.804 277.456V277.301C499.804 276.833 499.493 276.522 499.025 276.522C498.558 276.522 498.246 276.833 498.246 277.301V277.456C498.246 277.768 498.558 278.235 499.025 278.235ZM499.025 271.537C499.493 271.537 499.804 271.225 499.804 270.758V270.602C499.804 270.135 499.493 269.823 499.025 269.823C498.558 269.823 498.246 270.135 498.246 270.602V270.758C498.246 271.225 498.558 271.537 499.025 271.537ZM499.025 264.994C499.493 264.994 499.804 264.682 499.804 264.215V264.059C499.804 263.592 499.493 263.28 499.025 263.28C498.558 263.28 498.246 263.592 498.246 264.059V264.215C498.246 264.527 498.558 264.994 499.025 264.994Z" fill="#BDCEFA"/>
<path d="M499.025 311.261C499.492 311.261 499.804 310.949 499.804 310.482C499.804 310.014 499.492 309.702 499.025 309.702C498.557 309.702 498.246 310.014 498.246 310.482C498.246 310.793 498.557 311.261 499.025 311.261Z" fill="#BDCEFA"/>
<path d="M596.541 341.948C596.697 341.948 596.853 341.793 596.853 341.637V279.326L596.697 279.17L560.089 259.853C559.934 259.697 559.622 259.853 559.622 260.009C559.466 260.165 559.622 260.476 559.778 260.476L596.074 279.793V341.637C596.23 341.793 596.386 341.948 596.541 341.948Z" fill="#BDCEFA"/>
<path d="M570.215 442.114C570.682 442.114 570.994 441.802 570.994 441.335V441.179C570.994 440.712 570.682 440.4 570.215 440.4C569.747 440.4 569.436 440.712 569.436 441.179C569.436 441.647 569.903 442.114 570.215 442.114ZM570.215 435.727C570.682 435.727 570.994 435.415 570.994 434.948V434.792C570.994 434.325 570.682 434.013 570.215 434.013C569.747 434.013 569.436 434.325 569.436 434.792V434.948C569.436 435.415 569.903 435.727 570.215 435.727ZM570.215 429.34C570.682 429.34 570.994 429.029 570.994 428.561V428.405C570.994 427.938 570.682 427.627 570.215 427.627C569.747 427.627 569.436 427.938 569.436 428.405C569.436 428.873 569.903 429.34 570.215 429.34ZM570.215 422.953C570.682 422.953 570.994 422.642 570.994 422.174V422.019C570.994 421.551 570.682 421.24 570.215 421.24C569.747 421.24 569.436 421.551 569.436 422.019V422.174C569.436 422.642 569.903 422.953 570.215 422.953ZM570.215 416.566C570.682 416.566 570.994 416.255 570.994 415.787V415.632C570.994 415.164 570.682 414.853 570.215 414.853C569.747 414.853 569.436 415.164 569.436 415.632C569.436 416.099 569.903 416.566 570.215 416.566ZM570.215 410.179C570.682 410.179 570.994 409.868 570.994 409.4V409.245C570.994 408.777 570.682 408.466 570.215 408.466C569.747 408.466 569.436 408.777 569.436 409.245C569.436 409.712 569.903 410.179 570.215 410.179ZM570.215 403.792C570.682 403.792 570.994 403.481 570.994 403.014V402.858C570.994 402.39 570.682 402.079 570.215 402.079C569.747 402.079 569.436 402.39 569.436 402.858V403.014C569.436 403.481 569.903 403.792 570.215 403.792ZM570.215 397.406C570.682 397.406 570.994 397.094 570.994 396.627V396.471C570.994 396.004 570.682 395.692 570.215 395.692C569.747 395.692 569.436 396.004 569.436 396.471C569.436 396.938 569.903 397.406 570.215 397.406ZM570.215 391.019C570.682 391.019 570.994 390.707 570.994 390.24V390.084C570.994 389.617 570.682 389.305 570.215 389.305C569.747 389.305 569.436 389.617 569.436 390.084V390.24C569.436 390.707 569.903 391.019 570.215 391.019ZM570.215 384.632C570.682 384.632 570.994 384.32 570.994 383.853V383.697C570.994 383.23 570.682 382.918 570.215 382.918C569.747 382.918 569.436 383.23 569.436 383.697C569.436 384.164 569.903 384.632 570.215 384.632ZM570.215 378.245C570.682 378.245 570.994 377.933 570.994 377.466V377.31C570.994 376.843 570.682 376.531 570.215 376.531C569.747 376.531 569.436 376.843 569.436 377.31V377.466C569.436 377.933 569.903 378.245 570.215 378.245ZM570.215 371.858C570.682 371.858 570.994 371.546 570.994 371.079V370.923C570.994 370.456 570.682 370.144 570.215 370.144C569.747 370.144 569.436 370.456 569.436 370.923V371.079C569.436 371.546 569.903 371.858 570.215 371.858ZM570.215 365.471C570.682 365.471 570.994 365.159 570.994 364.692V364.536C570.994 364.069 570.682 363.757 570.215 363.757C569.747 363.757 569.436 364.069 569.436 364.536C569.436 365.004 569.903 365.471 570.215 365.471ZM570.215 359.084C570.682 359.084 570.994 358.773 570.994 358.305V358.149C570.994 357.682 570.682 357.371 570.215 357.371C569.747 357.371 569.436 357.682 569.436 358.149V358.305C569.436 358.773 569.903 359.084 570.215 359.084ZM570.215 352.697C570.682 352.697 570.994 352.386 570.994 351.918V351.763C570.994 351.295 570.682 350.984 570.215 350.984C569.747 350.984 569.436 351.295 569.436 351.763V351.918C569.436 352.386 569.903 352.697 570.215 352.697ZM570.215 346.31C570.682 346.31 570.994 345.999 570.994 345.531V345.376C570.994 344.908 570.682 344.597 570.215 344.597C569.747 344.597 569.436 344.908 569.436 345.376V345.531C569.436 345.999 569.903 346.31 570.215 346.31ZM570.215 339.923C570.682 339.923 570.994 339.612 570.994 339.144V338.989C570.994 338.521 570.682 338.21 570.215 338.21C569.747 338.21 569.436 338.521 569.436 338.989V339.144C569.436 339.612 569.903 339.923 570.215 339.923ZM570.215 333.536C570.682 333.536 570.994 333.225 570.994 332.758V332.602C570.994 332.134 570.682 331.823 570.215 331.823C569.747 331.823 569.436 332.134 569.436 332.602C569.436 333.069 569.903 333.536 570.215 333.536ZM570.215 327.15C570.682 327.15 570.994 326.838 570.994 326.371V326.215C570.994 325.748 570.682 325.436 570.215 325.436C569.747 325.436 569.436 325.748 569.436 326.215V326.371C569.436 326.838 569.903 327.15 570.215 327.15ZM570.215 320.763C570.682 320.763 570.994 320.451 570.994 319.984V319.828C570.994 319.361 570.682 319.049 570.215 319.049C569.747 319.049 569.436 319.361 569.436 319.828V319.984C569.436 320.451 569.903 320.763 570.215 320.763ZM570.215 314.376C570.682 314.376 570.994 314.064 570.994 313.597V313.441C570.994 312.974 570.682 312.662 570.215 312.662C569.747 312.662 569.436 312.974 569.436 313.441V313.597C569.436 314.064 569.903 314.376 570.215 314.376ZM570.215 307.989C570.682 307.989 570.994 307.677 570.994 307.21V307.054C570.994 306.587 570.682 306.275 570.215 306.275C569.747 306.275 569.436 306.587 569.436 307.054V307.21C569.436 307.677 569.903 307.989 570.215 307.989ZM570.215 301.602C570.682 301.602 570.994 301.29 570.994 300.823V300.667C570.994 300.2 570.682 299.888 570.215 299.888C569.747 299.888 569.436 300.2 569.436 300.667C569.436 301.135 569.903 301.602 570.215 301.602ZM570.215 295.215C570.682 295.215 570.994 294.903 570.994 294.436V294.28C570.994 293.813 570.682 293.501 570.215 293.501C569.747 293.501 569.436 293.813 569.436 294.28V294.436C569.436 294.903 569.903 295.215 570.215 295.215ZM570.215 288.828C570.682 288.828 570.994 288.517 570.994 288.049V287.893C570.994 287.426 570.682 287.115 570.215 287.115C569.747 287.115 569.436 287.426 569.436 287.893V288.049C569.436 288.517 569.903 288.828 570.215 288.828ZM570.215 282.441C570.682 282.441 570.994 282.13 570.994 281.662V281.507C570.994 281.039 570.682 280.728 570.215 280.728C569.747 280.728 569.436 281.039 569.436 281.507V281.662C569.436 282.13 569.903 282.441 570.215 282.441ZM570.215 276.054C570.682 276.054 570.994 275.743 570.994 275.275V275.12C570.994 274.652 570.682 274.341 570.215 274.341C569.747 274.341 569.436 274.652 569.436 275.12V275.275C569.436 275.743 569.903 276.054 570.215 276.054ZM570.215 269.667C570.682 269.667 570.994 269.356 570.994 268.888V268.733C570.994 268.265 570.682 267.954 570.215 267.954C569.747 267.954 569.436 268.265 569.436 268.733C569.436 269.2 569.903 269.667 570.215 269.667ZM570.215 263.28C570.682 263.28 570.994 262.969 570.994 262.502V262.346C570.994 261.878 570.682 261.567 570.215 261.567C569.747 261.567 569.436 261.878 569.436 262.346V262.502C569.436 262.969 569.903 263.28 570.215 263.28ZM570.215 256.894C570.682 256.894 570.994 256.582 570.994 256.115V255.959C570.994 255.492 570.682 255.18 570.215 255.18C569.747 255.18 569.436 255.492 569.436 255.959V256.115C569.436 256.582 569.903 256.894 570.215 256.894ZM570.215 250.507C570.682 250.507 570.994 250.195 570.994 249.728V249.572C570.994 249.105 570.682 248.793 570.215 248.793C569.747 248.793 569.436 249.105 569.436 249.572V249.728C569.436 250.195 569.903 250.507 570.215 250.507ZM570.215 244.12C570.682 244.12 570.994 243.808 570.994 243.341V243.185C570.994 242.718 570.682 242.406 570.215 242.406C569.747 242.406 569.436 242.718 569.436 243.185V243.341C569.436 243.808 569.903 244.12 570.215 244.12ZM570.215 237.733C570.682 237.733 570.994 237.421 570.994 236.954V236.798C570.994 236.331 570.682 236.019 570.215 236.019C569.747 236.019 569.436 236.331 569.436 236.798C569.436 237.265 569.903 237.733 570.215 237.733ZM570.215 231.346C570.682 231.346 570.994 231.034 570.994 230.567V230.411C570.994 229.944 570.682 229.632 570.215 229.632C569.747 229.632 569.436 229.944 569.436 230.411V230.567C569.436 231.034 569.903 231.346 570.215 231.346ZM570.215 224.959C570.682 224.959 570.994 224.647 570.994 224.18V224.024C570.994 223.557 570.682 223.245 570.215 223.245C569.747 223.245 569.436 223.557 569.436 224.024V224.18C569.436 224.647 569.903 224.959 570.215 224.959ZM570.215 218.572C570.682 218.572 570.994 218.261 570.994 217.793V217.637C570.994 217.17 570.682 216.859 570.215 216.859C569.747 216.859 569.436 217.17 569.436 217.637V217.793C569.436 218.261 569.903 218.572 570.215 218.572ZM570.215 212.185C570.682 212.185 570.994 211.874 570.994 211.406V211.251C570.994 210.783 570.682 210.472 570.215 210.472C569.747 210.472 569.436 210.783 569.436 211.251V211.406C569.436 211.874 569.903 212.185 570.215 212.185ZM567.255 207.668C567.567 207.668 567.722 207.512 567.878 207.2C568.034 206.889 568.034 206.421 567.567 206.11H567.411C567.099 205.954 566.632 205.954 566.32 206.421C566.165 206.733 566.165 207.2 566.632 207.512H566.788C566.943 207.512 567.099 207.668 567.255 207.668ZM561.647 204.396C561.959 204.396 562.27 204.24 562.27 204.085C562.426 203.773 562.426 203.306 562.114 202.994H561.959C561.647 202.838 561.18 202.838 560.868 203.306C560.712 203.617 560.712 204.085 561.18 204.396C561.335 204.396 561.491 204.396 561.647 204.396ZM556.039 201.281C556.35 201.281 556.662 201.125 556.662 200.969C556.818 200.658 556.818 200.19 556.506 199.879H556.35C556.039 199.723 555.572 199.723 555.26 200.19C555.104 200.502 555.104 200.969 555.572 201.281C555.727 201.125 555.883 201.281 556.039 201.281ZM550.587 198.165C550.898 198.165 551.054 198.009 551.21 197.698C551.366 197.386 551.366 196.919 550.898 196.607H550.742C550.431 196.452 549.964 196.452 549.652 196.919C549.496 197.23 549.496 197.698 549.964 198.009H550.119C550.431 198.009 550.431 198.165 550.587 198.165ZM544.979 194.894C545.29 194.894 545.602 194.738 545.602 194.582C545.758 194.271 545.758 193.803 545.446 193.492H545.29C544.979 193.336 544.511 193.336 544.2 193.803C544.044 194.115 544.044 194.582 544.511 194.894C544.667 194.894 544.823 194.894 544.979 194.894ZM539.526 191.778C539.838 191.778 540.15 191.622 540.15 191.467C540.305 191.155 540.305 190.688 539.994 190.376H539.838C539.526 190.22 539.059 190.22 538.748 190.688C538.592 190.999 538.592 191.467 539.059 191.778C539.215 191.622 539.371 191.778 539.526 191.778ZM533.918 188.663C534.23 188.663 534.386 188.507 534.542 188.195C534.697 187.884 534.697 187.416 534.23 187.105H534.074C533.763 186.949 533.295 186.949 532.984 187.416C532.828 187.728 532.828 188.195 533.295 188.507H533.451C533.763 188.663 533.918 188.663 533.918 188.663ZM528.31 185.391C528.622 185.391 528.934 185.236 528.934 185.08C529.089 184.768 529.089 184.301 528.778 183.989H528.622C528.31 183.834 527.843 183.834 527.532 184.301C527.376 184.612 527.376 185.08 527.843 185.391C527.999 185.391 528.155 185.391 528.31 185.391ZM522.858 182.276C523.17 182.276 523.481 182.12 523.481 181.964C523.637 181.653 523.637 181.185 523.326 180.874H523.17C522.858 180.718 522.391 180.718 522.079 181.185C521.923 181.497 521.924 181.964 522.391 182.276C522.547 182.12 522.702 182.276 522.858 182.276ZM517.406 179.16C517.717 179.16 517.873 179.004 518.029 178.693C518.185 178.381 518.185 177.914 517.718 177.602H517.562C517.25 177.447 516.783 177.447 516.471 177.914C516.315 178.226 516.315 178.693 516.783 179.004H516.939C517.094 179.16 517.25 179.16 517.406 179.16ZM511.642 175.889C511.954 175.889 512.265 175.733 512.265 175.577C512.421 175.266 512.421 174.798 512.109 174.487H511.954C511.642 174.331 511.175 174.331 510.863 174.798C510.707 175.11 510.707 175.577 511.175 175.889C511.486 175.889 511.642 175.889 511.642 175.889ZM506.19 172.773C506.501 172.773 506.813 172.618 506.813 172.462C506.969 172.15 506.969 171.683 506.657 171.371H506.501C506.19 171.215 505.723 171.216 505.411 171.683C505.255 171.994 505.255 172.462 505.723 172.773C505.878 172.618 506.034 172.773 506.19 172.773ZM500.738 169.658C501.049 169.658 501.205 169.502 501.361 169.19C501.517 168.879 501.517 168.411 501.049 168.1H500.893C500.582 167.944 500.115 167.944 499.803 168.411C499.647 168.723 499.647 169.19 500.115 169.502H500.27C500.426 169.658 500.582 169.658 500.738 169.658Z" fill="#BDCEFA"/>
<path d="M459.144 215.145C459.456 215.145 459.767 214.989 459.767 214.833C459.923 214.522 459.923 214.054 459.612 213.743H459.456C459.144 213.587 458.677 213.587 458.365 214.055C458.21 214.366 458.21 214.833 458.677 215.145C458.833 215.145 458.988 215.145 459.144 215.145ZM461.792 213.276C462.26 213.276 462.571 212.964 462.571 212.497V212.341C462.571 211.874 462.26 211.562 461.792 211.562C461.325 211.562 461.014 211.874 461.014 212.341V212.497C461.014 212.964 461.325 213.276 461.792 213.276ZM453.692 211.874C454.003 211.874 454.315 211.718 454.315 211.562C454.471 211.25 454.471 210.783 454.159 210.472H454.003C453.692 210.316 453.225 210.316 452.913 210.783C452.757 211.095 452.757 211.562 453.225 211.874C453.38 211.874 453.536 211.874 453.692 211.874ZM448.084 208.758C448.395 208.758 448.707 208.602 448.707 208.446C448.863 208.135 448.863 207.668 448.551 207.356H448.395C448.084 207.2 447.617 207.2 447.305 207.668C447.149 207.979 447.149 208.446 447.617 208.758C447.772 208.758 447.928 208.758 448.084 208.758ZM461.792 206.889C462.26 206.889 462.571 206.577 462.571 206.11V205.954C462.571 205.487 462.26 205.175 461.792 205.175C461.325 205.175 461.014 205.487 461.014 205.954V206.11C461.014 206.577 461.325 206.889 461.792 206.889ZM442.632 205.487C442.943 205.487 443.255 205.331 443.255 205.175C443.411 204.864 443.411 204.396 443.099 204.085H442.943C442.632 203.929 442.164 203.929 441.853 204.396C441.697 204.708 441.697 205.175 442.164 205.487C442.32 205.487 442.476 205.487 442.632 205.487ZM437.179 202.371C437.491 202.371 437.647 202.215 437.803 202.06C437.958 201.748 437.958 201.281 437.491 200.969L437.335 200.813C437.024 200.658 436.556 200.658 436.245 201.125C436.089 201.436 436.089 201.904 436.556 202.215L436.712 202.371C436.868 202.371 437.024 202.371 437.179 202.371ZM461.792 200.502C462.26 200.502 462.571 200.19 462.571 199.723C462.571 199.256 462.26 198.944 461.792 198.944C461.325 198.944 461.014 199.256 461.014 199.723V199.879C461.014 200.19 461.325 200.502 461.792 200.502ZM431.571 199.1C431.883 199.1 432.195 198.944 432.195 198.788C432.35 198.477 432.35 198.009 432.039 197.698L431.883 197.542C431.571 197.386 431.104 197.386 430.793 197.854C430.637 198.165 430.637 198.632 431.104 198.944C431.26 199.1 431.416 199.1 431.571 199.1ZM425.963 195.984C426.275 195.984 426.587 195.828 426.587 195.673C426.742 195.361 426.742 194.894 426.431 194.582L426.275 194.426C425.963 194.271 425.496 194.271 425.185 194.738C425.029 195.05 425.029 195.517 425.496 195.828C425.652 195.828 425.808 195.984 425.963 195.984ZM461.792 194.115C462.26 194.115 462.571 193.803 462.571 193.336V193.18C462.571 192.713 462.26 192.401 461.792 192.401C461.325 192.401 461.014 192.713 461.014 193.18V193.336C461.014 193.803 461.325 194.115 461.792 194.115ZM420.511 192.869C420.823 192.869 420.979 192.713 421.134 192.557C421.29 192.246 421.29 191.778 420.823 191.467L420.667 191.311C420.355 191.155 419.888 191.155 419.577 191.622C419.421 191.934 419.421 192.401 419.888 192.713L420.044 192.869C420.2 192.713 420.355 192.869 420.511 192.869ZM414.903 189.597C415.215 189.597 415.526 189.442 415.526 189.286C415.682 188.974 415.682 188.507 415.371 188.195L415.215 188.04C414.903 187.884 414.436 187.884 414.124 188.351C413.969 188.663 413.969 189.13 414.436 189.442C414.592 189.442 414.747 189.597 414.903 189.597ZM461.792 187.728C462.26 187.728 462.571 187.416 462.571 186.949V186.793C462.571 186.326 462.26 186.014 461.792 186.014C461.325 186.014 461.014 186.326 461.014 186.793V186.949C461.014 187.416 461.325 187.728 461.792 187.728ZM409.451 186.326C409.763 186.326 410.074 186.17 410.074 186.014C410.23 185.703 410.23 185.236 409.918 184.924H409.763C409.451 184.768 408.984 184.768 408.672 185.236C408.516 185.547 408.516 186.014 408.984 186.326C409.139 186.326 409.295 186.326 409.451 186.326ZM403.999 183.21C404.31 183.21 404.466 183.055 404.622 182.743C404.778 182.432 404.778 181.964 404.31 181.653H404.154C403.843 181.497 403.376 181.497 403.064 181.964C402.908 182.276 402.908 182.743 403.376 183.055H403.531C403.687 183.21 403.843 183.21 403.999 183.21ZM398.391 179.939C398.702 179.939 399.014 179.783 399.014 179.628C399.17 179.316 399.17 178.849 398.858 178.537H398.702C398.391 178.381 397.923 178.381 397.612 178.849C397.456 179.16 397.456 179.628 397.923 179.939C398.079 179.939 398.235 179.939 398.391 179.939Z" fill="#BDCEFA"/>
<path d="M70.9479 179.16L127.495 211.874C131.546 214.21 138.867 213.899 143.696 211.251L197.907 179.939C202.736 177.135 203.204 172.929 198.998 170.592L142.45 137.879C138.4 135.542 131.078 135.854 126.249 138.502L72.0383 169.813C67.2092 172.618 66.7419 176.824 70.9479 179.16Z" fill="#E8F2FE"/>
<path d="M68.1448 379.803V175.889C68.4564 177.135 69.2353 178.226 70.7931 179.16L127.341 211.874C129.366 212.964 132.014 213.587 134.818 213.431V418.747C132.014 418.747 129.366 418.28 127.341 417.189L70.7931 384.476C68.768 383.385 67.8333 381.672 68.1448 379.803Z" fill="url(#paint4_linear_874_2368)"/>
<path d="M143.542 211.251L197.753 179.939C200.089 178.693 201.336 176.979 201.647 175.422V379.335C202.114 381.36 200.712 383.697 197.753 385.411L143.542 416.722C141.049 418.124 137.934 418.903 134.818 418.903V213.431C137.934 213.431 141.049 212.653 143.542 211.251Z" fill="#DDDDDD"/>
<path d="M143.542 211.251L197.753 179.939C200.089 178.693 201.336 176.979 201.647 175.422V379.335C202.114 381.36 200.712 383.697 197.753 385.411L143.542 416.722C141.049 418.124 137.934 418.903 134.818 418.903V213.431C137.934 213.431 141.049 212.653 143.542 211.251Z" fill="url(#paint5_linear_874_2368)"/>
<path d="M70.1685 531.375L173.761 589.324C178.279 591.973 186.379 591.661 191.675 588.545L226.102 567.983C231.399 564.867 232.022 560.194 227.349 557.546L124.224 498.35C119.706 495.702 111.605 496.013 106.309 499.129L71.4147 520.782C66.274 524.053 65.6509 528.727 70.1685 531.375Z" fill="#E8F2FE"/>
<path d="M67.209 537.918V527.792C67.5205 529.194 68.4552 530.44 70.1688 531.531L173.761 589.48C175.942 590.726 179.058 591.349 182.173 591.194V603.033C179.058 603.033 176.098 602.566 173.761 601.319L70.1688 543.37C67.8321 541.812 66.8974 539.787 67.209 537.918Z" fill="url(#paint6_linear_874_2368)"/>
<path d="M191.676 588.701L226.103 568.138C228.595 566.736 229.997 564.867 230.464 562.998V573.123C230.932 575.46 229.53 577.952 226.103 579.822L191.676 600.385C188.872 601.942 185.445 602.877 182.017 602.877V591.038C185.445 591.038 189.027 590.259 191.676 588.701Z" fill="url(#paint7_linear_874_2368)"/>
<path d="M27.1735 595.244L130.766 653.193C135.284 655.842 143.384 655.53 148.68 652.415L183.107 631.852C188.404 628.736 189.027 624.063 184.354 621.415L81.2285 562.219C76.7109 559.571 68.6105 559.882 63.314 562.998L28.4197 584.651C23.1233 587.922 22.5002 592.596 27.1735 595.244Z" fill="#E8F2FE"/>
<path d="M24.0581 601.631V591.505C24.3697 592.907 25.3043 594.153 27.0179 595.244L130.61 653.193C132.791 654.44 135.907 655.063 139.022 654.907V666.746C135.907 666.746 132.947 666.279 130.61 665.033L27.0179 607.083C24.6812 605.525 23.7466 603.656 24.0581 601.631Z" fill="url(#paint8_linear_874_2368)"/>
<path d="M148.681 652.415L183.108 631.852C185.6 630.45 187.002 628.58 187.47 626.711V636.837C187.937 639.173 186.535 641.666 183.108 643.535L148.681 664.098C145.877 665.656 142.45 666.59 139.023 666.59V654.751C142.45 654.907 145.877 653.972 148.681 652.415Z" fill="url(#paint9_linear_874_2368)"/>
<path d="M45.3997 431.054L352.594 608.018C366.459 615.963 390.76 615.028 406.805 605.837L594.207 498.039C610.252 488.848 611.965 474.672 598.101 466.728L285.61 292.412C271.746 284.467 247.444 285.402 231.399 294.593L49.2941 399.743C33.4047 408.934 31.5354 423.11 45.3997 431.054Z" fill="#E8F2FE"/>
<path d="M36.3651 428.405V419.993C37.144 424.199 40.2596 428.094 45.4003 431.054L352.595 608.018C359.293 611.912 368.329 613.626 377.831 613.314V626.711C368.484 626.867 359.293 625.309 352.595 621.415L45.4003 444.451C38.2345 440.245 35.2747 434.325 36.3651 428.405Z" fill="url(#paint10_linear_874_2368)"/>
<path d="M406.806 605.681L594.207 498.038C601.841 493.676 606.202 488.068 607.137 482.772V491.184C608.539 498.038 604.177 505.671 594.207 511.435L406.806 619.234C398.55 624.063 387.957 626.555 377.831 626.867V613.47C387.957 613.003 398.55 610.51 406.806 605.681Z" fill="#C9C9C9"/>
<path d="M406.806 605.681L594.207 498.038C601.841 493.676 606.202 488.068 607.137 482.772V491.184C608.539 498.038 604.177 505.671 594.207 511.435L406.806 619.234C398.55 624.063 387.957 626.555 377.831 626.867V613.47C387.957 613.003 398.55 610.51 406.806 605.681Z" fill="url(#paint11_linear_874_2368)"/>
<path d="M333.901 528.415L398.081 565.49L561.181 471.244L497.156 434.169L333.901 528.415Z" fill="white"/>
<path d="M333.901 528.415V555.053L398.082 592.128V565.49L333.901 528.415Z" fill="url(#paint12_linear_874_2368)"/>
<path d="M561.182 471.244V497.882L398.082 592.128V565.49L561.182 471.244Z" fill="url(#paint13_linear_874_2368)"/>
<path d="M467.092 462.677L495.288 478.878C497.313 480.124 500.896 479.968 503.389 478.566L530.338 462.988C532.675 461.586 532.986 459.561 530.961 458.315L502.765 442.114C500.74 440.868 497.157 441.023 494.665 442.425L467.715 458.003C465.379 459.405 465.067 461.586 467.092 462.677Z" fill="#99CFFF"/>
<path d="M465.846 473.425V460.963C466.002 461.586 466.469 462.209 467.248 462.677L495.444 478.878C496.379 479.501 497.781 479.656 499.183 479.656V492.742C497.781 492.742 496.379 492.586 495.444 491.963L467.248 475.762C466.002 475.295 465.69 474.36 465.846 473.425Z" fill="#70C3FF"/>
<path d="M503.233 478.722L530.183 463.144C531.273 462.521 531.897 461.742 532.052 460.807V473.27C532.208 474.36 531.585 475.45 530.183 476.229L503.233 491.807C501.987 492.586 500.429 492.898 498.872 492.898V479.812C500.585 479.812 502.143 479.345 503.233 478.722Z" fill="#249AEF"/>
<path d="M417.554 491.496L445.75 507.697C447.775 508.943 451.358 508.787 453.851 507.385L480.8 491.807C483.137 490.405 483.448 488.38 481.423 487.134L453.227 470.933C451.202 469.687 447.619 469.842 445.127 471.244L418.177 486.822C415.685 488.224 415.373 490.249 417.554 491.496Z" fill="#F9825D"/>
<path d="M416.152 502.244V489.782C416.307 490.405 416.775 491.028 417.554 491.496L445.75 507.697C446.684 508.32 448.086 508.475 449.488 508.475V521.561C448.086 521.561 446.684 521.405 445.75 520.782L417.554 504.581C416.463 503.958 415.996 503.179 416.152 502.244Z" fill="#FF8661"/>
<path d="M453.694 507.385L480.643 491.807C481.734 491.184 482.357 490.405 482.513 489.47V501.933C482.669 503.023 482.045 504.114 480.643 504.892L453.694 520.47C452.448 521.249 450.89 521.561 449.332 521.561V508.475C450.89 508.475 452.448 508.164 453.694 507.385Z" fill="#D56144"/>
<path d="M366.77 520.626L394.966 536.827C396.991 538.073 400.574 537.918 403.066 536.516L430.016 520.938C432.353 519.536 432.664 517.511 430.639 516.264L402.443 500.063C400.418 498.817 396.835 498.973 394.343 500.375L367.393 515.953C365.056 517.355 364.745 519.536 366.77 520.626Z" fill="#98EF7A"/>
<path d="M365.524 531.375V518.913C365.68 519.536 366.147 520.159 366.926 520.626L395.122 536.827C396.056 537.45 397.458 537.606 398.86 537.606V550.691C397.458 550.691 396.056 550.536 395.122 549.912L366.926 533.711C365.68 533.088 365.368 532.309 365.524 531.375Z" fill="#91E873"/>
<path d="M403.066 536.516L430.016 520.938C431.106 520.315 431.73 519.536 431.885 518.601V531.063C432.041 532.154 431.418 533.244 430.016 534.023L403.066 549.601C401.82 550.38 400.262 550.691 398.705 550.691V537.606C400.262 537.606 401.82 537.294 403.066 536.516Z" fill="#68C945"/>
<path d="M100.857 409.868C76.8533 409.868 57.3946 398.639 57.3946 384.787C57.3946 370.936 76.8533 359.707 100.857 359.707C124.86 359.707 144.319 370.936 144.319 384.787C144.319 398.639 124.86 409.868 100.857 409.868Z" fill="white"/>
<path d="M70.1694 402.546C87.1492 412.36 114.566 412.36 131.546 402.546C139.958 397.717 144.164 391.33 144.32 384.943V411.893C144.32 418.28 140.114 424.823 131.546 429.807C114.566 439.622 87.1492 439.622 70.1694 429.807C61.6016 424.823 57.3956 418.436 57.3956 411.893V384.943C57.5514 391.33 61.7574 397.717 70.1694 402.546Z" fill="url(#paint14_linear_874_2368)"/>
<path d="M100.858 365.782L74.3754 381.049C88.8628 389.461 112.853 389.461 127.34 381.049C141.827 372.637 141.827 358.772 127.34 350.516C119.24 345.843 107.868 343.506 96.3402 344.285L100.858 365.782Z" fill="#76B5CE"/>
<path d="M127.495 381.049C134.661 376.843 138.4 371.391 138.4 365.783V381.205C138.4 386.813 134.817 392.421 127.495 396.627C113.008 405.039 89.0182 405.039 74.5308 396.627V381.049C89.0182 389.461 112.852 389.461 127.495 381.049Z" fill="#249AEF"/>
<path d="M100.858 365.782L74.3754 381.049C88.8628 389.461 112.853 389.461 127.34 381.049C141.827 372.637 141.827 358.772 127.34 350.516C119.24 345.843 107.868 343.506 96.3402 344.285L100.858 365.782Z" fill="#99CFFF"/>
<path d="M100.858 349.893L96.4961 328.396C88.0841 329.019 80.451 331.2 74.3757 334.627C59.8883 343.039 59.8883 356.903 74.3757 365.159L100.858 349.893Z" fill="#F97F58"/>
<path d="M100.858 349.893V365.783L74.3756 381.049V365.159L100.858 349.893Z" fill="#D56144"/>
<path d="M63.4705 381.049V349.893C63.4705 355.345 67.2092 360.953 74.375 365.004V380.893V396.471C67.0534 392.421 63.4705 386.657 63.4705 381.049Z" fill="#FF8661"/>
<path d="M190.117 341.793L251.805 306.119C259.127 301.913 258.192 294.592 249.78 289.763C241.368 284.934 228.594 284.311 221.273 288.517L159.585 324.19C152.263 328.396 153.198 335.717 161.61 340.546C170.178 345.376 182.951 345.999 190.117 341.793Z" fill="white"/>
<path d="M161.766 340.546C170.178 345.376 182.952 345.999 190.273 341.793L251.961 306.119C255.077 304.25 256.791 301.913 256.946 299.265V317.491V317.647C256.946 320.295 255.233 322.788 251.961 324.657L190.273 360.33C182.952 364.536 170.178 364.069 161.766 359.084C156.937 356.28 154.6 352.853 154.756 349.426V331.044C154.756 334.471 157.092 337.898 161.766 340.546Z" fill="url(#paint15_linear_874_2368)"/>
<path d="M225.636 300.823C228.751 302.692 233.892 302.692 237.163 300.823C240.279 298.954 240.279 295.994 237.163 294.28C234.048 292.411 228.907 292.411 225.636 294.28C222.364 295.994 222.364 298.954 225.636 300.823Z" fill="#BDCEFA"/>
<path d="M207.72 311.104C210.836 312.974 215.976 312.974 219.248 311.104C222.363 309.235 222.363 306.275 219.248 304.562C216.132 302.692 210.992 302.692 207.72 304.562C204.605 306.275 204.605 309.235 207.72 311.104Z" fill="#BDCEFA"/>
<path d="M189.807 321.386C192.922 323.255 198.063 323.255 201.334 321.386C204.45 319.516 204.45 316.557 201.334 314.843C198.219 312.974 193.078 312.974 189.807 314.843C186.691 316.712 186.691 319.672 189.807 321.386Z" fill="#BDCEFA"/>
<path d="M171.892 331.823C175.007 333.692 180.148 333.692 183.419 331.823C186.535 329.954 186.535 326.994 183.419 325.28C180.304 323.411 175.163 323.411 171.892 325.28C168.776 326.994 168.776 329.954 171.892 331.823Z" fill="#BDCEFA"/>
<path d="M215.976 309.702C213.795 310.014 211.77 308.612 211.458 306.431L207.564 284.31C207.252 282.13 208.654 280.104 210.835 279.793C213.016 279.481 215.041 280.883 215.353 283.064L219.247 305.185C219.559 307.21 218.157 309.235 215.976 309.702Z" fill="#F9AB83"/>
<path d="M233.735 311.104C233.112 313.129 230.775 314.376 228.75 313.753L215.041 309.702C212.86 309.547 211.147 307.677 211.303 305.496C211.458 303.315 213.328 301.602 215.509 301.758L231.087 306.119C233.112 306.743 234.358 308.923 233.735 311.104Z" fill="#F9AB83"/>
<path d="M192.609 376.375C192.609 376.843 192.921 377.31 193.7 377.777C193.856 377.933 193.7 374.973 194.323 375.441C194.479 375.597 203.981 383.074 209.434 381.672C210.057 381.516 210.212 381.049 210.212 380.582V379.335C210.212 377.933 208.343 375.908 205.227 372.948C201.8 369.677 199.775 367.652 194.79 370.456C193.388 371.235 192.765 371.858 192.765 372.481L192.609 376.375Z" fill="#010400"/>
<path d="M205.228 372.948C209.278 376.843 211.459 379.18 209.434 380.426C207.409 381.672 203.203 379.803 198.997 376.531C195.258 373.727 189.806 373.416 194.791 370.456C199.776 367.652 201.957 369.677 205.228 372.948Z" fill="#484968"/>
<path d="M201.177 371.079L200.866 334.627L188.871 338.521L190.896 344.441C190.896 344.441 189.961 352.386 192.454 360.486C192.454 360.486 194.167 364.069 193.856 372.169C193.856 372.169 198.217 374.662 201.177 371.079Z" fill="#F1AC85"/>
<path d="M204.293 366.873C204.293 367.34 204.605 367.808 205.383 368.275C205.539 368.431 205.383 365.471 206.007 365.938C206.162 366.094 215.665 373.571 221.117 372.169C221.74 372.014 221.896 371.546 221.896 371.079V369.833C221.896 368.431 220.027 366.406 216.911 363.446C213.484 360.175 211.459 358.149 206.474 360.953C205.072 361.732 204.449 362.355 204.449 362.979L204.293 366.873Z" fill="#010400"/>
<path d="M216.912 363.446C220.962 367.34 223.143 369.677 221.118 370.923C219.092 372.169 214.886 370.3 210.68 367.029C206.942 364.225 201.489 363.913 206.474 360.953C211.459 358.149 213.484 360.175 216.912 363.446Z" fill="#484968"/>
<path d="M212.861 361.577L212.549 325.124L200.554 329.019L202.58 334.938C202.58 334.938 201.645 342.883 204.137 350.984C204.137 350.984 205.851 354.567 205.539 362.667C205.384 362.511 209.901 365.004 212.861 361.577Z" fill="#E28C66"/>
<path d="M184.509 326.059V339.456C184.509 339.456 200.243 344.752 215.197 326.059V312.974L184.509 326.059Z" fill="#9CE3F0"/>
<path d="M192.143 331.2C192.299 331.356 192.455 331.356 192.61 331.356C195.259 331.511 204.761 329.486 214.264 318.738C215.042 317.803 215.51 316.712 215.51 315.622V285.245C215.51 282.909 214.731 281.351 213.329 280.572L206.163 276.366C204.917 275.587 203.047 275.743 201.022 276.833L191.208 282.441C187.314 284.778 184.043 290.23 184.043 294.903V325.592C184.043 326.371 184.354 326.838 184.666 326.994L192.143 331.2Z" fill="#54A5F8"/>
<path d="M194.79 284.466C194.79 285.245 195.258 286.024 196.193 286.491C198.218 287.582 201.333 287.582 203.358 286.491C204.293 285.868 204.916 285.089 204.76 284.466V277.768C204.76 276.989 204.293 276.21 203.358 275.743C201.333 274.652 198.218 274.652 196.193 275.743C195.258 276.366 194.635 277.145 194.79 277.768V284.466Z" fill="#DD936F"/>
<path d="M195.258 275.12C195.258 276.834 194.167 277.457 192.609 276.678C191.207 275.899 189.961 273.874 189.961 272.16C189.961 270.446 191.051 269.823 192.609 270.602C194.011 271.381 195.258 273.406 195.258 275.12Z" fill="#F9AB83"/>
<path d="M208.811 292.878C208.811 292.878 222.208 280.728 214.107 258.919L207.876 281.506L208.811 292.878Z" fill="#3F4893"/>
<path d="M196.61 280.664C189.16 278.898 184.551 271.427 186.317 263.977C188.083 256.527 195.554 251.919 203.004 253.684C210.454 255.45 215.063 262.921 213.297 270.371C211.531 277.822 204.06 282.43 196.61 280.664Z" fill="#F1AC85"/>
<path d="M203.981 292.878C203.981 292.878 193.7 281.507 200.865 260.321L213.795 264.682C213.795 264.682 218.157 253.778 203.669 250.507C203.669 250.507 194.011 248.326 190.584 256.426C190.584 256.426 182.795 257.049 185.755 273.094C185.599 273.406 186.066 288.517 203.981 292.878Z" fill="#3F4893"/>
<path d="M194.792 318.582C192.767 319.205 190.431 317.959 189.963 315.778L183.888 293.034C183.265 291.009 184.511 288.672 186.692 288.205C188.717 287.582 191.054 288.828 191.521 291.009L197.596 313.753C198.064 315.778 196.973 317.959 194.792 318.582Z" fill="#F9AB83"/>
<path d="M216.912 319.361C216.445 321.541 214.42 322.788 212.239 322.476L193.857 318.737C191.676 318.737 189.807 317.024 189.807 314.843C189.807 312.662 191.52 310.793 193.701 310.793L213.952 314.687C216.133 315.155 217.379 317.18 216.912 319.361Z" fill="#F9AB83"/>
<path d="M466.779 412.361V275.899C466.779 272.472 464.909 269.2 461.95 267.487L297.915 172.929C291.528 169.191 283.428 173.864 283.428 181.341V317.803C283.428 321.23 285.297 324.502 288.257 326.215L452.136 420.773C458.678 424.355 466.779 419.838 466.779 412.361Z" fill="white"/>
<path d="M456.964 418.748C460.08 418.748 463.351 416.255 463.351 412.361V275.899C463.351 273.562 462.105 271.537 460.08 270.291L296.357 175.734C295.422 175.111 294.332 174.799 293.085 174.799C289.97 174.799 286.699 177.291 286.699 181.186V317.648C286.699 319.984 287.945 322.009 289.97 323.256L453.849 417.969C454.783 418.436 455.874 418.748 456.964 418.748Z" fill="url(#paint16_linear_874_2368)"/>
<path d="M466.779 412.36V275.898C466.779 272.471 464.91 269.2 461.95 267.486L297.915 172.929C295.267 171.371 292.152 171.216 289.659 172.306L293.554 170.281C296.514 168.1 300.564 167.633 304.147 169.658L468.025 264.371C470.985 266.084 472.854 269.356 472.854 272.783V409.245C472.854 412.516 471.297 415.32 468.804 417.034H468.648C468.025 417.501 467.246 417.812 466.623 418.124L462.262 420.461C464.91 418.591 466.779 415.787 466.779 412.36Z" fill="url(#paint17_linear_874_2368)"/>
<path d="M452.136 437.441L334.056 505.671C331.096 507.385 327.358 507.385 324.398 505.671L160.363 410.958C153.976 407.22 153.976 397.873 160.363 394.134L278.443 325.903C281.403 324.19 285.142 324.19 288.101 325.903L452.136 420.772C458.679 424.355 458.679 433.702 452.136 437.441Z" fill="white"/>
<path d="M160.364 410.958L324.398 505.671C327.358 507.385 331.096 507.385 334.056 505.671L452.136 437.44C455.408 435.571 456.965 432.3 456.965 429.028V437.908C456.965 441.179 455.408 444.451 452.136 446.32L334.056 514.551C331.096 516.264 327.358 516.264 324.398 514.551L160.519 419.838C157.404 418.124 155.846 415.008 155.69 411.893V411.737C155.69 411.581 155.69 411.27 155.69 411.114V403.013C155.69 406.129 157.248 409.245 160.364 410.958Z" fill="url(#paint18_linear_874_2368)"/>
<path d="M221.584 384.32L362.407 465.481C367.86 468.596 377.518 468.285 383.905 464.546L426.277 440.089C432.663 436.35 433.287 430.898 427.834 427.782L287.011 346.466C281.559 343.35 271.9 343.662 265.513 347.401L223.142 371.858C216.755 375.597 216.132 381.049 221.584 384.32Z" fill="#B8D0F6"/>
<path d="M427.679 429.807L286.855 348.491C281.403 345.376 271.745 345.687 265.358 349.426L222.986 373.883C220.027 375.597 218.313 377.777 217.846 379.958C217.223 377.31 219.092 374.195 222.986 372.014L265.358 347.556C271.745 343.818 281.247 343.506 286.855 346.622L427.679 427.938C430.483 429.652 431.729 431.833 431.262 434.325C430.95 432.456 429.704 430.898 427.679 429.807Z" fill="#99B6E0"/>
<path d="M314.117 383.697L321.594 379.335L329.071 383.697L321.594 388.059L314.117 383.697ZM328.76 392.109L336.237 387.747L343.714 392.109L336.237 396.471L328.76 392.109ZM299.318 375.285L306.795 370.923L314.272 375.285L306.795 379.647L299.318 375.285ZM256.79 379.803L241.212 370.767L248.69 366.406L264.267 375.441L256.79 379.803ZM253.83 363.446L261.308 359.084L268.785 363.446L261.308 367.808L253.83 363.446ZM284.674 366.717L292.152 362.355L299.629 366.717L292.152 371.079L284.674 366.717ZM343.403 400.677L350.88 396.315L358.358 400.677L350.88 405.039L343.403 400.677ZM266.76 376.843L395.433 451.149L387.955 455.511L259.283 381.205L266.76 376.843ZM358.046 409.089L365.523 404.727L373.001 409.089L365.523 413.451L358.046 409.089ZM272.679 365.783L408.051 443.983L400.573 448.345L265.202 370.144L272.679 365.783ZM236.072 373.727L382.815 458.471L375.337 462.832L228.594 378.089L236.072 373.727ZM387.488 426.069L394.965 421.707L402.443 426.069L394.965 430.43L387.488 426.069ZM372.845 417.657L380.322 413.295L387.8 417.657L380.322 422.018L372.845 417.657Z" fill="#99B6E0"/>
<path d="M314.117 382.451L321.594 378.089L329.071 382.451L321.594 386.813L314.117 382.451ZM328.76 390.863L336.237 386.501L343.714 390.863L336.237 395.225L328.76 390.863ZM299.318 373.883L306.795 369.521L314.272 373.883L306.795 378.245L299.318 373.883ZM256.79 378.401L241.212 369.365L248.69 365.004L264.267 374.039L256.79 378.401ZM253.83 362.2L261.308 357.838L268.785 362.2L261.308 366.561L253.83 362.2ZM284.674 365.471L292.152 361.109L299.629 365.471L292.152 369.833L284.674 365.471ZM343.403 399.275L350.88 394.913L358.358 399.275L350.88 403.637L343.403 399.275ZM266.76 375.597L395.433 449.903L387.955 454.265L259.283 379.958L266.76 375.597ZM358.046 407.843L365.523 403.481L373.001 407.843L365.523 412.204L358.046 407.843ZM272.679 364.381L408.051 442.581L400.573 446.943L265.202 368.742L272.679 364.381ZM236.072 372.481L382.815 457.224L375.337 461.586L228.594 376.843L236.072 372.481ZM387.488 424.822L394.965 420.461L402.443 424.822L394.965 429.184L387.488 424.822ZM372.845 416.255L380.322 411.893L387.8 416.255L380.322 420.616L372.845 416.255Z" fill="#E4F2FF"/>
<path d="M306.795 370.3L299.941 374.35L299.318 374.039L306.795 369.677L314.272 374.039L313.649 374.35L306.795 370.3ZM292.152 361.732L285.298 365.783L284.674 365.471L292.152 361.109L299.629 365.471L299.006 365.783L292.152 361.732ZM321.594 378.712L314.74 382.762L314.117 382.451L321.594 378.089L329.071 382.451L328.448 382.762L321.594 378.712ZM263.644 374.506L248.69 365.783L241.835 369.833L241.212 369.521L248.69 365.159L264.267 374.195L263.644 374.506ZM336.237 387.28L329.383 391.33L328.76 391.019L336.237 386.657L343.714 391.019L343.091 391.33L336.237 387.28ZM261.308 358.461L254.453 362.511L253.83 362.2L261.308 357.838L268.785 362.2L268.162 362.511L261.308 358.461ZM236.072 372.481L382.815 457.224L382.192 457.536L235.916 373.104L229.062 377.154L228.438 376.843L236.072 372.481ZM265.825 369.054L265.202 368.742L272.679 364.381L408.051 442.581L407.428 442.893L272.679 365.004L265.825 369.054ZM394.965 421.084L388.111 425.134L387.488 424.822L394.965 420.461L402.443 424.822L401.82 425.134L394.965 421.084ZM259.906 380.27L259.283 379.958L266.76 375.597L395.433 449.903L394.81 450.214L266.76 376.22L259.906 380.27ZM380.166 412.672L373.312 416.722L372.689 416.41L380.166 412.049L387.644 416.41L387.021 416.722L380.166 412.672ZM350.88 395.692L344.026 399.742L343.403 399.431L350.88 395.069L358.358 399.431L357.734 399.742L350.88 395.692ZM365.523 404.104L358.669 408.154L358.046 407.843L365.523 403.481L373.001 407.843L372.378 408.154L365.523 404.104Z" fill="white"/>
<path d="M233.111 431.988L277.041 457.38C279.689 458.938 284.518 458.782 287.634 456.913L297.292 451.305C300.408 449.435 300.719 446.787 298.071 445.074L254.142 419.682C251.493 418.124 246.664 418.28 243.549 420.149L233.89 425.757C230.775 427.627 230.307 430.431 233.111 431.988Z" fill="#B8D0F6"/>
<path d="M298.072 446.476L254.142 421.084C251.494 419.526 246.665 419.682 243.549 421.551L233.891 427.159C232.489 427.938 231.71 429.029 231.399 429.963C231.087 428.561 231.866 427.003 233.891 425.757L243.549 420.149C246.665 418.28 251.494 418.124 254.142 419.682L298.072 445.229C299.63 446.164 300.097 447.255 299.785 448.501C299.474 447.722 299.006 446.943 298.072 446.476Z" fill="#99B6E0"/>
<path d="M309.911 222.467V217.482C309.911 213.12 313.027 211.406 316.765 213.587L433.599 281.039C437.338 283.22 440.453 288.517 440.453 292.878V297.863L309.911 222.467Z" fill="white"/>
<path d="M428.302 284.467C428.302 286.18 429.548 288.361 431.106 289.14C432.664 290.075 433.91 289.296 433.91 287.582C433.91 285.869 432.664 283.688 431.106 282.909C429.392 281.974 428.302 282.597 428.302 284.467Z" fill="white"/>
<path d="M418.643 278.858C418.643 280.572 419.89 282.753 421.448 283.532C423.006 284.467 424.252 283.688 424.252 281.974C424.252 280.261 423.006 278.08 421.448 277.301C419.89 276.366 418.643 277.145 418.643 278.858Z" fill="white"/>
<path d="M408.985 273.25C408.985 274.964 410.231 277.145 411.789 277.924C413.347 278.859 414.593 278.08 414.593 276.366C414.593 274.653 413.347 272.472 411.789 271.693C410.231 270.914 408.985 271.537 408.985 273.25Z" fill="white"/>
<path d="M419.578 310.325L440.297 322.165V303.471L419.578 291.476V310.325Z" fill="white" fill-opacity="0.4"/>
<path d="M393.875 295.371L414.438 307.366V288.517L393.875 276.677V295.371Z" fill="white" fill-opacity="0.9"/>
<path opacity="0.7" d="M368.015 280.416L388.734 292.411V273.562L368.015 261.723V280.416Z" fill="white"/>
<path d="M360.85 276.366L309.911 246.924V243.029L360.85 272.471V276.366Z" fill="url(#paint19_linear_874_2368)"/>
<path d="M360.85 269.044L309.911 239.446V235.552L360.85 264.994V269.044Z" fill="url(#paint20_linear_874_2368)"/>
<path d="M360.85 261.567L309.911 232.125V228.075L360.85 257.672V261.567Z" fill="url(#paint21_linear_874_2368)"/>
<path d="M314.428 289.763L435.779 359.863C438.272 361.265 440.297 359.707 440.297 356.436V333.848C440.297 330.577 438.272 326.682 435.779 325.28L314.428 255.18C311.936 253.778 309.911 255.336 309.911 258.607V281.195C309.911 284.622 311.936 288.361 314.428 289.763Z" fill="white"/>
<path d="M387.021 326.682L402.754 335.873V316.245L387.021 307.054V326.682Z" fill="#99CFFF"/>
<path d="M367.081 315.31L382.971 324.346V307.989L367.081 298.798V315.31Z" fill="#98EF7A"/>
<path d="M347.297 303.783L363.186 312.974V288.984L347.297 279.793V303.783Z" fill="#F97F58"/>
<path d="M318.79 284.934L314.428 282.597V278.547L318.79 281.039V284.934Z" fill="#F97F58"/>
<path d="M318.79 277.613L314.428 275.12V271.225L318.79 273.562V277.613Z" fill="#F97F58"/>
<path d="M318.79 270.135L314.428 267.643V263.748L318.79 266.24V270.135Z" fill="#F97F58"/>
<path d="M342.78 298.954L320.816 286.18V282.285L342.78 294.903V298.954Z" fill="url(#paint22_linear_874_2368)"/>
<path d="M342.78 291.476L320.816 278.703V274.808L342.78 287.582V291.476Z" fill="url(#paint23_linear_874_2368)"/>
<path d="M342.78 283.999L320.816 271.381V267.331L342.78 280.105V283.999Z" fill="url(#paint24_linear_874_2368)"/>
<path d="M431.261 331.2L435.468 333.692V337.587L431.261 335.095V331.2Z" fill="#99CFFF"/>
<path d="M431.261 338.677L435.468 341.014V345.065L431.261 342.572V338.677Z" fill="#99CFFF"/>
<path d="M431.261 345.999L435.468 348.491V352.386L431.261 349.894V345.999Z" fill="#99CFFF"/>
<path d="M407.116 317.336L429.237 329.954V334.004L407.116 321.23V317.336Z" fill="url(#paint25_linear_874_2368)"/>
<path d="M407.116 324.657L429.237 337.431V341.325L407.116 328.552V324.657Z" fill="url(#paint26_linear_874_2368)"/>
<path d="M407.116 332.134L429.237 344.752V348.803L407.116 336.029V332.134Z" fill="url(#paint27_linear_874_2368)"/>
<path d="M318.634 311.416L429.704 375.597C432.041 376.999 433.91 375.441 433.91 372.481C433.91 369.365 432.041 365.783 429.704 364.536L318.634 300.356C316.298 298.954 314.428 300.511 314.428 303.471C314.428 306.431 316.298 310.17 318.634 311.416Z" fill="white"/>
<path d="M434.222 393.978L539.528 454.732C542.8 456.601 545.448 454.576 545.448 450.214V350.672C545.448 346.31 542.8 341.17 539.528 339.3L434.222 278.547C430.951 276.677 428.302 278.703 428.302 283.064V382.607C428.302 387.124 430.951 392.109 434.222 393.978Z" fill="url(#paint28_linear_874_2368)"/>
<path d="M437.493 383.853L536.412 440.868V433.546L437.493 376.375V383.853Z" fill="url(#paint29_linear_874_2368)"/>
<path d="M456.342 338.833C456.342 358.305 470.051 381.983 486.875 391.797C503.699 401.612 517.407 393.667 517.407 374.195C517.407 354.722 503.699 331.044 486.875 321.23C470.051 311.416 456.342 319.361 456.342 338.833Z" fill="url(#paint30_linear_874_2368)"/>
<path d="M218.003 241.316L323.309 302.069C326.58 303.939 329.229 301.913 329.229 297.552V219.818C329.229 215.457 326.58 210.316 323.309 208.447L218.003 147.693C214.732 145.824 212.083 147.849 212.083 152.211V229.944C212.083 234.461 214.732 239.446 218.003 241.316Z" fill="url(#paint31_linear_874_2368)"/>
<path d="M221.272 228.23L320.036 285.401V277.924L221.272 220.909V228.23Z" fill="url(#paint32_linear_874_2368)"/>
<path d="M221.272 213.12L320.036 270.135V262.657L221.272 205.643V213.12Z" fill="url(#paint33_linear_874_2368)"/>
<path d="M291.528 235.863L318.01 251.286V220.597L291.528 205.331V235.863Z" fill="url(#paint34_linear_874_2368)"/>
<path d="M257.413 216.235L283.896 231.502V200.813L257.413 185.547V216.235Z" fill="url(#paint35_linear_874_2368)"/>
<path d="M223.141 196.452L249.779 211.874V181.185L223.141 165.763V196.452Z" fill="url(#paint36_linear_874_2368)"/>
<path d="M514.367 581.456L570.915 614.169C574.965 616.506 582.287 616.194 587.116 613.546L641.327 582.235C646.156 579.431 646.623 575.225 642.417 572.888L585.87 540.174C581.819 537.838 574.498 538.149 569.669 540.798L515.458 572.109C510.784 574.913 510.161 579.119 514.367 581.456Z" fill="#E8F2FE"/>
<path d="M511.719 681.154V578.184C512.03 579.431 512.809 580.521 514.367 581.456L570.914 614.169C572.939 615.26 575.588 615.883 578.392 615.727V720.098C575.588 720.098 572.939 719.631 570.914 718.541L514.367 685.827C512.186 684.581 511.251 682.867 511.719 681.154Z" fill="url(#paint37_linear_874_2368)"/>
<path d="M586.96 613.546L641.171 582.235C643.507 580.988 644.754 579.275 645.065 577.717V680.686C645.532 682.712 644.13 685.048 641.171 686.762L586.96 718.073C584.467 719.475 581.352 720.084 578.236 720.084V615.883C581.352 615.727 584.623 614.948 586.96 613.546Z" fill="url(#paint38_linear_874_2368)"/>
<path d="M165.504 521.872C165.972 522.028 166.127 522.651 166.283 523.43C166.283 523.742 163.791 522.028 163.947 522.807C163.947 523.119 165.816 534.958 161.921 538.852C161.454 539.32 160.987 539.164 160.519 539.008L159.429 538.385C158.183 537.762 157.404 535.114 156.313 530.908C155.067 526.39 154.444 523.586 159.429 520.626C160.831 519.847 161.61 519.536 162.077 519.847L165.504 521.872Z" fill="#010400"/>
<path d="M156.313 531.063C157.715 536.516 158.65 539.631 160.831 538.385C162.856 537.139 163.323 532.621 162.7 527.325C162.077 522.651 164.414 517.822 159.429 520.782C154.444 523.742 155.067 526.546 156.313 531.063Z" fill="#484968"/>
<path d="M124.222 496.169L134.504 499.908L138.71 504.581C138.71 504.581 146.031 507.697 151.795 513.772C151.795 513.772 153.976 517.043 161.297 520.626C161.297 520.626 161.297 525.767 156.78 526.546L127.649 509.722C125.624 508.475 124.222 506.45 124.066 504.114C123.755 502.4 123.755 499.752 124.222 496.169Z" fill="#E28C66"/>
<path d="M145.721 547.577C145.721 548.044 145.409 548.511 144.63 548.979C144.475 549.134 144.63 546.175 144.007 546.642C143.851 546.798 134.349 554.119 129.052 552.873C128.429 552.717 128.274 552.25 128.274 551.783V550.536C128.274 549.134 130.143 547.109 133.258 544.15C136.53 540.878 138.711 538.853 143.696 541.813C145.098 542.592 145.721 543.215 145.721 543.838V547.577Z" fill="#2D0D60"/>
<path d="M133.102 544.149C129.052 548.043 126.871 550.38 128.896 551.626C130.921 552.872 135.127 551.003 139.333 547.732C143.072 544.928 148.524 544.616 143.539 541.656C138.71 538.852 136.529 540.877 133.102 544.149Z" fill="#484968"/>
<path d="M137.152 542.279L137.464 505.983L147.278 509.254L147.434 515.953C147.434 515.953 148.368 523.898 145.876 531.842C145.876 531.842 144.162 535.269 144.474 543.526C144.63 543.37 140.112 545.862 137.152 542.279Z" fill="#F1AC85"/>
<path d="M110.358 491.34C112.383 492.275 114.72 491.34 115.499 489.315L131.077 454.888C132.011 452.863 131.077 450.526 129.052 449.747C127.026 448.812 124.69 449.747 123.911 451.772L108.333 486.199C107.398 488.069 108.333 490.561 110.358 491.34Z" fill="#E28C66"/>
<path d="M108.801 487.445L133.258 473.425V453.642L108.801 467.817V487.445Z" fill="url(#paint39_linear_874_2368)"/>
<path d="M114.875 482.149V467.194L114.252 467.506V482.461L114.875 482.149Z" fill="#A29AFB"/>
<path d="M115.966 477.008V466.571L115.498 466.883V477.32L115.966 477.008Z" fill="#A29AFB"/>
<path d="M117.212 479.657V465.792L116.589 466.104V479.968L117.212 479.657Z" fill="#A29AFB"/>
<path d="M118.302 480.124V465.17L117.835 465.481V480.436L118.302 480.124Z" fill="#A29AFB"/>
<path d="M119.549 469.999V464.39L119.081 464.702V470.31L119.549 469.999Z" fill="#A29AFB"/>
<path d="M153.821 497.415V510.812C153.821 510.812 138.087 516.109 123.288 497.415V484.486L153.821 497.415Z" fill="#FF9100"/>
<path d="M146.654 501.621C146.499 501.777 146.343 501.777 146.187 501.777C143.539 501.933 134.036 499.908 124.534 489.159C123.755 488.224 123.288 487.134 123.288 486.043V455.667C123.288 453.33 124.067 451.772 125.469 450.993L132.634 446.787C133.881 446.008 135.75 446.164 137.775 447.255L147.433 452.863C151.328 455.199 154.599 460.652 154.599 465.169V495.702C154.599 496.481 154.288 496.948 153.976 497.104L146.654 501.621Z" fill="#FFFFEB"/>
<path d="M143.851 455.044C143.851 455.822 143.384 456.601 142.449 457.069C140.424 458.159 137.308 458.159 135.283 457.069C134.349 456.446 133.726 455.667 133.881 455.044V448.345C133.881 447.566 134.349 446.787 135.283 446.32C137.308 445.23 140.424 445.23 142.449 446.32C143.384 446.943 144.007 447.722 143.851 448.345V455.044Z" fill="#DD936F"/>
<path d="M170.801 498.35C172.67 497.415 173.449 494.923 172.514 493.053L155.379 459.094C154.444 457.224 151.951 456.446 150.082 457.38C148.213 458.315 147.434 460.807 148.369 462.677L165.504 496.636C166.439 498.661 168.775 499.44 170.801 498.35Z" fill="#F9AB83"/>
<path d="M126.093 434.169L121.108 453.486C120.641 455.355 122.51 456.913 124.224 456.134L135.596 451.305C136.53 450.838 137.153 449.903 136.998 448.812L133.259 429.808C132.792 427.782 130.143 427.315 129.053 429.029L126.405 433.546C126.249 433.702 126.093 433.858 126.093 434.169Z" fill="#943BBB"/>
<path d="M143.539 445.697C143.539 447.411 144.63 448.034 146.187 447.255C147.59 446.476 148.836 444.451 148.836 442.737C148.836 441.024 147.745 440.4 146.187 441.179C144.63 441.958 143.539 443.984 143.539 445.697Z" fill="#F9AB83"/>
<path d="M138.866 451.617C131.209 451.617 125.002 445.409 125.002 437.752C125.002 430.095 131.209 423.888 138.866 423.888C146.523 423.888 152.73 430.095 152.73 437.752C152.73 445.409 146.523 451.617 138.866 451.617Z" fill="#F9AB83"/>
<path d="M152.419 439.622C152.419 439.622 140.735 446.008 134.972 429.34C134.972 429.34 131.856 436.35 124.379 434.792C124.379 434.792 124.379 423.888 135.75 421.707C135.595 421.707 155.69 419.682 152.419 439.622Z" fill="#943BBB"/>
<path d="M145.877 440.245L140.892 459.561C140.425 461.431 142.294 462.988 144.008 462.209L155.379 457.38C156.314 456.913 156.937 455.978 156.781 454.888L153.043 435.883C152.575 433.858 149.927 433.39 148.837 435.104L146.188 439.622C146.033 439.777 146.033 439.933 145.877 440.245Z" fill="#943BBB"/>
<path d="M256.478 499.44C256.634 500.998 254.141 503.335 250.403 505.516C245.418 508.32 243.704 511.903 237.629 508.475C235.915 507.541 235.136 506.606 235.136 505.983V502.244C234.981 500.531 239.187 499.44 242.769 497.259C247.754 494.455 253.051 492.898 255.543 494.3C256.166 494.611 256.478 495.078 256.478 495.702V499.44Z" fill="black"/>
<path d="M250.403 501.621C255.387 498.817 258.036 495.702 255.543 494.3C253.051 492.898 247.754 494.455 242.769 497.259C237.785 500.063 231.553 501.154 237.629 504.581C243.704 508.008 245.573 504.425 250.403 501.621Z" fill="#2D0D60"/>
<path d="M242.769 489.938C242.925 491.496 240.433 493.832 236.694 496.013C231.709 498.817 229.996 502.4 223.92 498.973C222.207 498.038 221.428 497.104 221.428 496.48V492.742C221.272 491.028 225.478 489.938 229.061 487.757C234.046 484.953 239.342 483.395 241.835 484.797C242.458 485.109 242.769 485.576 242.769 486.199V489.938Z" fill="black"/>
<path d="M236.694 492.119C241.679 489.315 244.327 486.199 241.835 484.797C239.342 483.395 234.046 484.953 229.061 487.757C224.076 490.561 217.845 491.651 223.92 495.078C229.996 498.661 231.865 494.923 236.694 492.119Z" fill="#2D0D60"/>
<path d="M248.222 376.687C246.352 375.441 243.86 376.064 242.614 377.933L225.79 404.727C224.543 406.596 225.166 409.089 227.036 410.335C228.905 411.581 231.398 410.958 232.644 409.089L249.468 382.295C250.714 380.426 250.091 377.777 248.222 376.687Z" fill="#FCC4B7"/>
<path d="M237.161 405.973L231.709 414.541C229.84 417.501 225.945 418.28 223.141 416.566C220.181 414.697 219.402 410.802 221.116 407.998L226.568 399.431C226.568 399.275 233.422 396.782 237.161 405.973Z" fill="#293677"/>
<path d="M235.292 500.375C235.136 500.063 234.98 499.596 234.98 499.129V456.757C234.98 454.109 237.784 451.928 241.056 451.928C244.483 451.928 247.131 454.109 247.131 456.757V502.867C247.131 503.49 246.664 504.114 246.04 504.269C243.86 505.048 238.252 505.983 235.292 500.375Z" fill="#55D1FF"/>
<path d="M221.584 490.405C221.428 490.094 221.272 489.626 221.272 489.159L222.207 446.787C222.207 444.139 225.011 441.958 228.438 442.114C231.865 442.114 234.513 444.451 234.513 447.099L233.579 493.053C233.579 493.677 233.111 494.3 232.488 494.455C229.996 495.234 224.388 496.169 221.584 490.405Z" fill="#55D1FF"/>
<path d="M245.262 464.39C245.107 464.546 244.951 464.546 244.795 464.546C242.147 464.702 232.333 462.677 222.519 451.616C221.74 450.682 221.273 449.435 221.273 448.501V417.345C221.273 415.008 222.051 413.295 223.453 412.516L230.775 408.31C232.177 407.531 233.891 407.687 236.071 408.777L246.041 414.541C250.091 416.878 253.363 422.642 253.363 427.315V458.626C253.363 459.405 253.051 459.873 252.584 460.184L245.262 464.39Z" fill="#5258A6"/>
<path d="M242.458 416.41C242.458 417.189 241.99 417.968 240.9 418.591C238.875 419.682 235.603 419.682 233.578 418.591C232.488 417.968 232.02 417.189 232.02 416.41V409.556C232.02 408.777 232.488 407.998 233.578 407.375C235.603 406.285 238.875 406.285 240.9 407.375C241.99 407.998 242.458 408.777 242.458 409.556V416.41Z" fill="#F1AC85"/>
<path d="M237.318 412.983C229.489 412.983 223.142 406.637 223.142 398.808C223.142 390.978 229.489 384.632 237.318 384.632C245.147 384.632 251.494 390.978 251.494 398.808C251.494 406.637 245.147 412.983 237.318 412.983Z" fill="#FCC4B7"/>
<path d="M261.93 461.743C264.111 460.964 265.201 458.783 264.422 456.602L253.674 427.627C252.895 425.446 250.714 424.356 248.533 425.135C246.352 425.914 245.262 428.095 246.041 430.275L256.789 459.25C257.568 461.431 259.749 462.522 261.93 461.743Z" fill="#FCC4B7"/>
<path d="M245.572 435.727L242.301 426.069C241.21 422.797 242.924 419.214 246.195 418.124C249.466 417.034 253.049 418.747 254.14 422.018L257.411 431.677C257.411 431.677 255.074 438.531 245.572 435.727Z" fill="#293677"/>
<path fill-rule="evenodd" clip-rule="evenodd" d="M229.216 411.737C233.733 414.386 237.161 412.361 238.407 410.491C241.522 405.662 241.99 408.934 243.859 406.597C246.196 402.702 245.728 397.25 249 394.758C253.829 391.175 252.427 384.165 239.965 380.893C223.296 376.687 216.598 397.717 227.035 409.868C227.814 410.959 228.281 411.27 229.216 411.737Z" fill="#E58800"/>
<path d="M242.302 407.376C243.549 408.622 244.795 408.155 245.262 406.597C245.73 404.883 245.106 402.702 243.86 401.456C242.614 400.209 241.367 400.677 240.9 402.235C240.433 403.793 241.056 406.13 242.302 407.376Z" fill="#FCC4B7"/>
<path d="M314.74 575.305C316.298 576.395 318.635 576.084 319.725 574.37L335.926 551.471C337.016 549.913 336.705 547.576 334.991 546.486C333.433 545.395 331.097 545.707 330.006 547.421L313.805 570.32C312.715 571.878 313.182 574.059 314.74 575.305Z" fill="#FCC4B7"/>
<path d="M325.957 549.757L331.253 542.435C332.967 539.943 336.55 539.319 339.042 541.033C341.535 542.747 342.158 546.33 340.444 548.822L335.148 556.144C334.992 556.299 328.917 558.169 325.957 549.757Z" fill="#BDCEFA"/>
<path d="M344.183 579.199C344.027 579.51 343.715 579.822 343.404 579.978L324.555 590.726C322.53 591.973 319.57 590.726 318.168 588.234C316.61 585.586 317.077 582.626 319.258 581.38L341.067 568.917C341.534 568.606 342.313 568.762 342.625 569.073C344.027 570.631 347.142 574.37 344.183 579.199Z" fill="#5258A6"/>
<path d="M356.645 585.586C356.489 585.897 356.178 586.209 355.866 586.365L337.017 597.113C334.992 598.36 332.032 597.113 330.63 594.621C329.072 591.973 329.54 589.013 331.721 587.767L353.53 575.304C353.997 574.993 354.776 575.148 355.087 575.46C356.489 577.018 359.761 580.757 356.645 585.586Z" fill="#5258A6"/>
<path d="M327.048 618.142C327.203 619.7 323.465 620.635 320.349 622.504C315.987 624.997 311.314 626.399 308.977 625.152C308.354 624.841 308.198 624.374 308.198 623.906V621.414C308.043 620.012 310.223 617.675 313.495 614.559C317.078 610.977 319.414 608.796 324.867 611.911C326.424 612.846 327.048 613.469 327.048 614.092V618.142Z" fill="#010400"/>
<path d="M313.495 614.405C309.133 618.611 306.796 621.103 308.977 622.505C311.158 623.751 315.676 621.882 320.349 618.299C324.399 615.184 330.319 614.872 324.867 611.756C319.414 608.641 317.233 610.822 313.495 614.405Z" fill="#1C1C38"/>
<path d="M317.078 611.289C316.922 610.978 316.766 610.51 316.766 610.199V584.963C316.766 582.626 319.259 580.601 322.219 580.601C325.178 580.601 327.671 582.47 327.671 584.963V613.47C327.671 614.093 327.204 614.56 326.736 614.716C324.555 615.495 319.726 616.274 317.078 611.289Z" fill="#5258A6"/>
<path d="M354.776 587.767C354.62 587.922 354.465 587.922 354.309 587.922C351.972 588.078 343.249 586.209 334.681 576.55C333.902 575.772 333.434 574.681 333.434 573.746V546.174C333.434 544.149 334.213 542.591 335.304 541.968L341.847 538.229C343.093 537.45 344.651 537.606 346.52 538.696L355.399 543.837C358.982 545.862 361.942 551.003 361.942 555.053V582.782C361.942 583.405 361.786 583.872 361.319 584.184L354.776 587.767Z" fill="#FCFDFF"/>
<path d="M340.131 623.751C340.287 625.309 336.548 626.244 333.433 628.113C329.071 630.606 324.397 632.008 322.061 630.761C321.438 630.45 321.282 629.983 321.282 629.515V627.023C321.126 625.621 323.307 623.284 326.578 620.168C330.161 616.586 332.498 614.405 337.95 617.52C339.508 618.455 340.131 619.078 340.131 619.701V623.751Z" fill="#010400"/>
<path d="M326.58 620.168C322.218 624.374 319.881 626.867 322.062 628.269C324.243 629.515 328.761 627.646 333.434 624.063C337.484 620.947 343.404 620.636 337.952 617.52C332.499 614.405 330.163 616.586 326.58 620.168Z" fill="#1C1C38"/>
<path d="M330.008 617.053C329.852 616.741 329.696 616.274 329.696 615.962V590.726C329.696 588.39 332.189 586.365 335.148 586.365C338.108 586.365 340.601 588.234 340.601 590.726V619.234C340.601 619.857 340.133 620.324 339.666 620.48C337.641 621.103 332.656 622.038 330.008 617.053Z" fill="#5258A6"/>
<path d="M353.841 545.239C353.841 545.862 353.374 546.641 352.439 547.108C350.726 548.199 347.766 548.199 345.897 547.108C344.962 546.641 344.495 545.862 344.495 545.239V539.164C344.495 538.541 344.962 537.762 345.897 537.294C347.61 536.204 350.57 536.204 352.439 537.294C353.374 537.762 353.841 538.541 353.841 539.164V545.239Z" fill="#F1AC85"/>
<path d="M349.167 542.28C342.198 542.28 336.549 536.63 336.549 529.662C336.549 522.693 342.198 517.044 349.167 517.044C356.136 517.044 361.785 522.693 361.785 529.662C361.785 536.63 356.136 542.28 349.167 542.28Z" fill="#FCC4B7"/>
<path d="M356.023 539.631C355.244 538.852 353.997 537.294 353.374 535.425C353.374 535.269 353.374 535.269 353.374 535.113V529.038C353.374 527.792 353.063 526.701 352.44 525.611C351.972 524.676 351.038 524.053 349.947 524.053C349.947 524.053 339.822 528.415 336.083 520.159C335.771 519.536 336.083 518.757 336.862 518.601C337.641 518.445 338.575 517.822 339.666 516.109C339.977 515.641 340.445 515.485 340.912 515.641C341.847 515.953 343.716 515.953 345.43 513.928C345.585 513.616 345.897 513.616 346.208 513.616C348.078 513.616 354.776 513.928 358.359 516.576C359.138 517.199 371.6 527.948 357.425 539.631C357.113 539.943 356.334 539.943 356.023 539.631Z" fill="#331202"/>
<path d="M353.373 536.827C353.373 538.385 354.464 539.009 355.71 538.23C356.956 537.451 358.047 535.581 358.047 534.179C358.047 532.621 356.956 531.998 355.71 532.777C354.464 533.4 353.373 535.27 353.373 536.827Z" fill="#FCC4B7"/>
<path d="M317.7 579.978L340.132 592.907L357.424 583.405L334.369 570.319L317.7 579.978Z" fill="#BBBEB5"/>
<path d="M317.7 579.978L314.117 557.39L339.041 571.721L340.132 592.907L317.7 579.978Z" fill="#EAEEF1"/>
<path d="M337.328 583.717C338.886 584.807 341.222 584.496 342.313 582.938L358.514 560.038C359.604 558.481 359.293 556.144 357.735 555.054C356.177 553.963 353.84 554.275 352.75 555.832L336.549 578.732C335.303 580.29 335.77 582.626 337.328 583.717Z" fill="#FCC4B7"/>
<path d="M349.323 559.415L353.841 551.626C355.398 548.978 358.826 548.043 361.474 549.601C364.122 551.159 365.057 554.586 363.499 557.234L358.981 565.023C358.826 564.867 352.906 567.36 349.323 559.415Z" fill="#BDCEFA"/>
<defs>
<linearGradient id="paint0_linear_874_2368" x1="558.556" y1="108.467" x2="631.674" y2="264.618" gradientUnits="userSpaceOnUse">
<stop stop-color="#E4F2FF"/>
<stop offset="0.3075" stop-color="#D7E6FD" stop-opacity="0.6923"/>
<stop offset="0.9993" stop-color="#BDCEFA" stop-opacity="0"/>
</linearGradient>
<linearGradient id="paint1_linear_874_2368" x1="508.866" y1="107.24" x2="453.321" y2="332.808" gradientUnits="userSpaceOnUse">
<stop stop-color="#E4F2FF"/>
<stop offset="0.3075" stop-color="#D7E6FD" stop-opacity="0.6923"/>
<stop offset="0.9993" stop-color="#BDCEFA" stop-opacity="0"/>
</linearGradient>
<linearGradient id="paint2_linear_874_2368" x1="376.375" y1="-3.1223" x2="378.854" y2="124.525" gradientUnits="userSpaceOnUse">
<stop stop-color="#E4F2FF"/>
<stop offset="0.3075" stop-color="#D7E6FD" stop-opacity="0.6923"/>
<stop offset="0.9993" stop-color="#BDCEFA" stop-opacity="0"/>
</linearGradient>
<linearGradient id="paint3_linear_874_2368" x1="556.947" y1="258.659" x2="579.254" y2="423.484" gradientUnits="userSpaceOnUse">
<stop stop-color="#E4F2FF"/>
<stop offset="0.3075" stop-color="#D7E6FD" stop-opacity="0.6923"/>
<stop offset="0.9993" stop-color="#BDCEFA" stop-opacity="0"/>
</linearGradient>
<linearGradient id="paint4_linear_874_2368" x1="50.3249" y1="195.784" x2="160.928" y2="415.431" gradientUnits="userSpaceOnUse">
<stop stop-color="#E4F2FF"/>
<stop offset="0.0555438" stop-color="#E1EFFF"/>
<stop offset="0.6478" stop-color="#C7D7FB"/>
<stop offset="0.9993" stop-color="#BDCEFA"/>
</linearGradient>
<linearGradient id="paint5_linear_874_2368" x1="27.0037" y1="86.7897" x2="205.629" y2="352.65" gradientUnits="userSpaceOnUse">
<stop stop-color="#E4F2FF"/>
<stop offset="0.0555438" stop-color="#E1EFFF"/>
<stop offset="0.6478" stop-color="#C7D7FB"/>
<stop offset="0.9993" stop-color="#BDCEFA"/>
</linearGradient>
<linearGradient id="paint6_linear_874_2368" x1="67.3024" y1="521.799" x2="303.133" y2="703.675" gradientUnits="userSpaceOnUse">
<stop stop-color="#E4F2FF"/>
<stop offset="0.0555438" stop-color="#E1EFFF"/>
<stop offset="0.6478" stop-color="#C7D7FB"/>
<stop offset="0.9993" stop-color="#BDCEFA"/>
</linearGradient>
<linearGradient id="paint7_linear_874_2368" x1="137.136" y1="520.283" x2="220.677" y2="595.993" gradientUnits="userSpaceOnUse">
<stop stop-color="#E4F2FF"/>
<stop offset="0.0555438" stop-color="#E1EFFF"/>
<stop offset="0.6478" stop-color="#C7D7FB"/>
<stop offset="0.9993" stop-color="#BDCEFA"/>
</linearGradient>
<linearGradient id="paint8_linear_874_2368" x1="29.8819" y1="593.437" x2="251.121" y2="749.606" gradientUnits="userSpaceOnUse">
<stop stop-color="#E4F2FF"/>
<stop offset="0.0555438" stop-color="#E1EFFF"/>
<stop offset="0.6478" stop-color="#C7D7FB"/>
<stop offset="0.9993" stop-color="#BDCEFA"/>
</linearGradient>
<linearGradient id="paint9_linear_874_2368" x1="65.2115" y1="584.808" x2="169.324" y2="650.644" gradientUnits="userSpaceOnUse">
<stop stop-color="#E4F2FF"/>
<stop offset="0.0555438" stop-color="#E1EFFF"/>
<stop offset="0.6478" stop-color="#C7D7FB"/>
<stop offset="0.9993" stop-color="#BDCEFA"/>
</linearGradient>
<linearGradient id="paint10_linear_874_2368" x1="6.82151" y1="371.308" x2="401.196" y2="674.961" gradientUnits="userSpaceOnUse">
<stop stop-color="#E4F2FF"/>
<stop offset="0.0555438" stop-color="#E1EFFF"/>
<stop offset="0.6478" stop-color="#C7D7FB"/>
<stop offset="0.9993" stop-color="#BDCEFA"/>
</linearGradient>
<linearGradient id="paint11_linear_874_2368" x1="233.65" y1="591.444" x2="389.946" y2="569.359" gradientUnits="userSpaceOnUse">
<stop stop-color="#E4F2FF"/>
<stop offset="0.0555438" stop-color="#E1EFFF"/>
<stop offset="0.6478" stop-color="#C7D7FB"/>
<stop offset="0.9993" stop-color="#BDCEFA"/>
</linearGradient>
<linearGradient id="paint12_linear_874_2368" x1="336.326" y1="530.986" x2="528.712" y2="721.035" gradientUnits="userSpaceOnUse">
<stop stop-color="#E4F2FF"/>
<stop offset="0.0555438" stop-color="#E1EFFF"/>
<stop offset="0.6478" stop-color="#C7D7FB"/>
<stop offset="0.9993" stop-color="#BDCEFA"/>
</linearGradient>
<linearGradient id="paint13_linear_874_2368" x1="239.345" y1="601.453" x2="529.093" y2="517.333" gradientUnits="userSpaceOnUse">
<stop stop-color="#E4F2FF"/>
<stop offset="0.0555438" stop-color="#E1EFFF"/>
<stop offset="0.6478" stop-color="#C7D7FB"/>
<stop offset="0.9993" stop-color="#BDCEFA"/>
</linearGradient>
<linearGradient id="paint14_linear_874_2368" x1="25.6821" y1="407.805" x2="143.295" y2="411.7" gradientUnits="userSpaceOnUse">
<stop stop-color="#E4F2FF"/>
<stop offset="0.0555438" stop-color="#E1EFFF"/>
<stop offset="0.6478" stop-color="#C7D7FB"/>
<stop offset="0.9993" stop-color="#BDCEFA"/>
</linearGradient>
<linearGradient id="paint15_linear_874_2368" x1="153.994" y1="356.21" x2="245.124" y2="304.414" gradientUnits="userSpaceOnUse">
<stop stop-color="#E4F2FF"/>
<stop offset="0.0555438" stop-color="#E1EFFF"/>
<stop offset="0.6478" stop-color="#C7D7FB"/>
<stop offset="0.9993" stop-color="#BDCEFA"/>
</linearGradient>
<linearGradient id="paint16_linear_874_2368" x1="461.403" y1="296.773" x2="286.698" y2="296.773" gradientUnits="userSpaceOnUse">
<stop stop-color="#A4B7FA"/>
<stop offset="1" stop-color="#ADDDFF"/>
</linearGradient>
<linearGradient id="paint17_linear_874_2368" x1="306.474" y1="152.56" x2="489.513" y2="370.649" gradientUnits="userSpaceOnUse">
<stop stop-color="#E4F2FF"/>
<stop offset="0.0555438" stop-color="#E1EFFF"/>
<stop offset="0.6478" stop-color="#C7D7FB"/>
<stop offset="0.9993" stop-color="#BDCEFA"/>
</linearGradient>
<linearGradient id="paint18_linear_874_2368" x1="109.377" y1="435.27" x2="391.265" y2="472.25" gradientUnits="userSpaceOnUse">
<stop stop-color="#E4F2FF"/>
<stop offset="0.0555438" stop-color="#E1EFFF"/>
<stop offset="0.6478" stop-color="#C7D7FB"/>
<stop offset="0.9993" stop-color="#BDCEFA"/>
</linearGradient>
<linearGradient id="paint19_linear_874_2368" x1="360.913" y1="259.729" x2="309.876" y2="259.729" gradientUnits="userSpaceOnUse">
<stop stop-color="#FCFDFF" stop-opacity="0"/>
<stop offset="0.796875" stop-color="white"/>
</linearGradient>
<linearGradient id="paint20_linear_874_2368" x1="360.913" y1="252.329" x2="309.876" y2="252.329" gradientUnits="userSpaceOnUse">
<stop stop-color="#FCFDFF" stop-opacity="0"/>
<stop offset="0.796875" stop-color="white"/>
</linearGradient>
<linearGradient id="paint21_linear_874_2368" x1="360.913" y1="244.852" x2="309.876" y2="244.852" gradientUnits="userSpaceOnUse">
<stop stop-color="#FCFDFF" stop-opacity="0"/>
<stop offset="0.796875" stop-color="white"/>
</linearGradient>
<linearGradient id="paint22_linear_874_2368" x1="344.873" y1="298.599" x2="306.034" y2="274.729" gradientUnits="userSpaceOnUse">
<stop stop-color="#FCFDFF" stop-opacity="0"/>
<stop offset="0.760417" stop-color="#F97F58"/>
</linearGradient>
<linearGradient id="paint23_linear_874_2368" x1="344.873" y1="291.122" x2="306.034" y2="267.252" gradientUnits="userSpaceOnUse">
<stop stop-color="#FCFDFF" stop-opacity="0"/>
<stop offset="0.760417" stop-color="#F97F58"/>
</linearGradient>
<linearGradient id="paint24_linear_874_2368" x1="344.873" y1="283.644" x2="306.034" y2="259.774" gradientUnits="userSpaceOnUse">
<stop stop-color="#FCFDFF" stop-opacity="0"/>
<stop offset="0.760417" stop-color="#F97F58"/>
</linearGradient>
<linearGradient id="paint25_linear_874_2368" x1="402.137" y1="314.731" x2="446.069" y2="344.515" gradientUnits="userSpaceOnUse">
<stop stop-color="#FCFDFF" stop-opacity="0"/>
<stop offset="0.807292" stop-color="#99CFFF"/>
</linearGradient>
<linearGradient id="paint26_linear_874_2368" x1="402.137" y1="322.053" x2="446.069" y2="351.837" gradientUnits="userSpaceOnUse">
<stop stop-color="#FCFDFF" stop-opacity="0"/>
<stop offset="0.807292" stop-color="#99CFFF"/>
</linearGradient>
<linearGradient id="paint27_linear_874_2368" x1="402.137" y1="329.53" x2="446.069" y2="359.314" gradientUnits="userSpaceOnUse">
<stop stop-color="#FCFDFF" stop-opacity="0"/>
<stop offset="0.807292" stop-color="#99CFFF"/>
</linearGradient>
<linearGradient id="paint28_linear_874_2368" x1="423.802" y1="255.711" x2="542.332" y2="464.189" gradientUnits="userSpaceOnUse">
<stop stop-color="#E4F2FF"/>
<stop offset="0.3075" stop-color="#D7E6FD" stop-opacity="0.6923"/>
<stop offset="0.9993" stop-color="#BDCEFA" stop-opacity="0"/>
</linearGradient>
<linearGradient id="paint29_linear_874_2368" x1="414.653" y1="284.611" x2="498.553" y2="428.594" gradientUnits="userSpaceOnUse">
<stop stop-color="#E4F2FF"/>
<stop offset="0.0555438" stop-color="#E1EFFF"/>
<stop offset="0.6478" stop-color="#C7D7FB"/>
<stop offset="0.9993" stop-color="#BDCEFA"/>
</linearGradient>
<linearGradient id="paint30_linear_874_2368" x1="437.366" y1="271.376" x2="521.266" y2="415.359" gradientUnits="userSpaceOnUse">
<stop stop-color="#E4F2FF"/>
<stop offset="0.0555438" stop-color="#E1EFFF"/>
<stop offset="0.6478" stop-color="#C7D7FB"/>
<stop offset="0.9993" stop-color="#BDCEFA"/>
</linearGradient>
<linearGradient id="paint31_linear_874_2368" x1="212.083" y1="146.997" x2="343.467" y2="287.559" gradientUnits="userSpaceOnUse">
<stop stop-color="#E4F2FF"/>
<stop offset="0.3075" stop-color="#D7E6FD" stop-opacity="0.6923"/>
<stop offset="0.9993" stop-color="white" stop-opacity="0.66"/>
</linearGradient>
<linearGradient id="paint32_linear_874_2368" x1="196.466" y1="187.596" x2="324.837" y2="300.944" gradientUnits="userSpaceOnUse">
<stop stop-color="#E4F2FF"/>
<stop offset="0.0555438" stop-color="#E1EFFF"/>
<stop offset="0.6478" stop-color="#C7D7FB"/>
<stop offset="0.9993" stop-color="#BDCEFA"/>
</linearGradient>
<linearGradient id="paint33_linear_874_2368" x1="204.001" y1="179.062" x2="332.372" y2="292.41" gradientUnits="userSpaceOnUse">
<stop stop-color="#E4F2FF"/>
<stop offset="0.0555438" stop-color="#E1EFFF"/>
<stop offset="0.6478" stop-color="#C7D7FB"/>
<stop offset="0.9993" stop-color="#BDCEFA"/>
</linearGradient>
<linearGradient id="paint34_linear_874_2368" x1="223.744" y1="156.703" x2="352.114" y2="270.051" gradientUnits="userSpaceOnUse">
<stop stop-color="#E4F2FF"/>
<stop offset="0.0555438" stop-color="#E1EFFF"/>
<stop offset="0.6478" stop-color="#C7D7FB"/>
<stop offset="0.9993" stop-color="#BDCEFA"/>
</linearGradient>
<linearGradient id="paint35_linear_874_2368" x1="218.566" y1="162.568" x2="346.936" y2="275.915" gradientUnits="userSpaceOnUse">
<stop stop-color="#E4F2FF"/>
<stop offset="0.0555438" stop-color="#E1EFFF"/>
<stop offset="0.6478" stop-color="#C7D7FB"/>
<stop offset="0.9993" stop-color="#BDCEFA"/>
</linearGradient>
<linearGradient id="paint36_linear_874_2368" x1="213.386" y1="168.433" x2="341.756" y2="281.781" gradientUnits="userSpaceOnUse">
<stop stop-color="#E4F2FF"/>
<stop offset="0.0555438" stop-color="#E1EFFF"/>
<stop offset="0.6478" stop-color="#C7D7FB"/>
<stop offset="0.9993" stop-color="#BDCEFA"/>
</linearGradient>
<linearGradient id="paint37_linear_874_2368" x1="508.442" y1="575.573" x2="638.368" y2="837.472" gradientUnits="userSpaceOnUse">
<stop stop-color="#E4F2FF"/>
<stop offset="0.0555438" stop-color="#E1EFFF"/>
<stop offset="0.6478" stop-color="#C7D7FB"/>
<stop offset="0.9993" stop-color="#BDCEFA"/>
</linearGradient>
<linearGradient id="paint38_linear_874_2368" x1="524.242" y1="524.884" x2="641.945" y2="691.63" gradientUnits="userSpaceOnUse">
<stop stop-color="#E4F2FF"/>
<stop offset="0.0555438" stop-color="#E1EFFF"/>
<stop offset="0.6478" stop-color="#C7D7FB"/>
<stop offset="0.9993" stop-color="#BDCEFA"/>
</linearGradient>
<linearGradient id="paint39_linear_874_2368" x1="105.683" y1="476.546" x2="135.705" y2="464.83" gradientUnits="userSpaceOnUse">
<stop stop-color="#E8E9FF"/>
<stop offset="0.9996" stop-color="#C0C0F6"/>
</linearGradient>
</defs>
</svg>
