<svg width="24" height="24" viewBox="0 0 24 24" fill="none" xmlns="http://www.w3.org/2000/svg">
<path fill-rule="evenodd" clip-rule="evenodd" d="M11.9981 5.83989C10.7793 5.83989 9.58793 6.2013 8.57458 6.87841C7.56122 7.55552 6.7714 8.51792 6.30501 9.64391C5.83861 10.7699 5.71658 12.0089 5.95434 13.2043C6.19211 14.3996 6.779 15.4976 7.64079 16.3594C8.50258 17.2212 9.60056 17.8081 10.7959 18.0459C11.9912 18.2836 13.2302 18.1616 14.3562 17.6952C15.4822 17.2288 16.4446 16.439 17.1217 15.4256C17.7988 14.4122 18.1602 13.2208 18.1602 12.0021C18.1602 10.3678 17.511 8.80039 16.3554 7.64476C15.1997 6.48912 13.6324 5.83989 11.9981 5.83989ZM11.9981 16.0021C11.207 16.002 10.4336 15.7674 9.77584 15.3279C9.11806 14.8884 8.60538 14.2637 8.30264 13.5328C7.9999 12.8019 7.9207 11.9976 8.07504 11.2217C8.22938 10.4458 8.61035 9.73305 9.16975 9.17365C9.72915 8.61425 10.4419 8.23329 11.2178 8.07896C11.9937 7.92462 12.798 8.00384 13.5288 8.30659C14.2597 8.60934 14.8844 9.12202 15.324 9.77981C15.7635 10.4376 15.9981 11.211 15.9981 12.0021C15.9981 13.0629 15.5766 14.0804 14.8265 14.8305C14.0763 15.5806 13.0589 16.0021 11.9981 16.0021Z" fill="#637899"/>
<path d="M19.8448 5.59627C19.8448 6.39155 19.2001 7.03625 18.4048 7.03625C17.6095 7.03625 16.9648 6.39155 16.9648 5.59627C16.9648 4.80099 17.6095 4.15629 18.4048 4.15629C19.2001 4.15629 19.8448 4.80099 19.8448 5.59627Z" fill="#637899"/>
<path fill-rule="evenodd" clip-rule="evenodd" d="M11.9999 0.00195312C8.74101 0.00195312 8.33222 0.0157676 7.0525 0.0741664C5.7752 0.13247 4.90294 0.335296 4.13965 0.631961C3.33896 0.933277 2.61363 1.40562 2.01424 2.01606C1.40367 2.61542 0.93119 3.34076 0.629765 4.1415C0.333341 4.90483 0.130516 5.77711 0.0724508 7.05442C0.0138138 8.33415 0 8.74295 0 12.002C0 15.261 0.0138138 15.6698 0.0724508 16.9495C0.130755 18.2268 0.333579 19.0991 0.630241 19.8624C0.931556 20.6631 1.4039 21.3884 2.01433 21.9878C2.61372 22.5983 3.33905 23.0706 4.13975 23.3719C4.90308 23.6686 5.77535 23.8714 7.0526 23.9297C8.33252 23.9881 8.74117 24.002 12.0001 24.002C15.2591 24.002 15.6679 23.9881 16.9476 23.9297C18.2249 23.8714 19.0972 23.6686 19.8605 23.3719C20.6576 23.0636 21.3816 22.5922 21.9859 21.9879C22.5903 21.3835 23.0617 20.6596 23.37 19.8624C23.6667 19.0991 23.8695 18.2268 23.9278 16.9495C23.9862 15.6696 24 15.261 24 12.002C24 8.743 23.9862 8.33415 23.9278 7.05442C23.8695 5.77711 23.6667 4.90483 23.37 4.14154C23.0687 3.34084 22.5963 2.61551 21.9859 2.01611C21.3865 1.40555 20.6611 0.933103 19.8603 0.631723C19.097 0.335296 18.2247 0.13247 16.9474 0.0744046C15.6677 0.015767 15.2589 0.00195312 11.9999 0.00195312ZM11.9999 2.16416C15.2041 2.16416 15.5836 2.1764 16.849 2.23413C18.019 2.28753 18.6544 2.48297 19.0772 2.64731C19.5985 2.83968 20.0699 3.14642 20.457 3.54498C20.8556 3.93205 21.1623 4.40353 21.3547 4.92474C21.519 5.34759 21.7145 5.98298 21.7678 7.15297C21.8256 8.41837 21.8378 8.79787 21.8378 12.0021C21.8378 15.2064 21.8256 15.5858 21.7678 16.8513C21.7144 18.0213 21.519 18.6566 21.3547 19.0795C21.155 19.597 20.8493 20.067 20.457 20.4593C20.0648 20.8515 19.5948 21.1573 19.0772 21.3569C18.6544 21.5213 18.019 21.7168 16.849 21.7701C15.5839 21.8278 15.2044 21.8401 11.9999 21.8401C8.79547 21.8401 8.41611 21.8278 7.15082 21.7701C5.98084 21.7167 5.3455 21.5212 4.92261 21.3569C4.4014 21.1646 3.92992 20.8578 3.54285 20.4593C3.1443 20.0722 2.83757 19.6007 2.64519 19.0795C2.48086 18.6566 2.28537 18.0213 2.23202 16.8513C2.17429 15.5859 2.16205 15.2064 2.16205 12.0021C2.16205 8.79787 2.17429 8.41847 2.23202 7.15297C2.28542 5.98298 2.48086 5.34764 2.64519 4.92474C2.83759 4.4035 3.14435 3.93201 3.54295 3.54493C3.93002 3.14637 4.40149 2.83964 4.9227 2.64726C5.34555 2.48293 5.98093 2.28744 7.15091 2.23409C8.4163 2.17635 8.7957 2.16416 11.9999 2.16416Z" fill="#637899"/>
</svg>
