<svg width="112" height="80" viewBox="0 0 112 80" fill="none" xmlns="http://www.w3.org/2000/svg">
<g clip-path="url(#clip0_874_2684)">
<path d="M63.0119 23.6109C62.7701 23.2289 62.625 22.7514 62.625 22.2739C62.625 21.7965 62.7701 21.1758 63.0119 20.7938C64.3658 18.5974 66.5902 15.2551 68.6695 12.3903C70.6037 9.66875 69.6366 8.85704 68.9112 8.04535C68.1859 7.28139 67.5573 6.75618 66.8803 6.27871C65.0912 5.08504 64.1241 6.94716 64.1241 6.94716C64.1241 6.94716 56.6773 18.7884 55.5168 20.4596C55.0816 21.0803 54.9365 21.6532 54.8882 22.2262C54.9365 22.7514 55.0816 23.3721 55.5168 23.9928C56.6773 25.664 64.3658 37.9349 64.3658 37.9349C64.3658 37.9349 65.2362 39.5583 66.8803 38.1737C67.6056 37.553 68.1375 37.1233 68.9112 36.407C69.7333 35.6908 70.652 34.7359 68.6695 32.0621C66.5902 29.1495 64.3658 25.8072 63.0119 23.6109Z" fill="#56B8FF"/>
<path d="M111.319 23.6108C111.319 23.5631 111.319 23.5631 111.319 23.6108C111.27 22.8469 111.029 21.9875 110.4 21.128C108.756 18.7884 97.4408 0.740053 97.4408 0.740053C97.4408 0.740053 96.4736 -1.07433 94.2493 0.978787C93.3305 1.83823 93.9108 1.26527 92.8953 2.36345C91.8315 3.50938 90.9611 5.84898 93.7657 9.66874C96.7638 13.775 99.8585 18.5019 101.793 21.6055C102.131 22.1307 102.276 22.8469 102.276 23.5154C102.276 23.5154 102.276 23.6108 102.276 23.6586C102.276 23.7063 102.276 23.7541 102.276 23.8018C102.276 24.4703 102.131 25.1865 101.793 25.7117C99.8585 28.863 96.7638 33.5422 93.7657 37.6485C91.0095 41.4682 91.8315 43.8078 92.8953 44.9537C93.9108 46.0519 93.3305 45.479 94.2493 46.3384C96.4736 48.3915 97.4408 46.5771 97.4408 46.5771C97.4408 46.5771 108.756 28.5288 110.4 26.1892C110.98 25.3297 111.27 24.4703 111.319 23.7063C111.319 23.6586 111.319 23.6586 111.319 23.6108Z" fill="#56B8FF"/>
<path d="M48.9885 41.0863H49.9072L53.2921 55.9356H53.3405L54.8878 48.5348L56.8221 40.0836H58.1276L53.9207 58.0365H52.6151L50.7293 49.7762L49.472 43.5214L48.2148 49.6807L46.2806 58.0365H44.975L40.7681 40.0836H42.0737L44.0079 48.5348L45.5552 55.9356H45.6036L48.9885 41.0863Z" fill="#252525"/>
<path d="M59.2886 53.1184V49.3941C59.2886 45.5744 60.6909 44.333 63.6406 44.333C66.5902 44.333 67.9925 45.4789 67.9925 49.4419V53.0707C67.9925 56.8427 66.5902 58.1796 63.6406 58.1796C60.6909 58.2273 59.2886 57.0814 59.2886 53.1184ZM66.832 53.0707V49.4896C66.832 46.5771 66.3485 45.4311 63.6406 45.4311C61.0777 45.4311 60.4491 46.5771 60.4491 49.4419V53.0229C60.4491 55.9355 60.9327 57.1292 63.6406 57.1292C66.2034 57.1292 66.832 55.9355 66.832 53.0707Z" fill="#252525"/>
<path d="M72.2479 44.333L72.2962 45.9564C72.8765 44.8582 74.2788 44.0465 75.9712 44.333V45.4312C73.892 45.097 72.3929 46.4339 72.3929 48.3438V57.9887H71.2324V44.2853H72.2479V44.333Z" fill="#252525"/>
<path d="M86.0288 58.0363L81.0965 51.2562H79.7909V58.0363H78.582V40.1312H79.7909V50.1103H81.0965L85.4968 44.3329H86.8991L82.0636 50.731L87.4794 58.0841H86.0288V58.0363Z" fill="#252525"/>
<path d="M9.19219 65.6282C9.19219 63.4318 7.74153 62.6201 5.66224 62.6201C3.19612 62.6201 1.84217 63.3841 1.84217 66.2967C1.84217 69.5434 3.77638 69.4957 6.58099 69.8299C9.24054 70.1642 10.7879 71.883 10.7879 74.5091C10.7879 78.9018 8.66028 79.9045 5.51718 79.9045C2.32572 79.9045 0.681641 78.5199 0.681641 75.655H1.79382C1.79382 77.8514 3.05105 78.8063 5.51718 78.8063C8.51521 78.8063 9.57902 77.6127 9.57902 74.5091C9.57902 71.3101 7.30633 70.9281 4.59843 70.6894C2.71257 70.4984 0.681641 69.6867 0.681641 66.3444C0.681641 62.9544 2.37408 61.6174 5.66224 61.6174C8.22508 61.6174 10.1593 62.4769 10.3044 65.6759H9.19219V65.6282Z" fill="#252525"/>
<path d="M13.3022 74.7955V71.0713C13.3022 67.2515 14.7046 66.0101 17.6542 66.0101C20.6039 66.0101 22.0062 67.156 22.0062 71.119V74.7478C22.0062 78.5198 20.6039 79.8567 17.6542 79.8567C14.7046 79.9045 13.3022 78.7585 13.3022 74.7955ZM20.8457 74.7478V71.1668C20.8457 68.2542 20.3621 67.1083 17.6542 67.1083C15.0914 67.1083 14.4628 68.2542 14.4628 71.119V74.7C14.4628 77.6126 14.9463 78.8063 17.6542 78.8063C20.2171 78.8063 20.8457 77.6126 20.8457 74.7478Z" fill="#252525"/>
<path d="M28.5343 79.809C25.6813 80 25.1494 78.9973 25.1494 75.9893V61.8562H26.3099V76.037C26.3099 78.4244 26.6001 78.7586 28.5343 78.7586V79.809Z" fill="#252525"/>
<path d="M42.8477 62.9544L44.0082 62.8111V66.0102H46.8612V67.1084H44.0082V75.8938C44.0082 78.4244 44.7819 78.9019 47.0062 78.7586V79.7613C43.8631 80.0478 42.7993 78.9019 42.7993 75.8938V62.9544H42.8477Z" fill="#252525"/>
<path d="M52.1319 62.5723C52.1319 63.6705 50.3911 63.6705 50.3911 62.5723C50.3911 61.5219 52.1319 61.4742 52.1319 62.5723ZM51.8418 79.7135H50.6812V66.0101H51.8418V79.7135Z" fill="#252525"/>
<path d="M55.0332 74.7955V71.0713C55.0332 67.2515 56.4355 66.0101 59.3852 66.0101C62.3348 66.0101 63.7372 67.156 63.7372 71.119V74.7478C63.7372 78.5198 62.3348 79.8567 59.3852 79.8567C56.4355 79.9045 55.0332 78.7585 55.0332 74.7955ZM62.5766 74.7478V71.1668C62.5766 68.2542 62.0931 67.1083 59.3852 67.1083C56.8223 67.1083 56.1937 68.2542 56.1937 71.119V74.7C56.1937 77.6126 56.6773 78.8063 59.3852 78.8063C61.948 78.8063 62.5766 77.6126 62.5766 74.7478Z" fill="#252525"/>
<path d="M78.9686 75.9416C78.9686 77.5172 79.7907 78.6631 82.2084 78.6631C84.3361 78.6631 85.3999 77.6604 85.3999 75.8938C85.3999 73.411 83.4173 73.3632 81.4831 73.1245C79.6456 72.8857 77.8565 72.456 77.8565 69.5912C77.8565 67.3471 79.3071 65.9624 82.1117 65.9624C85.013 65.9624 86.2703 67.3471 86.2703 69.5435H85.1098C85.0614 67.8723 84.2394 67.0129 82.1117 67.0129C79.9841 67.0129 79.0653 67.9678 79.0653 69.5435C79.0653 71.8831 80.7094 71.9308 82.4986 72.1218C84.4811 72.4083 86.6088 72.838 86.6088 75.8461C86.6088 78.2334 85.2065 79.7613 82.2084 79.7613C79.5489 79.7613 77.8081 78.7109 77.8081 75.8938H78.9686V75.9416Z" fill="#252525"/>
<path d="M38.06 66.2489V74.8911C38.06 77.7559 37.4314 78.9496 34.8686 78.9496C32.1607 78.9496 31.6771 77.7559 31.6771 74.8433V66.2011H30.5166V74.8911C30.5166 78.8541 31.9189 80 34.8686 80C37.8183 80 39.2206 78.6631 39.2206 74.8911V66.2011H38.06V66.2489Z" fill="#252525"/>
<path d="M74.0366 79.7612V71.119C74.0366 68.2542 73.408 67.0605 70.8452 67.0605C68.1373 67.0605 67.6537 68.2542 67.6537 71.1668V79.809H66.4932V71.119C66.4932 67.156 67.8955 66.0101 70.8452 66.0101C73.7948 66.0101 75.1972 67.347 75.1972 71.119V79.809H74.0366V79.7612Z" fill="#252525"/>
</g>
<defs>
<clipPath id="clip0_874_2684">
<rect width="112" height="80" fill="white"/>
</clipPath>
</defs>
</svg>
