<svg width="120" height="80" viewBox="0 0 120 80" fill="none" xmlns="http://www.w3.org/2000/svg">
<g clip-path="url(#clip0_1588_304)">
<path d="M51.5625 41.0323C40.2937 41.0323 31.0894 31.828 31.0894 20.5592C31.0894 15.0538 33.2399 9.97851 37.1109 6.10754L45.627 14.6237C44.0786 16.1721 43.1324 18.3226 43.1324 20.5592C43.1324 25.2043 46.9173 28.9893 51.5625 28.9893C56.2076 28.9893 59.9926 25.2043 59.9926 20.5592C59.9926 18.3226 59.1324 16.1721 57.498 14.6237L66.0141 6.10754C69.8851 9.97851 72.0356 15.1398 72.0356 20.5592C72.0356 31.914 62.8313 41.0323 51.5625 41.0323Z" fill="#A3B3CC"/>
<path d="M57.4979 14.6237C55.9496 13.0753 53.799 12.1291 51.5625 12.1291C49.3259 12.1291 47.1754 12.9893 45.627 14.6237L37.1108 6.10756C40.9818 2.2366 46.1431 0.0860596 51.5625 0.0860596C57.0678 0.0860596 62.1431 2.2366 66.0141 6.10756L57.4979 14.6237Z" fill="#DBE3F0"/>
<path d="M10.6167 63.914C8.72421 63.914 7.60593 64.5161 6.3156 65.8925V64.2581V59.6129H4.50915H0.638184V79.1398H4.42313L6.05754 77.5054C7.0898 78.8817 8.55216 79.4839 10.2726 79.4839C14.1436 79.4839 16.7242 76.3871 16.7242 71.6559C16.8102 67.785 15.0038 63.914 10.6167 63.914ZM8.72421 74.9247C7.0898 74.9247 6.22958 73.7204 6.22958 71.5699C6.22958 69.4194 7.0898 68.2151 8.72421 68.2151C10.2726 68.2151 11.2188 69.5054 11.2188 71.5699C11.1328 73.8065 10.2726 74.9247 8.72421 74.9247Z" fill="#A3B3CC"/>
<path d="M18.4448 64.2581H22.5739L18.4448 68.3011V79.0538H21.8857H24.1222V64.2581V62.7957V59.6129H18.4448V64.2581Z" fill="#A3B3CC"/>
<path d="M39.5197 68.5591V64.2581H26.9606V68.5591H32.638L26.3584 74.7527V79.0538H39.6917V74.7527H33.1541L39.5197 68.5591Z" fill="#A3B3CC"/>
<path d="M83.2188 59.0107C78.0575 59.0107 74.7026 63.0538 74.7026 69.1613C74.7026 74.4086 77.4553 79.3978 83.2188 79.3978C88.9822 79.3978 91.6489 74.4946 91.6489 69.1613C91.6489 63.914 88.9822 59.0107 83.2188 59.0107ZM83.2188 74.9247C81.1543 74.9247 80.122 73.1183 80.122 69.4193C80.122 67.1828 80.208 63.5699 83.2188 63.5699C85.2833 63.5699 86.3155 65.3763 86.3155 69.1613C86.2295 72.9462 85.1973 74.9247 83.2188 74.9247Z" fill="#A3B3CC"/>
<path d="M51.9069 67.1828L54.7456 64.3441V59.6129H41.5844V64.3441H43.8209H49.2403L45.6274 67.957L46.5736 70.1075C46.5736 70.1075 50.5306 69.7634 50.8747 72.2581C51.0467 73.2903 50.2725 74.7527 48.3801 74.9247C46.4016 75.0968 44.8532 74.1505 43.8209 72.6882L40.208 75.5269C42.1005 78.5376 44.9392 79.4839 47.7779 79.4839C57.3263 79.3979 58.2725 68.9032 51.9069 67.1828Z" fill="#A3B3CC"/>
<path d="M69.1973 65.6344C67.4769 64.9462 65.8425 65.2043 65.8425 65.2043L69.8855 59.5269H64.036L59.0468 66.2365C57.6704 68.129 57.1543 70.1075 57.1543 72C57.1543 76.043 60.8532 79.3978 65.3263 79.3978C69.8855 79.3978 73.4984 76.043 73.4984 72C73.5844 68.8172 71.6059 66.5806 69.1973 65.6344ZM67.6489 74.0645C67.1328 74.5806 66.4446 75.0107 65.4984 75.0107C64.6382 75.0107 63.95 74.6667 63.3478 74.0645C62.8317 73.5484 62.5737 72.8602 62.5737 72C62.5737 71.1398 62.8317 70.5376 63.3478 69.9355C63.864 69.4193 64.5521 69.1613 65.4984 69.1613C66.3586 69.1613 67.0468 69.4193 67.6489 69.9355C68.165 70.4516 68.4231 71.1398 68.4231 72C68.4231 72.8602 68.165 73.5484 67.6489 74.0645Z" fill="#A3B3CC"/>
<path d="M98.1864 65.4624H94.3154V69.3334H98.1864V65.4624Z" fill="#A3B3CC"/>
<path d="M115.477 59.5268V64.258C115.477 65.2903 115.305 66.2365 114.101 66.2365C113.24 66.2365 112.81 65.7204 112.81 64.9462V59.5268H109.025V65.2903C109.025 67.6989 109.972 69.2472 112.552 69.2472C112.982 69.2472 114.015 69.2472 114.015 69.2472L115.563 67.6989V69.2472H119.176V59.4408H115.477V59.5268Z" fill="#A3B3CC"/>
<path d="M106.014 59.7849C105.068 60.215 104.38 61.1613 104.38 61.1613V59.6129H100.681V69.4193H104.38V65.0322L106.531 62.8817H108.079V61.3333V59.6129C108.079 59.5269 106.961 59.3548 106.014 59.7849Z" fill="#A3B3CC"/>
</g>
<defs>
<clipPath id="clip0_1588_304">
<rect width="119.57" height="80" fill="white" transform="translate(0.379883)"/>
</clipPath>
</defs>
</svg>
