<svg width="204" height="80" viewBox="0 0 204 80" fill="none" xmlns="http://www.w3.org/2000/svg">
<g clip-path="url(#clip0_1588_296)">
<path fill-rule="evenodd" clip-rule="evenodd" d="M1.46729 18H82.8673V50.3529H1.46729V18ZM65.0731 37.9295L58.0849 39.1589C59.4437 43.9471 63.1966 46.3412 69.1496 46.4706C72.4496 46.4706 75.1025 45.7589 77.1084 44.2707C79.1143 42.7824 80.1496 40.8412 80.1496 38.4471C80.1496 36.8942 79.7613 35.6001 78.9202 34.5001C78.079 33.3354 77.0437 32.5589 75.8143 32.1059C74.5849 31.653 72.4496 31.0706 69.5378 30.4883C68.5025 30.2295 67.7907 30.0354 67.4025 29.7765C67.0143 29.5177 66.8202 29.1942 66.8202 28.7412C66.8202 27.7707 67.6613 27.253 69.279 27.253C71.2849 27.253 72.579 28.0942 73.226 29.6471L79.5025 27.8354C77.9496 23.953 74.5849 22.0118 69.6025 22.0118C66.3025 22.0118 63.779 22.7236 62.0319 24.2118C60.2849 25.7001 59.379 27.5765 59.379 29.7765C59.379 31.5236 59.9613 33.0118 61.1908 34.3059C62.4202 35.6001 65.1378 36.6354 69.4731 37.4118C70.5731 37.6706 71.3496 37.9295 71.8025 38.1883C72.2555 38.4471 72.4496 38.8354 72.4496 39.353C72.4496 40.3236 71.479 40.7765 69.6025 40.7765C67.2084 40.7765 65.6555 39.8059 65.0731 37.9295ZM56.3378 45.953V22.3354H46.4378L43.0084 34.8883L39.4496 22.3354H29.6143V45.953H35.2437V29.0648L39.9672 45.953H44.7555L49.3496 29.0648V45.953H56.3378ZM26.8319 37.3471L19.9084 36.9589C19.6496 39.5471 18.5496 40.9059 16.5437 40.9059C15.4437 40.9059 14.6025 40.453 13.9555 39.5471C13.3731 38.6412 13.0496 36.8942 13.0496 34.3059C13.0496 29.6471 14.2143 27.3824 16.6084 27.3824C17.4496 27.3824 18.1613 27.7059 18.8084 28.4177C19.4555 29.1295 19.779 30.2942 19.779 31.8471L26.8319 31.4589C26.5731 28.5471 25.6025 26.2824 23.8555 24.5354C22.1084 22.7883 19.5849 21.9471 16.3496 21.9471C12.8555 21.9471 10.1378 23.1118 8.19663 25.3765C6.25546 27.6412 5.28487 30.6824 5.28487 34.3706C5.28487 38.1236 6.32017 41.0353 8.39075 43.1706C10.4613 45.3059 13.1143 46.3412 16.479 46.3412C19.2613 46.3412 21.5908 45.5648 23.4672 44.0118C25.4084 42.4589 26.5084 40.2589 26.8319 37.3471Z" fill="#A3B3CC"/>
<path d="M198.432 38.4471C198.432 37.6059 198.238 37.0236 197.915 36.7001C197.591 36.3765 197.138 36.2471 196.62 36.2471C195.456 36.2471 194.809 36.9589 194.809 38.4471H198.432ZM198.756 41.8118L203.479 42.1353C203.22 43.4295 202.509 44.4648 201.344 45.3706C200.179 46.2765 198.626 46.7295 196.685 46.7295C194.55 46.7295 192.803 46.0824 191.509 44.853C190.215 43.6236 189.567 42.0706 189.567 40.1942C189.567 38.253 190.215 36.6353 191.509 35.3412C192.803 34.0471 194.485 33.3354 196.62 33.3354C198.691 33.3354 200.309 33.9824 201.603 35.2118C202.897 36.4412 203.479 38.1236 203.479 40.3236C203.479 40.5177 203.479 40.7765 203.479 41.0354H194.873C194.873 41.8765 195.003 42.4589 195.326 42.8471C195.585 43.2353 196.103 43.4295 196.879 43.4295C197.915 43.3648 198.562 42.8471 198.756 41.8118ZM187.626 46.4059H182.579V38.3177C182.579 37.6706 182.45 37.2177 182.256 37.0236C182.062 36.8295 181.803 36.7648 181.479 36.7648C180.573 36.7648 180.12 37.4118 180.12 38.7059V46.4059H175.073V33.5295H179.732V35.3412C180.444 33.9824 181.673 33.2706 183.42 33.2706C184.326 33.2706 185.167 33.4648 185.815 33.7883C186.462 34.1765 186.915 34.6295 187.173 35.2118C187.432 35.7942 187.562 36.7648 187.562 38.1883V46.4059H187.626ZM172.42 46.4059H167.373V33.5295H172.42V46.4059ZM172.42 32.6236H167.373V28.6118H172.42V32.6236ZM165.626 43.1706V46.3412H154.303V43.5589L159.738 36.5707C159.091 36.5707 158.638 36.6353 158.444 36.6353H154.756V33.5295H165.432V36.2471L159.867 43.2354H160.515C160.644 43.2354 160.773 43.2354 160.903 43.2354H165.626V43.1706ZM147.703 40.3883C145.567 40.6471 144.467 41.2942 144.467 42.4589C144.467 43.2353 144.92 43.6236 145.762 43.6236C146.279 43.6236 146.732 43.4295 147.12 43.1706C147.509 42.8471 147.703 42.1354 147.703 41.0354V40.3883ZM152.944 46.4059H148.156C148.026 45.8883 147.962 45.2412 147.962 44.5942C147.056 45.953 145.697 46.6648 143.82 46.6648C142.332 46.6648 141.167 46.2765 140.391 45.5001C139.615 44.7236 139.226 43.8177 139.226 42.8471C139.226 41.4883 139.873 40.3883 141.103 39.5471C142.332 38.7059 144.532 38.1883 147.638 38.0589V37.7353C147.638 37.153 147.509 36.7648 147.25 36.6353C146.991 36.4412 146.603 36.3765 146.15 36.3765C144.985 36.3765 144.338 36.8295 144.209 37.8001L139.615 37.3471C140.262 34.6295 142.526 33.3354 146.344 33.3354C147.379 33.3354 148.35 33.4648 149.191 33.6589C150.032 33.853 150.744 34.1765 151.262 34.6295C151.779 35.0824 152.103 35.5353 152.297 35.9883C152.491 36.5059 152.556 37.4118 152.556 38.8354V43.9471C152.556 44.853 152.685 45.6942 152.944 46.4059ZM129.973 46.2118C129.779 46.2118 129.585 46.2118 129.391 46.2118C128.55 46.2118 128.097 46.4706 128.097 46.9883C128.097 47.5059 128.42 47.8295 129.067 47.9589C129.715 48.0883 130.62 48.153 131.72 48.153C132.756 48.153 133.468 48.0883 133.726 47.8942C134.05 47.7001 134.179 47.5059 134.179 47.1824C134.179 46.9883 134.115 46.7942 133.985 46.6648C133.856 46.5353 133.532 46.4059 133.015 46.4059L129.973 46.2118ZM131.267 38.9C132.238 38.9 132.756 38.3824 132.756 37.3471C132.756 36.3118 132.238 35.7295 131.267 35.7295C130.297 35.7295 129.779 36.2471 129.779 37.3471C129.715 38.3824 130.232 38.9 131.267 38.9ZM138.644 30.6177L138.515 34.0471H138.256C137.803 34.0471 137.479 33.9824 137.285 33.9824C136.509 33.9824 136.056 34.1118 135.862 34.4353C136.832 35.2118 137.285 36.1824 137.285 37.2824C137.285 38.5765 136.767 39.6118 135.732 40.2589C134.697 40.9059 133.273 41.2295 131.462 41.2295C131.397 41.2295 131.203 41.2295 130.815 41.2295C130.426 41.2295 130.232 41.2295 130.232 41.2295C129.391 41.2295 129.003 41.4236 129.003 41.8765C129.003 42.2648 129.391 42.4589 130.103 42.4589L134.244 42.653C135.732 42.7177 136.832 43.1706 137.544 43.9471C138.256 44.7236 138.579 45.6295 138.579 46.6648C138.579 47.8942 138.062 48.9295 137.026 49.7059C135.991 50.4824 133.92 50.8706 130.879 50.8706C126.22 50.8706 123.891 49.7706 123.891 47.6353C123.891 46.4706 124.538 45.6295 125.767 45.1765C124.991 44.5942 124.538 43.9471 124.538 43.1706C124.538 41.8765 125.379 40.9706 126.997 40.3236C125.638 39.7412 124.926 38.7059 124.926 37.3471C124.926 36.053 125.509 35.0824 126.609 34.3706C127.709 33.6589 129.262 33.3354 131.203 33.3354C132.109 33.3354 132.885 33.4001 133.597 33.5942C133.92 31.5883 134.956 30.553 136.767 30.553C137.285 30.4883 137.867 30.553 138.644 30.6177ZM117.809 40.3883C115.673 40.6471 114.573 41.2942 114.573 42.4589C114.573 43.2353 115.026 43.6236 115.867 43.6236C116.385 43.6236 116.838 43.4295 117.226 43.1706C117.615 42.8471 117.809 42.1354 117.809 41.0354V40.3883ZM123.05 46.4059H118.262C118.132 45.8883 118.067 45.2412 118.067 44.5942C117.162 45.953 115.803 46.6648 113.926 46.6648C112.438 46.6648 111.273 46.2765 110.497 45.5001C109.72 44.7236 109.332 43.8177 109.332 42.8471C109.332 41.4883 109.979 40.3883 111.209 39.5471C112.438 38.7059 114.638 38.1883 117.744 38.0589V37.7353C117.744 37.153 117.615 36.7648 117.356 36.6353C117.097 36.4412 116.709 36.3765 116.256 36.3765C115.091 36.3765 114.444 36.8295 114.315 37.8001L109.72 37.3471C110.367 34.6295 112.632 33.3354 116.45 33.3354C117.485 33.3354 118.456 33.4648 119.297 33.6589C120.138 33.853 120.85 34.1765 121.367 34.6295C121.885 35.0824 122.209 35.5353 122.403 35.9883C122.597 36.5059 122.662 37.4118 122.662 38.8354V43.9471C122.662 44.853 122.791 45.6942 123.05 46.4059ZM107.391 46.4059H102.538V38.3824C102.538 37.8648 102.473 37.4765 102.279 37.2824C102.15 37.0883 101.826 36.9589 101.438 36.9589C100.467 36.9589 100.015 37.6706 100.015 39.0295V46.4706H95.1616V38.4471C95.1616 37.4118 94.7734 36.8942 93.9969 36.8942C93.1557 36.8942 92.7675 37.4118 92.7675 38.4471V46.4706H87.9146V33.5295H92.444V35.2765C93.2851 33.9177 94.4498 33.2706 96.0028 33.2706C97.6851 33.2706 98.8498 33.9177 99.6263 35.2765C100.467 33.9177 101.762 33.2706 103.444 33.2706C104.285 33.2706 104.997 33.4648 105.644 33.7883C106.291 34.1118 106.744 34.5648 107.003 35.1471C107.262 35.6648 107.456 36.5059 107.456 37.6706V46.4059H107.391Z" fill="#A3B3CC"/>
<path d="M3.85036 59.9678C3.80992 59.8869 3.77706 59.7429 3.75178 59.5356C3.42572 59.8743 3.03648 60.0436 2.58404 60.0436C2.17963 60.0436 1.84725 59.9299 1.58691 59.7024C1.3291 59.4724 1.2002 59.1817 1.2002 58.8304C1.2002 58.4032 1.36196 58.0721 1.68549 57.8371C2.01155 57.5995 2.46904 57.4807 3.05796 57.4807H3.74041V57.1584C3.74041 56.9132 3.66711 56.7186 3.52051 56.5745C3.37391 56.4279 3.1578 56.3546 2.87219 56.3546C2.62196 56.3546 2.41217 56.4178 2.24282 56.5442C2.07347 56.6706 1.9888 56.8235 1.9888 57.003H1.28361C1.28361 56.7982 1.35564 56.6011 1.49971 56.4115C1.64631 56.2194 1.84346 56.0678 2.09117 55.9566C2.34139 55.8453 2.61564 55.7897 2.91389 55.7897C3.38655 55.7897 3.75684 55.9085 4.02476 56.1461C4.29268 56.3812 4.4317 56.706 4.44181 57.1205V59.0086C4.44181 59.3852 4.48983 59.6847 4.58588 59.9072V59.9678H3.85036ZM2.68641 59.4332C2.90631 59.4332 3.11483 59.3764 3.31198 59.2626C3.50913 59.1489 3.65194 59.001 3.74041 58.819V57.9774H3.19066C2.33128 57.9774 1.9016 58.2288 1.9016 58.7318C1.9016 58.9517 1.9749 59.1236 2.1215 59.2475C2.2681 59.3713 2.4564 59.4332 2.68641 59.4332Z" fill="#A3B3CC"/>
<path d="M8.89287 59.9678H8.19146V58.2162H6.30716V59.9678H5.60196V55.8656H6.30716V57.6437H8.19146V55.8656H8.89287V59.9678Z" fill="#A3B3CC"/>
<path d="M12.5553 59.9678C12.5149 59.8869 12.482 59.7429 12.4567 59.5356C12.1307 59.8743 11.7414 60.0436 11.289 60.0436C10.8846 60.0436 10.5522 59.9299 10.2919 59.7024C10.0341 59.4724 9.90516 59.1817 9.90516 58.8304C9.90516 58.4032 10.0669 58.0721 10.3905 57.8371C10.7165 57.5995 11.174 57.4807 11.7629 57.4807H12.4454V57.1584C12.4454 56.9132 12.3721 56.7186 12.2255 56.5745C12.0789 56.4279 11.8628 56.3546 11.5771 56.3546C11.3269 56.3546 11.1171 56.4178 10.9478 56.5442C10.7784 56.6706 10.6938 56.8235 10.6938 57.003H9.98857C9.98857 56.7982 10.0606 56.6011 10.2047 56.4115C10.3513 56.2194 10.5484 56.0678 10.7961 55.9566C11.0464 55.8453 11.3206 55.7897 11.6189 55.7897C12.0915 55.7897 12.4618 55.9085 12.7297 56.1461C12.9976 56.3812 13.1367 56.706 13.1468 57.1205V59.0086C13.1468 59.3852 13.1948 59.6847 13.2908 59.9072V59.9678H12.5553ZM11.3914 59.4332C11.6113 59.4332 11.8198 59.3764 12.0169 59.2626C12.2141 59.1489 12.3569 59.001 12.4454 58.819V57.9774H11.8956C11.0362 57.9774 10.6066 58.2288 10.6066 58.7318C10.6066 58.9517 10.6799 59.1236 10.8265 59.2475C10.9731 59.3713 11.1614 59.4332 11.3914 59.4332Z" fill="#A3B3CC"/>
<path d="M17.6092 55.8656V59.9678H16.904V56.4456H15.5088L15.4254 57.9811C15.3799 58.6863 15.2611 59.1906 15.069 59.4939C14.8794 59.7972 14.5774 59.9552 14.1629 59.9678H13.8823V59.3498L14.0832 59.3347C14.3107 59.3094 14.4737 59.1779 14.5723 58.9404C14.6709 58.7028 14.7341 58.263 14.7619 57.621L14.8377 55.8656H17.6092Z" fill="#A3B3CC"/>
<path d="M21.3892 55.8656H22.0906V59.9678H21.3892V56.9764L19.4973 59.9678H18.7959V55.8656H19.4973V58.8607L21.3892 55.8656Z" fill="#A3B3CC"/>
<path d="M26.2649 56.4343H24.8886V59.9678H24.1872V56.4343H22.8375V55.8656H26.2649V56.4343Z" fill="#A3B3CC"/>
<path d="M29.6013 55.8656H30.3027V59.9678H29.6013V56.9764L27.7094 59.9678H27.008V55.8656H27.7094V58.8607L29.6013 55.8656Z" fill="#A3B3CC"/>
<path d="M34.5263 59.9678H33.8211V58.4816C33.5127 58.5625 33.1967 58.6029 32.8732 58.6029C32.3601 58.6029 31.9683 58.4715 31.6979 58.2086C31.43 57.9458 31.2935 57.5717 31.2884 57.0864V55.8618H31.9898V57.1091C32.0025 57.7208 32.2969 58.0266 32.8732 58.0266C33.1967 58.0266 33.5127 57.9862 33.8211 57.9053V55.8656H34.5263V59.9678Z" fill="#A3B3CC"/>
<path d="M37.3546 60.0436C36.7985 60.0436 36.3461 59.8617 35.9973 59.4977C35.6485 59.1312 35.4741 58.6421 35.4741 58.0304V57.9015C35.4741 57.4946 35.5512 57.1319 35.7054 56.8134C35.8621 56.4924 36.0794 56.2422 36.3575 56.0627C36.638 55.8807 36.9413 55.7897 37.2674 55.7897C37.8007 55.7897 38.2152 55.9654 38.511 56.3167C38.8067 56.6681 38.9546 57.1711 38.9546 57.8257V58.1176H36.1755C36.1856 58.522 36.3031 58.8494 36.5281 59.0996C36.7556 59.3473 37.0437 59.4711 37.3925 59.4711C37.6402 59.4711 37.85 59.4206 38.0219 59.3195C38.1938 59.2184 38.3442 59.0844 38.4731 58.9176L38.9015 59.2512C38.5577 59.7795 38.0421 60.0436 37.3546 60.0436ZM37.2674 56.366C36.9843 56.366 36.7467 56.4697 36.5546 56.6769C36.3625 56.8816 36.2437 57.1698 36.1982 57.5413H38.2532V57.4883C38.2329 57.1319 38.1369 56.8564 37.965 56.6617C37.7931 56.4646 37.5606 56.366 37.2674 56.366Z" fill="#A3B3CC"/>
<path d="M41.4152 59.4711C41.6654 59.4711 41.884 59.3953 42.0711 59.2437C42.2581 59.092 42.3617 58.9024 42.382 58.675H43.0454C43.0328 58.91 42.9519 59.1337 42.8028 59.346C42.6537 59.5583 42.454 59.7277 42.2038 59.8541C41.9561 59.9805 41.6932 60.0436 41.4152 60.0436C40.8566 60.0436 40.4117 59.8579 40.0806 59.4863C39.752 59.1122 39.5877 58.6017 39.5877 57.9546V57.8371C39.5877 57.4377 39.661 57.0826 39.8076 56.7717C39.9542 56.4608 40.164 56.2194 40.437 56.0475C40.7125 55.8757 41.0373 55.7897 41.4114 55.7897C41.8714 55.7897 42.253 55.9275 42.5564 56.203C42.8622 56.4785 43.0252 56.8362 43.0454 57.276H42.382C42.3617 57.0106 42.2606 56.7932 42.0786 56.6238C41.8992 56.452 41.6768 56.366 41.4114 56.366C41.055 56.366 40.7782 56.4949 40.5811 56.7527C40.3864 57.008 40.2891 57.3783 40.2891 57.8636V57.9963C40.2891 58.469 40.3864 58.8329 40.5811 59.0882C40.7757 59.3435 41.0537 59.4711 41.4152 59.4711Z" fill="#A3B3CC"/>
<path d="M45.1117 58.22H44.5999V59.9678H43.8947V55.8656H44.5999V57.602H45.0587L46.4387 55.8656H47.288L45.6653 57.8371L47.4245 59.9678H46.5335L45.1117 58.22Z" fill="#A3B3CC"/>
<path d="M50.6812 55.8656H51.3826V59.9678H50.6812V56.9764L48.7894 59.9678H48.0879V55.8656H48.7894V58.8607L50.6812 55.8656Z" fill="#A3B3CC"/>
<path d="M55.1626 55.8656H55.864V59.9678H55.1626V56.9764L53.2707 59.9678H52.5693V55.8656H53.2707V58.8607L55.1626 55.8656ZM55.3522 54.3718C55.3522 54.6776 55.2473 54.924 55.0375 55.1111C54.8303 55.2956 54.5573 55.3879 54.2186 55.3879C53.8799 55.3879 53.6056 55.2943 53.3959 55.1073C53.1861 54.9203 53.0812 54.6751 53.0812 54.3718H53.6537C53.6537 54.5487 53.7017 54.6877 53.7977 54.7888C53.8938 54.8874 54.0341 54.9367 54.2186 54.9367C54.3955 54.9367 54.5333 54.8874 54.6318 54.7888C54.7329 54.6902 54.7835 54.5512 54.7835 54.3718H55.3522Z" fill="#A3B3CC"/>
<path d="M62.2714 59.9678H61.57V56.4456H59.6819V59.9678H58.9767V55.8656H62.2714V59.9678Z" fill="#A3B3CC"/>
<path d="M63.2117 57.8788C63.2117 57.4769 63.29 57.1154 63.4468 56.7944C63.606 56.4734 63.8259 56.2257 64.1064 56.0513C64.3895 55.8769 64.7118 55.7897 65.0732 55.7897C65.6318 55.7897 66.083 55.9831 66.4268 56.3698C66.773 56.7565 66.9462 57.2709 66.9462 57.9129V57.9622C66.9462 58.3615 66.8691 58.7205 66.7149 59.0389C66.5632 59.3549 66.3446 59.6013 66.059 59.7782C65.7759 59.9552 65.4499 60.0436 65.0808 60.0436C64.5248 60.0436 64.0736 59.8503 63.7273 59.4636C63.3836 59.0768 63.2117 58.565 63.2117 57.9281V57.8788ZM63.9169 57.9622C63.9169 58.4171 64.0218 58.7824 64.2316 59.0579C64.4439 59.3334 64.727 59.4711 65.0808 59.4711C65.4372 59.4711 65.7203 59.3321 65.9301 59.0541C66.1399 58.7735 66.2448 58.3818 66.2448 57.8788C66.2448 57.4289 66.1374 57.0649 65.9225 56.7869C65.7102 56.5063 65.4271 56.366 65.0732 56.366C64.727 56.366 64.4477 56.5038 64.2354 56.7793C64.023 57.0548 63.9169 57.4491 63.9169 57.9622Z" fill="#A3B3CC"/>
<path d="M71.2911 57.9622C71.2911 58.5865 71.1483 59.0895 70.8626 59.4711C70.577 59.8528 70.1903 60.0436 69.7025 60.0436C69.2046 60.0436 68.8128 59.8857 68.5272 59.5697V61.545H67.8258V55.8656H68.4665L68.5006 56.3205C68.7862 55.9667 69.1831 55.7897 69.6911 55.7897C70.184 55.7897 70.5732 55.9755 70.8589 56.3471C71.147 56.7186 71.2911 57.2355 71.2911 57.8977V57.9622ZM70.5897 57.8826C70.5897 57.42 70.4911 57.0548 70.2939 56.7869C70.0968 56.5189 69.8263 56.385 69.4826 56.385C69.058 56.385 68.7395 56.5733 68.5272 56.9499V58.91C68.737 59.2841 69.058 59.4711 69.4902 59.4711C69.8263 59.4711 70.093 59.3384 70.2902 59.0731C70.4898 58.8051 70.5897 58.4083 70.5897 57.8826Z" fill="#A3B3CC"/>
<path d="M74.9308 56.4343H73.5545V59.9678H72.8531V56.4343H71.5034V55.8656H74.9308V56.4343Z" fill="#A3B3CC"/>
<path d="M78.0852 59.9678C78.0448 59.8869 78.0119 59.7429 77.9866 59.5356C77.6606 59.8743 77.2713 60.0436 76.8189 60.0436C76.4145 60.0436 76.0821 59.9299 75.8218 59.7024C75.5639 59.4724 75.435 59.1817 75.435 58.8304C75.435 58.4032 75.5968 58.0721 75.9203 57.8371C76.2464 57.5995 76.7039 57.4807 77.2928 57.4807H77.9752V57.1584C77.9752 56.9132 77.9019 56.7186 77.7553 56.5745C77.6087 56.4279 77.3926 56.3546 77.107 56.3546C76.8568 56.3546 76.647 56.4178 76.4777 56.5442C76.3083 56.6706 76.2236 56.8235 76.2236 57.003H75.5184C75.5184 56.7982 75.5905 56.6011 75.7346 56.4115C75.8811 56.2194 76.0783 56.0678 76.326 55.9566C76.5762 55.8453 76.8505 55.7897 77.1487 55.7897C77.6214 55.7897 77.9917 55.9085 78.2596 56.1461C78.5275 56.3812 78.6665 56.706 78.6766 57.1205V59.0086C78.6766 59.3852 78.7247 59.6847 78.8207 59.9072V59.9678H78.0852ZM76.9212 59.4332C77.1411 59.4332 77.3497 59.3764 77.5468 59.2626C77.744 59.1489 77.8868 59.001 77.9752 58.819V57.9774H77.4255C76.5661 57.9774 76.1364 58.2288 76.1364 58.7318C76.1364 58.9517 76.2097 59.1236 76.3563 59.2475C76.5029 59.3713 76.6912 59.4332 76.9212 59.4332Z" fill="#A3B3CC"/>
<path d="M83.1391 55.8656V59.9678H82.4339V56.4456H81.0387L80.9553 57.9811C80.9098 58.6863 80.791 59.1906 80.5989 59.4939C80.4093 59.7972 80.1073 59.9552 79.6927 59.9678H79.4122V59.3498L79.6131 59.3347C79.8406 59.3094 80.0036 59.1779 80.1022 58.9404C80.2008 58.7028 80.264 58.263 80.2918 57.621L80.3676 55.8656H83.1391Z" fill="#A3B3CC"/>
<path d="M89.6564 57.9622C89.6564 58.5865 89.5136 59.0895 89.228 59.4711C88.9424 59.8528 88.5557 60.0436 88.0678 60.0436C87.5699 60.0436 87.1781 59.8857 86.8925 59.5697V61.545H86.1911V55.8656H86.8319L86.866 56.3205C87.1516 55.9667 87.5484 55.7897 88.0565 55.7897C88.5493 55.7897 88.9386 55.9755 89.2242 56.3471C89.5124 56.7186 89.6564 57.2355 89.6564 57.8977V57.9622ZM88.955 57.8826C88.955 57.42 88.8564 57.0548 88.6593 56.7869C88.4621 56.5189 88.1917 56.385 87.8479 56.385C87.4233 56.385 87.1048 56.5733 86.8925 56.9499V58.91C87.1023 59.2841 87.4233 59.4711 87.8555 59.4711C88.1917 59.4711 88.4584 59.3384 88.6555 59.0731C88.8552 58.8051 88.955 58.4083 88.955 57.8826Z" fill="#A3B3CC"/>
<path d="M91.317 57.2797H92.3824C92.8475 57.2848 93.2152 57.4061 93.4857 57.6437C93.7561 57.8813 93.8914 58.2036 93.8914 58.6105C93.8914 59.02 93.7524 59.3486 93.4743 59.5963C93.1963 59.844 92.8222 59.9678 92.3521 59.9678H90.6156V55.8656H91.317V57.2797ZM95.3548 59.9678H94.6497V55.8656H95.3548V59.9678ZM91.317 57.8522V59.3953H92.3597C92.6225 59.3953 92.826 59.3283 92.9701 59.1944C93.1141 59.0579 93.1862 58.8721 93.1862 58.637C93.1862 58.4096 93.1154 58.2238 92.9739 58.0797C92.8348 57.9331 92.639 57.8573 92.3862 57.8522H91.317Z" fill="#A3B3CC"/>
<path d="M99.931 59.9678H99.2296V58.2162H97.3453V59.9678H96.6401V55.8656H97.3453V57.6437H99.2296V55.8656H99.931V59.9678Z" fill="#A3B3CC"/>
<path d="M102.339 58.22H101.827V59.9678H101.121V55.8656H101.827V57.602H102.285L103.666 55.8656H104.515L102.892 57.8371L104.651 59.9678H103.76L102.339 58.22Z" fill="#A3B3CC"/>
<path d="M107.787 59.9678C107.746 59.8869 107.713 59.7429 107.688 59.5356C107.362 59.8743 106.973 60.0436 106.52 60.0436C106.116 60.0436 105.784 59.9299 105.523 59.7024C105.265 59.4724 105.137 59.1817 105.137 58.8304C105.137 58.4032 105.298 58.0721 105.622 57.8371C105.948 57.5995 106.405 57.4807 106.994 57.4807H107.677V57.1584C107.677 56.9132 107.603 56.7186 107.457 56.5745C107.31 56.4279 107.094 56.3546 106.809 56.3546C106.558 56.3546 106.349 56.4178 106.179 56.5442C106.01 56.6706 105.925 56.8235 105.925 57.003H105.22C105.22 56.7982 105.292 56.6011 105.436 56.4115C105.583 56.2194 105.78 56.0678 106.028 55.9566C106.278 55.8453 106.552 55.7897 106.85 55.7897C107.323 55.7897 107.693 55.9085 107.961 56.1461C108.229 56.3812 108.368 56.706 108.378 57.1205V59.0086C108.378 59.3852 108.426 59.6847 108.522 59.9072V59.9678H107.787ZM106.623 59.4332C106.843 59.4332 107.051 59.3764 107.248 59.2626C107.445 59.1489 107.588 59.001 107.677 58.819V57.9774H107.127C106.268 57.9774 105.838 58.2288 105.838 58.7318C105.838 58.9517 105.911 59.1236 106.058 59.2475C106.204 59.3713 106.393 59.4332 106.623 59.4332Z" fill="#A3B3CC"/>
<path d="M111.468 59.9678V55.8656H113.068C113.614 55.8656 114.032 55.9616 114.323 56.1537C114.616 56.3433 114.763 56.6226 114.763 56.9916C114.763 57.1812 114.706 57.353 114.592 57.5072C114.478 57.6589 114.31 57.7751 114.088 57.856C114.336 57.9142 114.534 58.0279 114.683 58.1973C114.835 58.3666 114.911 58.5688 114.911 58.8039C114.911 59.1805 114.772 59.4686 114.494 59.6683C114.218 59.868 113.828 59.9678 113.322 59.9678H111.468ZM112.17 58.1669V59.4029H113.33C113.623 59.4029 113.842 59.3486 113.986 59.2399C114.132 59.1312 114.205 58.9783 114.205 58.7811C114.205 58.3717 113.905 58.1669 113.303 58.1669H112.17ZM112.17 57.6058H113.076C113.733 57.6058 114.061 57.4137 114.061 57.0295C114.061 56.6453 113.751 56.4469 113.129 56.4343H112.17V57.6058Z" fill="#A3B3CC"/>
<path d="M117.542 60.0436C116.986 60.0436 116.533 59.8617 116.185 59.4977C115.836 59.1312 115.661 58.6421 115.661 58.0304V57.9015C115.661 57.4946 115.738 57.1319 115.893 56.8134C116.049 56.4924 116.267 56.2422 116.545 56.0627C116.825 55.8807 117.129 55.7897 117.455 55.7897C117.988 55.7897 118.403 55.9654 118.698 56.3167C118.994 56.6681 119.142 57.1711 119.142 57.8257V58.1176H116.363C116.373 58.522 116.49 58.8494 116.715 59.0996C116.943 59.3473 117.231 59.4711 117.58 59.4711C117.827 59.4711 118.037 59.4206 118.209 59.3195C118.381 59.2184 118.531 59.0844 118.66 58.9176L119.089 59.2512C118.745 59.7795 118.229 60.0436 117.542 60.0436ZM117.455 56.366C117.172 56.366 116.934 56.4697 116.742 56.6769C116.55 56.8816 116.431 57.1698 116.386 57.5413H118.44V57.4883C118.42 57.1319 118.324 56.8564 118.152 56.6617C117.98 56.4646 117.748 56.366 117.455 56.366Z" fill="#A3B3CC"/>
<path d="M121.758 56.1006C122.273 56.1006 122.685 56.2738 122.994 56.62C123.305 56.9638 123.46 57.4175 123.46 57.9811V58.0456C123.46 58.4323 123.386 58.7786 123.237 59.0844C123.087 59.3877 122.873 59.6241 122.592 59.7934C122.314 59.9602 121.993 60.0436 121.629 60.0436C121.078 60.0436 120.634 59.8604 120.298 59.4939C119.962 59.1249 119.794 58.6307 119.794 58.0115V57.6703C119.794 56.8083 119.953 56.1234 120.272 55.6153C120.593 55.1073 121.065 54.7977 121.69 54.6865C122.043 54.6233 122.282 54.5462 122.406 54.4552C122.53 54.3642 122.592 54.2391 122.592 54.0798H123.168C123.168 54.3958 123.096 54.6422 122.952 54.8191C122.811 54.9961 122.583 55.1212 122.27 55.1945L121.746 55.312C121.329 55.4106 121.016 55.5774 120.806 55.8125C120.599 56.045 120.464 56.3559 120.401 56.7452C120.772 56.3155 121.225 56.1006 121.758 56.1006ZM121.621 56.6769C121.278 56.6769 121.005 56.7932 120.802 57.0257C120.6 57.2557 120.499 57.5755 120.499 57.9849V58.0456C120.499 58.4854 120.6 58.8342 120.802 59.092C121.007 59.3473 121.283 59.4749 121.629 59.4749C121.978 59.4749 122.253 59.346 122.455 59.0882C122.658 58.8304 122.759 58.4538 122.759 57.9584C122.759 57.5717 122.656 57.262 122.452 57.0295C122.249 56.7944 121.973 56.6769 121.621 56.6769Z" fill="#A3B3CC"/>
<path d="M125.708 57.9091H123.858V57.3366H125.708V57.9091Z" fill="#A3B3CC"/>
<path d="M129.86 57.9622C129.86 58.5865 129.717 59.0895 129.432 59.4711C129.146 59.8528 128.759 60.0436 128.271 60.0436C127.773 60.0436 127.382 59.8857 127.096 59.5697V61.545H126.395V55.8656H127.035L127.07 56.3205C127.355 55.9667 127.752 55.7897 128.26 55.7897C128.753 55.7897 129.142 55.9755 129.428 56.3471C129.716 56.7186 129.86 57.2355 129.86 57.8977V57.9622ZM129.159 57.8826C129.159 57.42 129.06 57.0548 128.863 56.7869C128.666 56.5189 128.395 56.385 128.052 56.385C127.627 56.385 127.308 56.5733 127.096 56.9499V58.91C127.306 59.2841 127.627 59.4711 128.059 59.4711C128.395 59.4711 128.662 59.3384 128.859 59.0731C129.059 58.8051 129.159 58.4083 129.159 57.8826Z" fill="#A3B3CC"/>
<path d="M133.287 59.9678C133.247 59.8869 133.214 59.7429 133.189 59.5356C132.863 59.8743 132.474 60.0436 132.021 60.0436C131.617 60.0436 131.284 59.9299 131.024 59.7024C130.766 59.4724 130.637 59.1817 130.637 58.8304C130.637 58.4032 130.799 58.0721 131.123 57.8371C131.449 57.5995 131.906 57.4807 132.495 57.4807H133.177V57.1584C133.177 56.9132 133.104 56.7186 132.958 56.5745C132.811 56.4279 132.595 56.3546 132.309 56.3546C132.059 56.3546 131.849 56.4178 131.68 56.5442C131.511 56.6706 131.426 56.8235 131.426 57.003H130.721C130.721 56.7982 130.793 56.6011 130.937 56.4115C131.083 56.2194 131.281 56.0678 131.528 55.9566C131.778 55.8453 132.053 55.7897 132.351 55.7897C132.824 55.7897 133.194 55.9085 133.462 56.1461C133.73 56.3812 133.869 56.706 133.879 57.1205V59.0086C133.879 59.3852 133.927 59.6847 134.023 59.9072V59.9678H133.287ZM132.123 59.4332C132.343 59.4332 132.552 59.3764 132.749 59.2626C132.946 59.1489 133.089 59.001 133.177 58.819V57.9774H132.628C131.768 57.9774 131.339 58.2288 131.339 58.7318C131.339 58.9517 131.412 59.1236 131.559 59.2475C131.705 59.3713 131.893 59.4332 132.123 59.4332Z" fill="#A3B3CC"/>
<path d="M137.234 56.9878C137.234 56.7957 137.161 56.6441 137.014 56.5328C136.868 56.4191 136.667 56.3622 136.411 56.3622C136.164 56.3622 135.957 56.4267 135.79 56.5556C135.625 56.6845 135.543 56.8362 135.543 57.0106H134.846C134.846 56.6542 134.995 56.3622 135.293 56.1348C135.591 55.9073 135.964 55.7935 136.411 55.7935C136.892 55.7935 137.266 55.8972 137.534 56.1044C137.802 56.3092 137.936 56.6024 137.936 56.984C137.936 57.1685 137.88 57.3379 137.769 57.4921C137.658 57.6462 137.5 57.7688 137.295 57.8598C137.773 58.0216 138.011 58.3401 138.011 58.8152C138.011 59.1919 137.866 59.4901 137.575 59.71C137.285 59.9299 136.897 60.0399 136.411 60.0399C135.939 60.0399 135.548 59.9248 135.24 59.6948C134.934 59.4623 134.781 59.1489 134.781 58.7546H135.479C135.479 58.9543 135.567 59.1261 135.744 59.2702C135.924 59.4117 136.146 59.4825 136.411 59.4825C136.679 59.4825 136.896 59.4206 137.06 59.2967C137.224 59.1729 137.306 59.0124 137.306 58.8152C137.306 58.5852 137.237 58.4209 137.098 58.3224C136.961 58.2213 136.748 58.1707 136.457 58.1707H135.756V57.5793H136.518C136.995 57.5666 137.234 57.3695 137.234 56.9878Z" fill="#A3B3CC"/>
<path d="M142.387 57.9622C142.387 58.5865 142.244 59.0895 141.958 59.4711C141.673 59.8528 141.286 60.0436 140.798 60.0436C140.3 60.0436 139.908 59.8857 139.623 59.5697V61.545H138.921V55.8656H139.562L139.596 56.3205C139.882 55.9667 140.279 55.7897 140.787 55.7897C141.28 55.7897 141.669 55.9755 141.954 56.3471C142.243 56.7186 142.387 57.2355 142.387 57.8977V57.9622ZM141.685 57.8826C141.685 57.42 141.587 57.0548 141.39 56.7869C141.192 56.5189 140.922 56.385 140.578 56.385C140.154 56.385 139.835 56.5733 139.623 56.9499V58.91C139.833 59.2841 140.154 59.4711 140.586 59.4711C140.922 59.4711 141.189 59.3384 141.386 59.0731C141.585 58.8051 141.685 58.4083 141.685 57.8826Z" fill="#A3B3CC"/>
<path d="M145.814 59.9678C145.774 59.8869 145.741 59.7429 145.715 59.5356C145.389 59.8743 145 60.0436 144.548 60.0436C144.143 60.0436 143.811 59.9299 143.551 59.7024C143.293 59.4724 143.164 59.1817 143.164 58.8304C143.164 58.4032 143.326 58.0721 143.649 57.8371C143.975 57.5995 144.433 57.4807 145.022 57.4807H145.704V57.1584C145.704 56.9132 145.631 56.7186 145.484 56.5745C145.338 56.4279 145.122 56.3546 144.836 56.3546C144.586 56.3546 144.376 56.4178 144.207 56.5442C144.037 56.6706 143.952 56.8235 143.952 57.003H143.247C143.247 56.7982 143.319 56.6011 143.463 56.4115C143.61 56.2194 143.807 56.0678 144.055 55.9566C144.305 55.8453 144.579 55.7897 144.878 55.7897C145.35 55.7897 145.721 55.9085 145.988 56.1461C146.256 56.3812 146.395 56.706 146.406 57.1205V59.0086C146.406 59.3852 146.454 59.6847 146.55 59.9072V59.9678H145.814ZM144.65 59.4332C144.87 59.4332 145.079 59.3764 145.276 59.2626C145.473 59.1489 145.616 59.001 145.704 58.819V57.9774H145.154C144.295 57.9774 143.865 58.2288 143.865 58.7318C143.865 58.9517 143.939 59.1236 144.085 59.2475C144.232 59.3713 144.42 59.4332 144.65 59.4332Z" fill="#A3B3CC"/>
<path d="M149.306 56.1006C149.822 56.1006 150.234 56.2738 150.542 56.62C150.853 56.9638 151.008 57.4175 151.008 57.9811V58.0456C151.008 58.4323 150.934 58.7786 150.785 59.0844C150.635 59.3877 150.421 59.6241 150.14 59.7934C149.862 59.9602 149.541 60.0436 149.177 60.0436C148.626 60.0436 148.182 59.8604 147.846 59.4939C147.51 59.1249 147.342 58.6307 147.342 58.0115V57.6703C147.342 56.8083 147.501 56.1234 147.82 55.6153C148.141 55.1073 148.613 54.7977 149.238 54.6865C149.592 54.6233 149.83 54.5462 149.954 54.4552C150.078 54.3642 150.14 54.2391 150.14 54.0798H150.716C150.716 54.3958 150.644 54.6422 150.5 54.8191C150.359 54.9961 150.131 55.1212 149.818 55.1945L149.295 55.312C148.877 55.4106 148.564 55.5774 148.354 55.8125C148.147 56.045 148.012 56.3559 147.949 56.7452C148.32 56.3155 148.773 56.1006 149.306 56.1006ZM149.169 56.6769C148.826 56.6769 148.553 56.7932 148.35 57.0257C148.148 57.2557 148.047 57.5755 148.047 57.9849V58.0456C148.047 58.4854 148.148 58.8342 148.35 59.092C148.555 59.3473 148.831 59.4749 149.177 59.4749C149.526 59.4749 149.801 59.346 150.004 59.0882C150.206 58.8304 150.307 58.4538 150.307 57.9584C150.307 57.5717 150.204 57.262 150 57.0295C149.798 56.7944 149.521 56.6769 149.169 56.6769Z" fill="#A3B3CC"/>
<path d="M151.611 57.8788C151.611 57.4769 151.689 57.1154 151.846 56.7944C152.005 56.4734 152.225 56.2257 152.506 56.0513C152.789 55.8769 153.111 55.7897 153.473 55.7897C154.031 55.7897 154.482 55.9831 154.826 56.3698C155.172 56.7565 155.346 57.2709 155.346 57.9129V57.9622C155.346 58.3615 155.268 58.7205 155.114 59.0389C154.963 59.3549 154.744 59.6013 154.458 59.7782C154.175 59.9552 153.849 60.0436 153.48 60.0436C152.924 60.0436 152.473 59.8503 152.127 59.4636C151.783 59.0768 151.611 58.565 151.611 57.9281V57.8788ZM152.316 57.9622C152.316 58.4171 152.421 58.7824 152.631 59.0579C152.843 59.3334 153.126 59.4711 153.48 59.4711C153.837 59.4711 154.12 59.3321 154.329 59.0541C154.539 58.7735 154.644 58.3818 154.644 57.8788C154.644 57.4289 154.537 57.0649 154.322 56.7869C154.11 56.5063 153.826 56.366 153.473 56.366C153.126 56.366 152.847 56.5038 152.635 56.7793C152.422 57.0548 152.316 57.4491 152.316 57.9622Z" fill="#A3B3CC"/>
<path d="M159.19 56.4343H157.814V59.9678H157.112V56.4343H155.763V55.8656H159.19V56.4343Z" fill="#A3B3CC"/>
<path d="M159.527 57.8788C159.527 57.4769 159.606 57.1154 159.762 56.7944C159.922 56.4734 160.142 56.2257 160.422 56.0513C160.705 55.8769 161.028 55.7897 161.389 55.7897C161.948 55.7897 162.399 55.9831 162.742 56.3698C163.089 56.7565 163.262 57.2709 163.262 57.9129V57.9622C163.262 58.3615 163.185 58.7205 163.031 59.0389C162.879 59.3549 162.66 59.6013 162.375 59.7782C162.092 59.9552 161.766 60.0436 161.397 60.0436C160.84 60.0436 160.389 59.8503 160.043 59.4636C159.699 59.0768 159.527 58.565 159.527 57.9281V57.8788ZM160.233 57.9622C160.233 58.4171 160.337 58.7824 160.547 59.0579C160.76 59.3334 161.043 59.4711 161.397 59.4711C161.753 59.4711 162.036 59.3321 162.246 59.0541C162.456 58.7735 162.561 58.3818 162.561 57.8788C162.561 57.4289 162.453 57.0649 162.238 56.7869C162.026 56.5063 161.743 56.366 161.389 56.366C161.043 56.366 160.763 56.5038 160.551 56.7793C160.339 57.0548 160.233 57.4491 160.233 57.9622Z" fill="#A3B3CC"/>
<path d="M165.419 58.22H164.907V59.9678H164.202V55.8656H164.907V57.602H165.366L166.746 55.8656H167.595L165.973 57.8371L167.732 59.9678H166.841L165.419 58.22Z" fill="#A3B3CC"/>
</g>
<defs>
<clipPath id="clip0_1588_296">
<rect width="202.529" height="44" fill="white" transform="translate(0.949707 18)"/>
</clipPath>
</defs>
</svg>
