<svg width="160" height="50" viewBox="0 0 160 50" fill="none" xmlns="http://www.w3.org/2000/svg">
<path d="M41.2519 7.21957C41.2024 7.17005 41.1529 7.12053 41.1034 7.07101C39.1722 5.38746 37.043 4.00101 34.6663 3.01068C32.7846 2.21842 30.804 1.62423 28.7738 1.32713C27.7835 1.17858 26.7932 1.07954 25.8028 1.03003C25.7038 1.03003 25.6543 1.03002 25.5553 0.980508H24.3174C24.2183 0.980508 24.1193 1.03003 24.0203 1.03003C22.9804 1.07954 21.9901 1.17858 20.9502 1.32713C18.623 1.72326 16.3947 2.41648 14.3151 3.45632C8.22455 6.4273 3.66905 11.676 1.63888 18.1132C1.19323 19.4996 0.896131 20.9356 0.747582 22.3716C0.698065 22.8667 0.648555 23.3619 0.599039 23.8571C0.599039 24.0551 0.549516 24.2532 0.5 24.4512V26.1843C0.549516 26.3824 0.549522 26.5309 0.599039 26.729C1.19323 36.8798 8.12552 45.5452 17.7317 48.5162C19.1181 48.9618 20.5541 49.2589 22.0396 49.4075C22.5348 49.457 23.0794 49.5065 23.6241 49.556C23.6736 49.556 23.7727 49.6055 23.8222 49.6055H26.0999C26.1495 49.6055 26.2485 49.556 26.298 49.556C27.6349 49.5065 28.9224 49.3084 30.2098 49.0113C34.3196 48.1201 37.9343 46.2384 41.1034 43.4655C41.1529 43.416 41.2024 43.3665 41.2024 43.3665C40.014 42.1781 38.8256 41.0392 37.6372 39.8508C33.5769 43.2675 28.8729 44.9015 23.5746 44.5549C18.2268 44.1587 13.7704 41.9305 10.2547 37.9197C3.86712 30.5913 3.96614 19.6482 10.5518 12.4188C13.8694 8.75458 18.0288 6.62537 22.9804 6.1302C28.5262 5.58552 33.4284 7.21956 37.6868 10.7847C38.9247 9.54683 40.0635 8.40796 41.2519 7.21957ZM53.0368 25.293C53.0368 29.3534 49.7192 32.6214 45.6589 32.6214C41.5986 32.6214 38.281 29.3038 38.281 25.2435C38.281 21.1832 41.5986 17.9151 45.6589 17.9151C49.7192 17.9646 53.0368 21.2327 53.0368 25.293ZM58.038 25.293C58.038 18.3112 52.3436 12.9139 45.6094 12.9139C38.8752 12.9139 33.1808 18.3607 33.1808 25.2435C33.1808 32.0272 38.7266 37.6226 45.6094 37.6226C52.4426 37.6226 58.038 32.1758 58.038 25.293ZM81.7068 45.7928C85.0244 42.6237 86.5098 38.712 86.1137 34.1564C85.9652 32.6214 85.569 31.136 84.9253 29.7C83.3903 26.4319 80.964 24.0551 77.6464 22.6192C75.7153 21.7774 73.7346 20.9851 71.754 20.1433C70.4666 19.5987 69.1791 18.9549 67.9908 18.1132C67.149 17.519 66.4557 16.7762 66.0101 15.8354C65.3664 14.4985 65.2178 13.112 65.4654 11.676C65.7625 9.94297 66.6043 8.45747 67.9412 7.36811C70.0704 5.63504 72.4472 5.33795 74.9725 6.47682C77.2998 7.71473 78.5872 9.59635 78.9339 12.1712C78.9834 12.4188 78.9834 12.6664 78.9834 12.8644C79.231 12.9139 83.836 12.9139 83.9845 12.8644V12.8149C83.9845 12.7654 83.9845 12.7159 83.9845 12.6168C83.9845 11.676 83.836 10.7847 83.5884 9.84393C82.3505 5.09036 78.2406 1.52519 73.3385 1.03003C73.1404 1.03003 72.9424 0.980505 72.7443 0.930989H71.5559C71.4569 0.930989 71.4074 0.980508 71.3083 0.980508C70.9122 1.03002 70.4666 1.07954 70.0704 1.12905C67.8422 1.52518 65.8615 2.466 64.178 4.00101C61.7517 6.22924 60.4643 9.00215 60.2662 12.2702C60.2167 13.3101 60.3157 14.3499 60.5138 15.3898C61.009 17.717 62.1478 19.6977 63.9304 21.2822C65.0693 22.2725 66.3072 23.0648 67.6441 23.7085C68.783 24.3027 69.9714 24.7483 71.1598 25.2435C72.6948 25.8872 74.2793 26.5309 75.8143 27.2242C79.5776 28.9572 81.7068 33.0176 80.9145 37.0779C80.4689 39.5537 79.1814 41.5839 77.1018 43.0199C74.824 44.6539 72.2491 45.0996 69.5257 44.3073C66.3567 43.416 63.8314 40.6431 63.0886 37.3255C63.0391 37.1769 63.0391 37.0284 62.9896 36.9294H57.9389C57.9389 37.0284 57.9389 37.0779 57.9389 37.1274C57.9885 37.5236 58.038 37.9197 58.137 38.3158C58.9788 42.0295 60.9594 44.951 64.1285 47.0802C66.0596 48.3676 68.1393 49.1104 70.4666 49.358C70.7142 49.358 70.9122 49.4075 71.1598 49.457H72.8434C72.8929 49.457 72.9919 49.4075 73.0414 49.4075C73.6356 49.3084 74.2298 49.3084 74.7745 49.1599C77.4979 48.7638 79.8251 47.5754 81.7068 45.7928ZM106.861 12.6664C106.861 11.5275 106.861 10.3886 106.861 9.24974C106.861 8.75458 106.812 8.25941 106.713 7.76425C106.366 5.98166 105.524 4.44665 104.187 3.15922C102.9 1.97083 101.365 1.22809 99.5822 0.980508C99.3841 0.980508 99.2355 0.930986 99.0375 0.88147H97.8491C97.6015 0.930986 97.4035 0.930992 97.1559 0.980508C94.9771 1.32712 93.1946 2.36696 91.8576 4.10003C90.6692 5.58552 90.075 7.3186 90.075 9.24974C90.075 9.99249 90.075 10.7352 90.075 11.4285C90.075 12.3198 90.1245 13.211 90.2236 14.1023C90.4216 15.4888 90.7188 16.8257 91.2634 18.0636C91.9071 19.6482 92.8975 21.0841 94.0363 22.3716C94.8781 23.3619 95.8189 24.2532 96.7102 25.1445C97.5025 25.9367 98.3443 26.729 99.0375 27.5708C100.226 29.0068 101.018 30.5913 101.414 32.4234C101.612 33.4632 101.711 34.5031 101.711 35.5429C101.711 37.0779 101.711 38.6129 101.711 40.1974C101.711 40.5936 101.711 40.9897 101.612 41.3858C101.513 42.1286 101.266 42.8218 100.82 43.416C99.7307 44.9015 97.651 45.0996 96.3141 43.8617C95.918 43.515 95.6209 43.0694 95.4228 42.5742C95.1257 41.881 95.0267 41.1383 95.0267 40.3955C95.0267 37.7711 95.0267 35.0973 95.0267 32.4729C95.0267 32.3739 95.0267 32.2748 95.0267 32.1758C94.6305 32.1263 90.1741 32.1263 89.976 32.1758V32.4234C89.976 35.2953 89.976 38.1673 89.976 41.0392C89.976 41.6829 90.0255 42.3266 90.1741 42.9703C90.9168 46.1889 93.5412 48.7143 96.8092 49.3084C97.0568 49.358 97.3539 49.4075 97.6015 49.457H99.1365C99.186 49.457 99.2355 49.4075 99.2851 49.4075C99.7802 49.358 100.325 49.2589 100.82 49.1104C103.791 48.2191 105.673 46.3375 106.415 43.317C106.613 42.5742 106.663 41.782 106.663 40.9897C106.663 39.3557 106.663 37.6721 106.663 36.0381C106.663 34.9982 106.613 34.0079 106.514 32.9681C106.366 31.6806 106.069 30.4427 105.673 29.2543C104.93 27.1747 103.742 25.3921 102.256 23.758C101.167 22.5696 99.9783 21.4308 98.7899 20.3414C98.0967 19.6977 97.4034 19.054 96.8092 18.3607C95.3733 16.7267 94.6305 14.7956 94.581 12.6168C94.5315 11.676 94.581 10.6857 94.581 9.7449C94.581 9.10119 94.6801 8.50699 94.9276 7.91279C95.3238 6.87295 96.017 6.13021 97.1063 5.7836C97.8986 5.53602 98.6909 5.53602 99.4336 5.7836C100.226 5.98166 100.771 6.47682 101.167 7.17005C101.266 7.36811 101.365 7.61569 101.414 7.81376C101.612 8.35844 101.662 8.95263 101.662 9.54683C101.662 10.5372 101.662 11.577 101.662 12.5673C101.662 12.6664 101.662 12.7159 101.662 12.8149H106.663C106.861 12.8149 106.861 12.7654 106.861 12.6664ZM145.088 32.2253H122.657C126.42 25.4416 130.134 18.6578 133.897 11.8741C137.611 18.7074 141.324 25.4416 145.088 32.2253ZM159.992 49.457C159.943 49.358 159.893 49.2589 159.844 49.1599C157.467 44.7529 155.09 40.346 152.713 35.939C150.089 31.0864 147.464 26.1843 144.84 21.3317C142.711 17.4199 140.631 13.5081 138.502 9.59635C137.017 6.87295 135.581 4.14955 134.095 1.42615C133.996 1.2776 133.947 1.12906 133.847 0.980508H133.798C133.748 1.03002 133.748 1.12905 133.699 1.17857C133.055 2.36696 132.411 3.55536 131.768 4.74375C127.361 12.9635 122.904 21.1336 118.497 29.3534C114.883 36.0381 111.318 42.6733 107.703 49.358C107.653 49.4075 107.653 49.5065 107.604 49.556H113.447C113.496 49.5065 113.496 49.4075 113.546 49.358C115.675 45.2976 117.854 41.2373 119.983 37.1769C120.082 37.0284 120.131 36.9789 120.28 36.9789C129.292 36.9789 138.353 36.9789 147.365 36.9789H147.563C147.613 37.0779 147.663 37.1274 147.663 37.1769C149.792 41.1878 151.921 45.1986 154.05 49.2589C154.1 49.358 154.149 49.4075 154.199 49.5065H159.744C159.794 49.5065 159.844 49.5065 159.893 49.5065C160.042 49.556 159.992 49.5065 159.992 49.457Z" fill="#A3B3CC"/>
</svg>
