<svg width="180" height="80" viewBox="0 0 180 80" fill="none" xmlns="http://www.w3.org/2000/svg">
<g clip-path="url(#clip0_1701_4)">
<path fill-rule="evenodd" clip-rule="evenodd" d="M72.8589 17.1655C72.1643 18.6177 71.5711 19.8974 70.9429 21.1608C68.0525 26.9625 65.1878 32.7759 62.2368 38.5461C61.5119 39.9633 61.4886 41.1498 62.2216 42.588C65.5584 49.1263 68.7984 55.7135 72.0664 62.2845C72.3146 62.7856 72.5279 63.3078 72.8414 64.0001H0.135742V17.1655H72.8589ZM64.5887 22.2656H5.22653V58.8312H64.5211C64.168 58.0573 63.9034 57.4361 63.6027 56.8336C61.2368 52.0516 58.9059 47.251 56.47 42.5052C55.7649 41.13 55.7708 39.9715 56.4817 38.6219C58.005 35.7292 59.4187 32.7782 60.8685 29.8459C62.0806 27.3914 63.2787 24.9346 64.5887 22.2656Z" fill="#A3B3CC"/>
<path fill-rule="evenodd" clip-rule="evenodd" d="M24.1932 52.9315L18.3123 44.8641H17.1654V52.9315H10.6772V27.5476H20.825C23.6222 27.5476 25.875 28.2282 27.5848 29.5906C29.2933 30.9542 30.1838 33.0579 30.2549 35.9017C30.2549 40.3969 28.5929 43.1672 25.2701 44.2196L32.1907 52.9327H24.1956L24.1932 52.9315ZM17.1654 39.3421H20.9299C22.1956 39.3421 23.0919 38.8596 23.6175 37.8911C24.142 36.9238 24.142 35.9541 23.6175 34.9868C23.093 34.0194 22.1956 33.5358 20.9287 33.5358H17.1643V39.3445V39.3421H17.1654ZM52.745 35.2886C52.7217 35.9832 52.4909 36.7385 52.0457 37.5496C51.6123 38.3526 50.9431 39.0034 50.1285 39.4144C51.6821 40.2023 52.7205 41.2558 53.2438 42.5717C53.7718 43.8875 53.9268 45.1544 53.7112 46.3711C53.0177 50.7475 50.0061 52.9327 44.6753 52.9327H34.3119V27.5464H44.4969C46.9817 27.5464 48.9957 28.2457 50.5376 29.6442C52.0807 31.0405 52.8184 32.9215 52.7462 35.291L52.745 35.2886ZM40.7686 37.4774H44.4981C45.4794 37.4774 46.1787 37.0998 46.5995 36.3469C47.0155 35.5928 47.0225 34.8434 46.6158 34.0882C46.2125 33.3318 45.5074 32.9577 44.5016 32.9577H40.7721V37.4774H40.7686ZM40.7686 47.3023H44.4981C45.7172 47.3023 46.5726 46.8676 47.0645 45.9923C47.554 45.1229 47.5505 44.2534 47.0493 43.3933C46.5423 42.5309 45.6939 42.102 44.5004 42.102H40.7709V47.3035L40.7686 47.3023Z" fill="#A3B3CC"/>
<path d="M81.9928 48.8512L77.7039 42.9656H76.8671V48.8512H72.1353V30.3388H79.536C81.5756 30.3388 83.2189 30.8353 84.466 31.8283C85.713 32.8225 86.361 34.3574 86.4123 36.4319C86.4123 39.7093 85.2002 41.7313 82.776 42.4982L87.8248 48.8524H81.9928V48.8512ZM76.8647 38.94H79.6118C80.536 38.94 81.1898 38.5857 81.5721 37.8818C81.9567 37.1755 81.9567 36.4692 81.5721 35.763C81.1875 35.0567 80.5348 34.7047 79.6118 34.7047H76.8659V38.94H76.8647ZM93.2361 30.3388V42.6544C93.2361 43.2138 93.4203 43.6858 93.7874 44.0798C94.1522 44.4714 94.5916 44.7091 95.1079 44.7989C95.6207 44.8863 96.1417 44.8863 96.6638 44.7989C97.1883 44.7103 97.6311 44.4725 97.9983 44.0798C98.3631 43.6858 98.5484 43.2127 98.5484 42.6544V30.3377H103.28V42.6544C103.28 43.5961 103.111 44.4551 102.771 45.2301C102.462 45.9653 101.993 46.6223 101.398 47.1531C100.802 47.6729 100.137 48.1082 99.4225 48.4468C98.6928 48.8021 97.9037 49.0194 97.095 49.0878C96.285 49.1577 95.4692 49.1577 94.6499 49.0878C93.8371 49.0194 93.0438 48.8021 92.3096 48.4468C91.5984 48.1102 90.9384 47.6747 90.3493 47.1531C89.7817 46.6496 89.333 46.0063 89.002 45.2301C88.6698 44.4562 88.5055 43.5961 88.5055 42.6544V30.3377H93.2373L93.2361 30.3388ZM104.877 45.7662L107.831 42.9924C108.181 43.4294 108.619 43.7966 109.152 44.0914C109.684 44.3863 110.212 44.5809 110.735 44.666C111.259 44.7534 111.756 44.7744 112.224 44.7301C112.695 44.687 113.086 44.5436 113.401 44.2989C113.714 44.0565 113.879 43.7395 113.898 43.3572C113.915 42.8677 113.609 42.4691 112.982 42.1544C112.356 41.8397 111.606 41.6218 110.732 41.5017C109.112 41.2384 107.756 40.6078 106.667 39.6044C105.578 38.6021 105.033 37.2734 105.033 35.6161C105.033 33.8912 105.69 32.5358 107.006 31.5486C108.323 30.5638 109.897 30.0731 111.726 30.0731C114.325 30.0731 116.435 31.0579 118.057 33.0264L114.997 35.3807C114.402 34.7383 113.642 34.2721 112.8 34.0334C111.963 33.798 111.235 33.8155 110.615 34.0858C109.997 34.3562 109.677 34.8411 109.659 35.538C109.712 36.3375 110.533 36.9133 112.118 37.2629C112.869 37.4004 113.522 37.5496 114.078 37.7058C114.638 37.8643 115.22 38.1021 115.83 38.4261C116.44 38.7489 116.933 39.123 117.31 39.5496C117.683 39.9773 117.986 40.5356 118.211 41.2244C118.437 41.912 118.532 42.6929 118.499 43.5635C118.455 44.6767 118.025 45.7398 117.282 46.5704C116.543 47.4313 115.599 48.0925 114.537 48.4934C113.465 48.9037 112.344 49.1111 111.177 49.1111C110.043 49.1111 108.916 48.8198 107.802 48.2452C106.688 47.6694 105.716 46.8431 104.879 45.7627L104.877 45.7662ZM133.669 35.9844C133.65 36.4914 133.482 37.0415 133.158 37.6335C132.842 38.2194 132.354 38.6942 131.76 38.9937C132.893 39.5682 133.65 40.3363 134.032 41.2955C134.417 42.2546 134.53 43.1789 134.373 44.067C133.867 47.258 131.671 48.8524 127.783 48.8524H120.225V30.3388H127.653C129.465 30.3388 130.935 30.8493 132.058 31.8679C133.184 32.8866 133.721 34.2595 133.669 35.9867V35.9844ZM124.934 37.5811H127.654C128.369 37.5811 128.88 37.3049 129.186 36.7571C129.489 36.207 129.494 35.6592 129.198 35.1091C128.904 34.5579 128.389 34.2851 127.656 34.2851H124.936V37.5811H124.934ZM124.934 44.7464H127.654C128.543 44.7464 129.167 44.4294 129.525 43.7907C129.882 43.1567 129.88 42.5227 129.514 41.8957C129.144 41.2663 128.526 40.954 127.655 40.954H124.936V44.7464H124.934ZM144.992 30.3377L151.609 48.8524H146.588L145.384 45.1392H140.442L139.291 48.8536H134.268L140.729 30.34H144.992V30.3377ZM141.488 40.9785H144.262L142.98 35.5672H142.848L141.489 40.9796L141.488 40.9785ZM151.373 45.7662L154.328 42.9924C154.678 43.4294 155.116 43.7966 155.648 44.0914C156.182 44.3863 156.709 44.5809 157.233 44.666C157.756 44.7534 158.253 44.7744 158.722 44.7301C159.193 44.687 159.584 44.5436 159.899 44.2989C160.211 44.0565 160.377 43.7395 160.395 43.3572C160.413 42.8677 160.106 42.4691 159.479 42.1544C158.853 41.8397 158.104 41.6218 157.23 41.5017C155.61 41.2384 154.253 40.6078 153.165 39.6044C152.075 38.6021 151.53 37.2734 151.53 35.6161C151.53 33.8912 152.187 32.5358 153.503 31.5486C154.82 30.5638 156.393 30.0731 158.223 30.0731C160.822 30.0731 162.931 31.0579 164.554 33.0264L161.493 35.3807C160.898 34.7384 160.138 34.2723 159.295 34.0334C158.458 33.798 157.73 33.8155 157.11 34.0858C156.492 34.3562 156.173 34.8411 156.154 35.538C156.208 36.3375 157.028 36.9133 158.613 37.2629C159.364 37.4004 160.018 37.5496 160.574 37.7058C161.133 37.8643 161.716 38.1021 162.325 38.4261C162.935 38.7489 163.428 39.123 163.806 39.5496C164.178 39.9773 164.482 40.5356 164.706 41.2244C164.933 41.912 165.027 42.6929 164.994 43.5635C164.95 44.6767 164.52 45.7398 163.778 46.5704C163.02 47.4445 162.103 48.0855 161.032 48.4934C159.959 48.9037 158.838 49.1111 157.672 49.1111C156.538 49.1111 155.411 48.8198 154.296 48.2452C153.183 47.6694 152.213 46.8431 151.375 45.7627L151.373 45.7662ZM171.46 34.7292V37.6079H178.966V41.6603H171.46V44.4317H179.621V48.8524H166.726V30.3388H179.619V34.7327L171.457 34.7304L171.46 34.7292Z" fill="#A3B3CC"/>
</g>
<defs>
<clipPath id="clip0_1701_4">
<rect width="179.484" height="48" fill="white" transform="translate(0.135742 16)"/>
</clipPath>
</defs>
</svg>
