<svg width="134" height="80" viewBox="0 0 134 80" fill="none" xmlns="http://www.w3.org/2000/svg">
<g clip-path="url(#clip0_1751_15059)">
<path d="M81.6476 59.6781H78.5979L70.5117 79.3563H73.2841L75.5483 73.6091L75.7793 73.0114H84.3276L84.5586 73.6091L86.8228 79.3563H89.549L81.6476 59.6781ZM78.9214 65.0574C79.3834 63.862 79.7069 62.8505 79.9379 62.0689L80.0765 61.6551L80.4462 62.8045C80.7234 63.6321 80.9545 64.3218 81.2317 64.9655L83.5883 70.9425H76.5648L78.9214 65.0574Z" fill="#A3B3CC"/>
<path d="M130.858 62.2068C129.056 60.5517 126.468 59.6781 123.095 59.6781H116.534V79.3563H123.927C125.821 79.3563 127.531 78.9425 128.963 78.1609C130.442 77.3333 131.551 76.1839 132.336 74.6666C133.122 73.1494 133.538 71.3563 133.538 69.3333C133.584 66.2528 132.66 63.862 130.858 62.2068ZM130.026 73.5172C129.425 74.7126 128.594 75.6321 127.485 76.2298C126.376 76.8735 125.128 77.1954 123.65 77.1954H119.26V61.885H123.049C125.59 61.885 127.531 62.5287 128.871 63.816C130.211 65.1034 130.904 66.9425 130.904 69.3793C130.904 70.9425 130.627 72.3218 130.026 73.5172Z" fill="#A3B3CC"/>
<path d="M69.5413 59.6781C69.2179 59.6781 68.8482 59.6781 68.571 59.6781C67.6469 59.7241 66.8613 59.908 66.3993 61.0574C66.2607 61.4252 63.0262 73.3333 62.8876 73.885C62.7489 74.5747 62.5179 75.4482 62.2869 76.5057L62.1482 77.0114C61.871 75.6321 61.4551 73.931 60.9007 71.908L57.4351 59.6781H54.8476C52.5372 67.816 51.1972 72.4597 50.92 73.6551C50.6427 74.8505 50.3655 76 50.1344 77.0114C49.7648 75.3563 49.3951 73.7471 48.9793 72.1839L45.4213 59.6781H42.6489L48.471 79.3563H51.6593C54.062 70.7586 55.3096 66.0689 55.4945 65.3333C55.6793 64.5977 55.8641 63.7241 56.0951 62.6206C56.511 64.6436 56.8344 66.0229 57.0655 66.8045L60.4848 79.3103H63.6731L69.5413 59.6781Z" fill="#A3B3CC"/>
<path d="M38.2596 59.6781C37.3354 59.6781 35.5796 59.862 35.5796 61.6091C35.5796 61.977 35.5796 71.816 35.5796 71.816C35.5796 73.6551 35.0713 75.0804 34.101 76.0459C33.1306 77.0114 31.7444 77.4712 29.9423 77.4712C28.2327 77.4712 26.8927 77.0114 25.9686 76.0919C25.0444 75.1724 24.5823 73.7931 24.5823 72V59.6781H21.9023V72.2298C21.9023 73.7931 22.2258 75.1264 22.9189 76.2298C23.5658 77.3333 24.5361 78.2068 25.7375 78.8045C26.9389 79.4022 28.3713 79.6781 29.9886 79.6781C31.6982 79.6781 33.1306 79.3563 34.3782 78.7586C35.6258 78.1609 36.5961 77.2873 37.243 76.0919C37.8899 74.8965 38.2596 73.5632 38.2596 71.954V59.6781Z" fill="#A3B3CC"/>
<path d="M12.9841 72.3219C13.0765 72.2759 13.1227 72.2759 13.2151 72.2299C13.9083 71.9541 14.5089 71.5403 15.0172 71.0345C16.0338 70.069 16.7731 68.6437 16.7731 66.4828C16.7731 60.7817 11.9214 59.8621 10.0731 59.8621H3.04963H1.70963H0.369629V79.5403H3.04963V73.0115H10.4889C10.4889 73.0115 13.5848 77.9771 13.7234 78.161C14.7862 79.8621 15.8951 79.6782 17.651 79.6782L12.9841 72.3219ZM3.04963 70.8506V61.9771H9.05653C10.4889 61.9771 11.5517 62.2989 12.3372 62.8966C12.3834 62.9426 12.4758 62.9886 12.522 63.0345C12.522 63.0345 12.5682 63.0345 12.5682 63.0805C13.4 63.7702 14.0931 64.8276 14.0931 66.4828C14.0931 67.5863 13.8158 68.4138 13.4462 69.0115C13.4 69.1035 13.3538 69.1955 13.2613 69.2874L13.2151 69.3334C13.1689 69.4253 13.0765 69.4713 13.0303 69.5633C12.9841 69.6092 12.9379 69.6552 12.8917 69.7012C12.8455 69.7472 12.7993 69.7931 12.7531 69.8391C12.7069 69.8851 12.6607 69.9311 12.5682 69.9771C12.522 70.023 12.4758 70.069 12.3834 70.115C12.3834 70.115 12.3372 70.115 12.3372 70.161C11.5979 70.6667 10.6276 70.8966 9.37997 70.8966C9.37997 70.8506 3.28066 70.8506 3.04963 70.8506Z" fill="#A3B3CC"/>
<path d="M106.553 72.3219C106.646 72.2759 106.692 72.2759 106.784 72.2299C107.478 71.9541 108.078 71.5403 108.587 71.0345C109.603 70.069 110.342 68.6437 110.342 66.4828C110.342 60.7817 105.491 59.8621 103.642 59.8621H96.619H95.279H93.939V79.5403H96.619V73.0115H104.058C104.058 73.0115 107.154 77.9771 107.293 78.161C108.356 79.8621 109.464 79.6782 111.22 79.6782L106.553 72.3219ZM96.619 70.8506V61.9771H102.626C104.058 61.9771 105.121 62.2989 105.907 62.8966C105.953 62.9426 106.045 62.9886 106.091 63.0345C106.091 63.0345 106.138 63.0345 106.138 63.0805C106.969 63.7702 107.662 64.8276 107.662 66.4828C107.662 67.5863 107.385 68.4138 107.016 69.0115C106.969 69.1035 106.923 69.1955 106.831 69.2874L106.784 69.3334C106.738 69.4253 106.646 69.4713 106.6 69.5633C106.553 69.6092 106.507 69.6552 106.461 69.7012C106.415 69.7472 106.369 69.7931 106.322 69.8391C106.276 69.8851 106.23 69.9311 106.138 69.9771C106.091 70.023 106.045 70.069 105.953 70.115C105.953 70.115 105.907 70.115 105.907 70.161C105.167 70.6667 104.197 70.8966 102.949 70.8966C102.996 70.8506 96.85 70.8506 96.619 70.8506Z" fill="#A3B3CC"/>
<path d="M51.2438 27.6322C54.8479 24.2759 59.6534 22.1609 64.921 21.977V0.321838C53.6003 0.505746 43.2962 5.05747 35.7183 12.3218L51.2438 27.6322Z" fill="#DBE3F0"/>
<path d="M79.8916 27.5402L95.0937 11.954C87.562 4.87358 77.4427 0.505764 66.353 0.275879V21.931C66.8613 21.931 67.3234 21.977 67.7854 22.023C68.4785 22.069 69.1716 22.023 69.5875 21.0575C69.5875 21.0115 75.0861 7.86209 75.0861 7.86209L75.5482 7.35634L70.9737 22.6207C74.393 23.5402 77.4427 25.2414 79.8916 27.5402Z" fill="#DBE3F0"/>
<path d="M96.1563 12.9655L80.8618 28.5057C84.3735 32.1839 86.5453 37.1494 86.5915 42.5747H108.632C108.494 31.0345 103.734 20.5977 96.1563 12.9655Z" fill="#DBE3F0"/>
<path d="M65.66 48.4138C65.66 48.4138 63.4883 48.1379 63.4883 46.1609C63.4883 44.1839 75.5483 7.4023 75.5483 7.4023L76.149 7.35632L65.66 48.4138Z" fill="#A3B3CC"/>
<path d="M34.794 13.2874C27.4009 20.8736 22.7802 31.2184 22.6416 42.5747H44.6823C44.7285 37.1954 46.854 32.3218 50.2733 28.6437L38.1671 16.5977L34.794 13.2874Z" fill="#DBE3F0"/>
</g>
<defs>
<clipPath id="clip0_1751_15059">
<rect width="134" height="80" fill="white"/>
</clipPath>
</defs>
</svg>
